G04 EAGLE Gerber RS-274X export*
G75*
%MOMM*%
%FSLAX34Y34*%
%LPD*%
%INBottom Copper*%
%IPPOS*%
%AMOC8*
5,1,8,0,0,1.08239X$1,22.5*%
G01*
%ADD10P,1.649562X8X292.500000*%
%ADD11P,1.649562X8X112.500000*%
%ADD12C,1.524000*%
%ADD13C,0.654800*%
%ADD14C,0.250000*%

G36*
X178017Y88751D02*
X178017Y88751D01*
X230728Y88751D01*
X230869Y88769D01*
X231010Y88783D01*
X231025Y88789D01*
X231041Y88791D01*
X231173Y88843D01*
X231306Y88892D01*
X231319Y88902D01*
X231334Y88908D01*
X231449Y88991D01*
X231565Y89072D01*
X231576Y89085D01*
X231589Y89094D01*
X231678Y89204D01*
X231771Y89312D01*
X231778Y89326D01*
X231788Y89339D01*
X231848Y89468D01*
X231910Y89595D01*
X231913Y89611D01*
X231920Y89625D01*
X231945Y89765D01*
X231974Y89904D01*
X231973Y89920D01*
X231976Y89936D01*
X231965Y90077D01*
X231958Y90219D01*
X231954Y90234D01*
X231952Y90250D01*
X231906Y90385D01*
X231864Y90520D01*
X231857Y90531D01*
X231851Y90549D01*
X231677Y90813D01*
X231633Y90853D01*
X231612Y90883D01*
X230501Y91994D01*
X229693Y93944D01*
X229693Y96056D01*
X230501Y98006D01*
X231994Y99499D01*
X233944Y100307D01*
X236056Y100307D01*
X238006Y99499D01*
X239499Y98006D01*
X240307Y96056D01*
X240307Y93944D01*
X239499Y91994D01*
X238388Y90883D01*
X238302Y90771D01*
X238212Y90661D01*
X238205Y90647D01*
X238195Y90634D01*
X238139Y90504D01*
X238080Y90375D01*
X238077Y90359D01*
X238071Y90344D01*
X238049Y90203D01*
X238024Y90064D01*
X238025Y90048D01*
X238023Y90032D01*
X238037Y89890D01*
X238048Y89750D01*
X238053Y89734D01*
X238054Y89718D01*
X238104Y89586D01*
X238149Y89451D01*
X238158Y89437D01*
X238164Y89422D01*
X238244Y89307D01*
X238323Y89187D01*
X238335Y89176D01*
X238344Y89163D01*
X238451Y89071D01*
X238557Y88976D01*
X238571Y88968D01*
X238583Y88958D01*
X238711Y88895D01*
X238836Y88829D01*
X238849Y88827D01*
X238866Y88818D01*
X239175Y88754D01*
X239235Y88757D01*
X239272Y88751D01*
X250000Y88751D01*
X250125Y88767D01*
X250250Y88776D01*
X250281Y88787D01*
X250313Y88791D01*
X250430Y88837D01*
X250549Y88878D01*
X250576Y88896D01*
X250606Y88908D01*
X250707Y88982D01*
X250813Y89051D01*
X250834Y89075D01*
X250860Y89094D01*
X250940Y89192D01*
X251024Y89285D01*
X251039Y89314D01*
X251060Y89339D01*
X251113Y89453D01*
X251171Y89565D01*
X251175Y89590D01*
X251192Y89625D01*
X251248Y89936D01*
X251245Y89975D01*
X251249Y90000D01*
X251249Y142968D01*
X251233Y143093D01*
X251224Y143218D01*
X251213Y143249D01*
X251209Y143281D01*
X251163Y143398D01*
X251122Y143517D01*
X251104Y143544D01*
X251092Y143574D01*
X251018Y143675D01*
X250949Y143781D01*
X250925Y143802D01*
X250906Y143828D01*
X250808Y143908D01*
X250715Y143992D01*
X250686Y144007D01*
X250661Y144028D01*
X250547Y144081D01*
X250436Y144139D01*
X250410Y144143D01*
X250375Y144160D01*
X250064Y144216D01*
X250025Y144213D01*
X250000Y144217D01*
X214740Y144217D01*
X214631Y144203D01*
X214521Y144198D01*
X214475Y144184D01*
X214427Y144177D01*
X214324Y144137D01*
X214220Y144104D01*
X214189Y144082D01*
X214134Y144060D01*
X213879Y143874D01*
X213867Y143859D01*
X213856Y143851D01*
X213006Y143001D01*
X211056Y142193D01*
X208944Y142193D01*
X206994Y143001D01*
X205501Y144494D01*
X204693Y146444D01*
X204693Y148556D01*
X205501Y150506D01*
X206994Y151999D01*
X208944Y152807D01*
X211056Y152807D01*
X213006Y151999D01*
X213856Y151149D01*
X213943Y151081D01*
X214025Y151008D01*
X214067Y150985D01*
X214106Y150955D01*
X214207Y150912D01*
X214304Y150861D01*
X214341Y150854D01*
X214396Y150831D01*
X214707Y150783D01*
X214727Y150785D01*
X214740Y150783D01*
X250000Y150783D01*
X250125Y150799D01*
X250250Y150808D01*
X250281Y150819D01*
X250313Y150823D01*
X250430Y150869D01*
X250549Y150910D01*
X250576Y150928D01*
X250606Y150940D01*
X250707Y151014D01*
X250813Y151083D01*
X250834Y151107D01*
X250860Y151126D01*
X250940Y151224D01*
X251024Y151317D01*
X251039Y151346D01*
X251060Y151371D01*
X251113Y151485D01*
X251171Y151596D01*
X251175Y151622D01*
X251192Y151657D01*
X251248Y151968D01*
X251245Y152007D01*
X251249Y152032D01*
X251249Y160468D01*
X251233Y160593D01*
X251224Y160718D01*
X251213Y160749D01*
X251209Y160781D01*
X251163Y160898D01*
X251122Y161017D01*
X251104Y161044D01*
X251092Y161074D01*
X251018Y161175D01*
X250949Y161281D01*
X250925Y161302D01*
X250906Y161328D01*
X250808Y161408D01*
X250715Y161492D01*
X250686Y161507D01*
X250661Y161528D01*
X250547Y161581D01*
X250436Y161639D01*
X250410Y161643D01*
X250375Y161660D01*
X250064Y161716D01*
X250025Y161713D01*
X250000Y161717D01*
X238640Y161717D01*
X228137Y172220D01*
X228137Y182760D01*
X228123Y182869D01*
X228118Y182979D01*
X228104Y183025D01*
X228097Y183073D01*
X228057Y183176D01*
X228024Y183280D01*
X228002Y183311D01*
X227980Y183366D01*
X227794Y183621D01*
X227779Y183633D01*
X227771Y183644D01*
X226921Y184494D01*
X226113Y186444D01*
X226113Y188556D01*
X226921Y190506D01*
X228414Y191999D01*
X230364Y192807D01*
X232476Y192807D01*
X234426Y191999D01*
X235919Y190506D01*
X236727Y188556D01*
X236727Y186444D01*
X235919Y184494D01*
X235069Y183644D01*
X235001Y183557D01*
X234928Y183475D01*
X234905Y183433D01*
X234875Y183394D01*
X234832Y183293D01*
X234781Y183196D01*
X234774Y183159D01*
X234751Y183104D01*
X234703Y182793D01*
X234705Y182773D01*
X234703Y182760D01*
X234703Y175457D01*
X234717Y175348D01*
X234722Y175238D01*
X234736Y175192D01*
X234743Y175144D01*
X234783Y175042D01*
X234816Y174937D01*
X234838Y174906D01*
X234860Y174851D01*
X235046Y174597D01*
X235061Y174585D01*
X235069Y174574D01*
X240994Y168649D01*
X241081Y168581D01*
X241162Y168508D01*
X241205Y168485D01*
X241243Y168455D01*
X241344Y168412D01*
X241442Y168361D01*
X241479Y168354D01*
X241533Y168331D01*
X241845Y168283D01*
X241864Y168285D01*
X241877Y168283D01*
X250000Y168283D01*
X250125Y168299D01*
X250250Y168308D01*
X250281Y168319D01*
X250313Y168323D01*
X250430Y168369D01*
X250549Y168410D01*
X250576Y168428D01*
X250606Y168440D01*
X250707Y168514D01*
X250813Y168583D01*
X250834Y168607D01*
X250860Y168626D01*
X250940Y168724D01*
X251024Y168817D01*
X251039Y168846D01*
X251060Y168871D01*
X251113Y168985D01*
X251171Y169096D01*
X251175Y169122D01*
X251192Y169157D01*
X251248Y169468D01*
X251245Y169507D01*
X251249Y169532D01*
X251249Y286210D01*
X251233Y286335D01*
X251224Y286460D01*
X251213Y286491D01*
X251209Y286523D01*
X251163Y286640D01*
X251122Y286759D01*
X251104Y286786D01*
X251092Y286816D01*
X251018Y286917D01*
X250949Y287023D01*
X250925Y287044D01*
X250906Y287070D01*
X250808Y287150D01*
X250715Y287234D01*
X250686Y287249D01*
X250661Y287270D01*
X250547Y287323D01*
X250436Y287381D01*
X250410Y287385D01*
X250375Y287402D01*
X250064Y287458D01*
X250025Y287455D01*
X250000Y287459D01*
X3790Y287459D01*
X3665Y287443D01*
X3540Y287434D01*
X3509Y287423D01*
X3477Y287419D01*
X3360Y287373D01*
X3241Y287332D01*
X3214Y287314D01*
X3184Y287302D01*
X3083Y287228D01*
X2977Y287159D01*
X2956Y287135D01*
X2930Y287116D01*
X2850Y287018D01*
X2766Y286925D01*
X2751Y286896D01*
X2730Y286871D01*
X2677Y286757D01*
X2619Y286646D01*
X2615Y286620D01*
X2598Y286585D01*
X2542Y286274D01*
X2545Y286235D01*
X2541Y286210D01*
X2541Y-6210D01*
X2557Y-6335D01*
X2566Y-6460D01*
X2577Y-6491D01*
X2581Y-6523D01*
X2627Y-6640D01*
X2668Y-6759D01*
X2686Y-6786D01*
X2698Y-6816D01*
X2772Y-6917D01*
X2841Y-7023D01*
X2865Y-7044D01*
X2884Y-7070D01*
X2982Y-7150D01*
X3075Y-7234D01*
X3104Y-7249D01*
X3129Y-7270D01*
X3243Y-7323D01*
X3354Y-7381D01*
X3380Y-7385D01*
X3415Y-7402D01*
X3726Y-7458D01*
X3765Y-7455D01*
X3790Y-7459D01*
X496210Y-7459D01*
X496335Y-7443D01*
X496460Y-7434D01*
X496491Y-7423D01*
X496523Y-7419D01*
X496640Y-7373D01*
X496759Y-7332D01*
X496786Y-7314D01*
X496816Y-7302D01*
X496917Y-7228D01*
X497023Y-7159D01*
X497044Y-7135D01*
X497070Y-7116D01*
X497150Y-7018D01*
X497234Y-6925D01*
X497249Y-6896D01*
X497270Y-6871D01*
X497323Y-6757D01*
X497381Y-6646D01*
X497385Y-6620D01*
X497402Y-6585D01*
X497458Y-6274D01*
X497455Y-6235D01*
X497459Y-6210D01*
X497459Y286210D01*
X497443Y286335D01*
X497434Y286460D01*
X497423Y286491D01*
X497419Y286523D01*
X497373Y286640D01*
X497332Y286759D01*
X497314Y286786D01*
X497302Y286816D01*
X497228Y286917D01*
X497159Y287023D01*
X497135Y287044D01*
X497116Y287070D01*
X497018Y287150D01*
X496925Y287234D01*
X496896Y287249D01*
X496871Y287270D01*
X496757Y287323D01*
X496646Y287381D01*
X496620Y287385D01*
X496585Y287402D01*
X496274Y287458D01*
X496235Y287455D01*
X496210Y287459D01*
X257500Y287459D01*
X257375Y287443D01*
X257250Y287434D01*
X257219Y287423D01*
X257187Y287419D01*
X257070Y287373D01*
X256951Y287332D01*
X256924Y287314D01*
X256894Y287302D01*
X256793Y287228D01*
X256687Y287159D01*
X256666Y287135D01*
X256640Y287116D01*
X256560Y287018D01*
X256476Y286925D01*
X256461Y286896D01*
X256440Y286871D01*
X256387Y286757D01*
X256329Y286646D01*
X256325Y286620D01*
X256308Y286585D01*
X256252Y286274D01*
X256255Y286235D01*
X256251Y286210D01*
X256251Y170670D01*
X256258Y170615D01*
X256256Y170560D01*
X256278Y170459D01*
X256291Y170357D01*
X256311Y170305D01*
X256323Y170251D01*
X256369Y170160D01*
X256408Y170064D01*
X256440Y170019D01*
X256465Y169970D01*
X256533Y169893D01*
X256594Y169809D01*
X256637Y169774D01*
X256673Y169733D01*
X256759Y169675D01*
X256839Y169610D01*
X256889Y169587D01*
X256934Y169556D01*
X257031Y169521D01*
X257125Y169478D01*
X257180Y169468D01*
X257232Y169450D01*
X257334Y169440D01*
X257436Y169422D01*
X257491Y169426D01*
X257546Y169421D01*
X257609Y169435D01*
X257750Y169446D01*
X257914Y169502D01*
X257978Y169515D01*
X259888Y170307D01*
X262000Y170307D01*
X263950Y169499D01*
X265443Y168006D01*
X266251Y166056D01*
X266251Y163944D01*
X265443Y161994D01*
X263950Y160501D01*
X262000Y159693D01*
X259888Y159693D01*
X257978Y160485D01*
X257925Y160499D01*
X257875Y160522D01*
X257773Y160540D01*
X257674Y160568D01*
X257618Y160568D01*
X257564Y160578D01*
X257461Y160570D01*
X257358Y160572D01*
X257305Y160558D01*
X257250Y160554D01*
X257152Y160521D01*
X257052Y160496D01*
X257003Y160470D01*
X256951Y160453D01*
X256865Y160396D01*
X256774Y160347D01*
X256734Y160310D01*
X256687Y160279D01*
X256618Y160203D01*
X256542Y160133D01*
X256513Y160086D01*
X256476Y160045D01*
X256428Y159954D01*
X256372Y159867D01*
X256355Y159815D01*
X256329Y159766D01*
X256318Y159702D01*
X256273Y159567D01*
X256262Y159395D01*
X256251Y159330D01*
X256251Y152032D01*
X256267Y151907D01*
X256276Y151782D01*
X256287Y151751D01*
X256291Y151719D01*
X256337Y151602D01*
X256378Y151483D01*
X256396Y151456D01*
X256408Y151426D01*
X256482Y151325D01*
X256551Y151219D01*
X256575Y151198D01*
X256594Y151172D01*
X256692Y151092D01*
X256785Y151008D01*
X256814Y150993D01*
X256839Y150972D01*
X256953Y150919D01*
X257065Y150861D01*
X257090Y150857D01*
X257125Y150840D01*
X257436Y150784D01*
X257475Y150787D01*
X257500Y150783D01*
X260260Y150783D01*
X260369Y150797D01*
X260479Y150802D01*
X260525Y150816D01*
X260573Y150823D01*
X260676Y150863D01*
X260780Y150896D01*
X260811Y150918D01*
X260866Y150940D01*
X261121Y151126D01*
X261133Y151141D01*
X261144Y151149D01*
X261994Y151999D01*
X263944Y152807D01*
X266056Y152807D01*
X268006Y151999D01*
X269499Y150506D01*
X270307Y148556D01*
X270307Y146444D01*
X269499Y144494D01*
X268006Y143001D01*
X266056Y142193D01*
X263944Y142193D01*
X261994Y143001D01*
X261144Y143851D01*
X261057Y143919D01*
X260975Y143992D01*
X260933Y144015D01*
X260894Y144045D01*
X260793Y144088D01*
X260696Y144139D01*
X260659Y144146D01*
X260604Y144169D01*
X260293Y144217D01*
X260273Y144215D01*
X260260Y144217D01*
X257500Y144217D01*
X257375Y144201D01*
X257250Y144192D01*
X257219Y144181D01*
X257187Y144177D01*
X257070Y144131D01*
X256951Y144090D01*
X256924Y144072D01*
X256894Y144060D01*
X256793Y143986D01*
X256687Y143917D01*
X256666Y143893D01*
X256640Y143874D01*
X256560Y143776D01*
X256476Y143683D01*
X256461Y143654D01*
X256440Y143629D01*
X256387Y143515D01*
X256329Y143404D01*
X256325Y143378D01*
X256308Y143343D01*
X256252Y143032D01*
X256255Y142993D01*
X256251Y142968D01*
X256251Y83749D01*
X180000Y83749D01*
X179891Y83735D01*
X179781Y83730D01*
X179735Y83716D01*
X179687Y83709D01*
X179585Y83669D01*
X179480Y83636D01*
X179449Y83614D01*
X179394Y83592D01*
X179140Y83406D01*
X179132Y83397D01*
X179126Y83393D01*
X179122Y83387D01*
X179117Y83383D01*
X156983Y61249D01*
X151249Y61249D01*
X151249Y61983D01*
X178017Y88751D01*
G37*
%LPC*%
G36*
X131444Y139693D02*
X131444Y139693D01*
X129494Y140501D01*
X128001Y141994D01*
X127193Y143944D01*
X127193Y146056D01*
X128001Y148006D01*
X129494Y149499D01*
X130243Y149809D01*
X130291Y149837D01*
X130343Y149856D01*
X130428Y149915D01*
X130517Y149966D01*
X130557Y150004D01*
X130602Y150036D01*
X130669Y150114D01*
X130743Y150186D01*
X130772Y150233D01*
X130808Y150275D01*
X130853Y150368D01*
X130907Y150456D01*
X130922Y150509D01*
X130947Y150558D01*
X130968Y150659D01*
X130997Y150758D01*
X131000Y150813D01*
X131011Y150867D01*
X131006Y150970D01*
X131010Y151073D01*
X130998Y151127D01*
X130995Y151182D01*
X130964Y151281D01*
X130942Y151381D01*
X130917Y151431D01*
X130901Y151483D01*
X130864Y151537D01*
X130800Y151663D01*
X130686Y151793D01*
X130648Y151847D01*
X130493Y152002D01*
X129685Y153952D01*
X129685Y156063D01*
X130493Y158014D01*
X131344Y158864D01*
X131411Y158951D01*
X131485Y159032D01*
X131507Y159075D01*
X131537Y159113D01*
X131580Y159215D01*
X131631Y159312D01*
X131638Y159349D01*
X131661Y159403D01*
X131709Y159715D01*
X131707Y159734D01*
X131709Y159747D01*
X131709Y185812D01*
X131705Y185851D01*
X131707Y185890D01*
X131685Y186007D01*
X131670Y186125D01*
X131655Y186161D01*
X131648Y186200D01*
X131597Y186307D01*
X131553Y186418D01*
X131530Y186450D01*
X131513Y186485D01*
X131436Y186576D01*
X131366Y186672D01*
X131336Y186697D01*
X131311Y186727D01*
X131256Y186763D01*
X131122Y186872D01*
X130993Y186931D01*
X130938Y186966D01*
X130438Y187173D01*
X128945Y188666D01*
X128137Y190617D01*
X128137Y192728D01*
X128945Y194678D01*
X130438Y196171D01*
X131990Y196814D01*
X132051Y196849D01*
X132118Y196876D01*
X132188Y196927D01*
X132264Y196970D01*
X132315Y197020D01*
X132372Y197062D01*
X132427Y197130D01*
X132489Y197191D01*
X132526Y197251D01*
X132571Y197307D01*
X132608Y197386D01*
X132653Y197460D01*
X132673Y197529D01*
X132703Y197593D01*
X132719Y197679D01*
X132744Y197763D01*
X132747Y197834D01*
X132759Y197904D01*
X132753Y197991D01*
X132756Y198078D01*
X132741Y198147D01*
X132735Y198218D01*
X132707Y198301D01*
X132689Y198386D01*
X132657Y198450D01*
X132634Y198517D01*
X132586Y198590D01*
X132546Y198668D01*
X132499Y198721D01*
X132460Y198781D01*
X132396Y198839D01*
X132338Y198905D01*
X132279Y198945D01*
X132227Y198992D01*
X132149Y199033D01*
X132077Y199082D01*
X132010Y199106D01*
X131947Y199139D01*
X131888Y199150D01*
X131780Y199188D01*
X131567Y199207D01*
X131512Y199217D01*
X126877Y199217D01*
X126768Y199203D01*
X126658Y199198D01*
X126612Y199184D01*
X126564Y199177D01*
X126462Y199137D01*
X126357Y199104D01*
X126326Y199082D01*
X126271Y199060D01*
X126017Y198874D01*
X126005Y198859D01*
X125994Y198851D01*
X125673Y198530D01*
X125605Y198443D01*
X125532Y198362D01*
X125509Y198319D01*
X125479Y198281D01*
X125436Y198180D01*
X125385Y198082D01*
X125378Y198045D01*
X125355Y197991D01*
X125307Y197679D01*
X125309Y197660D01*
X125307Y197647D01*
X125307Y196444D01*
X124499Y194494D01*
X123006Y193001D01*
X121056Y192193D01*
X119056Y192193D01*
X118931Y192177D01*
X118806Y192168D01*
X118775Y192157D01*
X118743Y192153D01*
X118626Y192107D01*
X118507Y192066D01*
X118480Y192048D01*
X118450Y192036D01*
X118349Y191962D01*
X118243Y191893D01*
X118222Y191869D01*
X118196Y191850D01*
X118116Y191752D01*
X118032Y191659D01*
X118017Y191630D01*
X117996Y191605D01*
X117943Y191491D01*
X117885Y191380D01*
X117881Y191354D01*
X117864Y191319D01*
X117808Y191008D01*
X117811Y190969D01*
X117807Y190944D01*
X117807Y188944D01*
X116999Y186994D01*
X115506Y185501D01*
X113556Y184693D01*
X111444Y184693D01*
X109494Y185501D01*
X108001Y186994D01*
X107193Y188944D01*
X107193Y190147D01*
X107179Y190256D01*
X107174Y190366D01*
X107160Y190412D01*
X107153Y190460D01*
X107113Y190562D01*
X107080Y190667D01*
X107058Y190698D01*
X107036Y190753D01*
X106850Y191007D01*
X106835Y191019D01*
X106827Y191030D01*
X104217Y193640D01*
X104217Y205260D01*
X104203Y205369D01*
X104198Y205479D01*
X104184Y205525D01*
X104177Y205573D01*
X104137Y205676D01*
X104104Y205780D01*
X104082Y205811D01*
X104060Y205866D01*
X103874Y206121D01*
X103859Y206133D01*
X103851Y206144D01*
X103001Y206994D01*
X102193Y208944D01*
X102193Y211056D01*
X103001Y213006D01*
X104494Y214499D01*
X106444Y215307D01*
X108556Y215307D01*
X110506Y214499D01*
X111999Y213006D01*
X112807Y211056D01*
X112807Y210281D01*
X112816Y210211D01*
X112815Y210140D01*
X112836Y210055D01*
X112847Y209968D01*
X112873Y209902D01*
X112890Y209833D01*
X112931Y209756D01*
X112964Y209675D01*
X113006Y209618D01*
X113039Y209555D01*
X113099Y209491D01*
X113150Y209421D01*
X113205Y209376D01*
X113254Y209324D01*
X113327Y209277D01*
X113395Y209222D01*
X113459Y209192D01*
X113519Y209153D01*
X113602Y209126D01*
X113681Y209090D01*
X113751Y209077D01*
X113819Y209055D01*
X113906Y209049D01*
X113992Y209034D01*
X114063Y209039D01*
X114134Y209035D01*
X114219Y209051D01*
X114306Y209058D01*
X114374Y209081D01*
X114444Y209094D01*
X114522Y209131D01*
X114605Y209159D01*
X114665Y209198D01*
X114729Y209229D01*
X114796Y209285D01*
X114869Y209333D01*
X114917Y209386D01*
X114971Y209431D01*
X115004Y209482D01*
X115080Y209566D01*
X115180Y209756D01*
X115210Y209803D01*
X115501Y210506D01*
X116994Y211999D01*
X118944Y212807D01*
X120147Y212807D01*
X120256Y212821D01*
X120366Y212826D01*
X120412Y212840D01*
X120460Y212847D01*
X120562Y212887D01*
X120667Y212920D01*
X120698Y212942D01*
X120753Y212964D01*
X121007Y213150D01*
X121019Y213165D01*
X121030Y213173D01*
X123640Y215783D01*
X153860Y215783D01*
X156470Y213173D01*
X156557Y213105D01*
X156638Y213032D01*
X156681Y213009D01*
X156719Y212979D01*
X156820Y212936D01*
X156918Y212885D01*
X156955Y212878D01*
X157009Y212855D01*
X157321Y212807D01*
X157340Y212809D01*
X157353Y212807D01*
X158556Y212807D01*
X160506Y211999D01*
X161999Y210506D01*
X162807Y208556D01*
X162807Y206444D01*
X161999Y204494D01*
X160888Y203383D01*
X160811Y203284D01*
X160729Y203188D01*
X160715Y203159D01*
X160695Y203134D01*
X160645Y203018D01*
X160590Y202905D01*
X160583Y202874D01*
X160571Y202844D01*
X160551Y202719D01*
X160526Y202596D01*
X160528Y202564D01*
X160523Y202532D01*
X160535Y202407D01*
X160542Y202281D01*
X160551Y202250D01*
X160554Y202218D01*
X160598Y202100D01*
X160636Y201980D01*
X160650Y201959D01*
X160664Y201922D01*
X160844Y201663D01*
X160873Y201638D01*
X160888Y201617D01*
X161999Y200506D01*
X162807Y198556D01*
X162807Y196444D01*
X161999Y194494D01*
X160506Y193001D01*
X158556Y192193D01*
X156444Y192193D01*
X154494Y193001D01*
X153001Y194494D01*
X152193Y196444D01*
X152193Y197647D01*
X152179Y197756D01*
X152174Y197866D01*
X152160Y197912D01*
X152153Y197960D01*
X152113Y198062D01*
X152080Y198167D01*
X152058Y198198D01*
X152036Y198253D01*
X151850Y198507D01*
X151835Y198519D01*
X151827Y198530D01*
X151506Y198851D01*
X151419Y198919D01*
X151338Y198992D01*
X151295Y199015D01*
X151257Y199045D01*
X151156Y199088D01*
X151058Y199139D01*
X151021Y199146D01*
X150967Y199169D01*
X150655Y199217D01*
X150636Y199215D01*
X150623Y199217D01*
X135376Y199217D01*
X135306Y199208D01*
X135235Y199209D01*
X135150Y199188D01*
X135063Y199177D01*
X134997Y199151D01*
X134928Y199134D01*
X134851Y199093D01*
X134770Y199060D01*
X134713Y199018D01*
X134650Y198985D01*
X134586Y198925D01*
X134516Y198874D01*
X134471Y198819D01*
X134419Y198770D01*
X134372Y198697D01*
X134316Y198629D01*
X134287Y198565D01*
X134248Y198505D01*
X134221Y198422D01*
X134185Y198343D01*
X134172Y198273D01*
X134150Y198205D01*
X134144Y198118D01*
X134129Y198032D01*
X134134Y197961D01*
X134130Y197890D01*
X134146Y197805D01*
X134152Y197718D01*
X134175Y197650D01*
X134189Y197580D01*
X134226Y197502D01*
X134254Y197419D01*
X134293Y197359D01*
X134324Y197295D01*
X134380Y197228D01*
X134428Y197155D01*
X134480Y197108D01*
X134526Y197053D01*
X134577Y197020D01*
X134661Y196944D01*
X134851Y196844D01*
X134898Y196814D01*
X136450Y196171D01*
X137943Y194678D01*
X138751Y192728D01*
X138751Y190617D01*
X138370Y189698D01*
X138364Y189676D01*
X138353Y189655D01*
X138343Y189600D01*
X138287Y189393D01*
X138286Y189279D01*
X138275Y189220D01*
X138275Y159747D01*
X138289Y159638D01*
X138294Y159529D01*
X138309Y159482D01*
X138315Y159434D01*
X138356Y159332D01*
X138388Y159227D01*
X138410Y159197D01*
X138432Y159141D01*
X138618Y158887D01*
X138633Y158875D01*
X138641Y158864D01*
X139491Y158014D01*
X139694Y157523D01*
X139722Y157475D01*
X139741Y157424D01*
X139800Y157339D01*
X139851Y157249D01*
X139889Y157210D01*
X139921Y157165D01*
X139999Y157097D01*
X140071Y157024D01*
X140118Y156995D01*
X140160Y156959D01*
X140252Y156913D01*
X140341Y156860D01*
X140394Y156844D01*
X140443Y156820D01*
X140544Y156799D01*
X140643Y156769D01*
X140698Y156767D01*
X140752Y156756D01*
X140855Y156761D01*
X140958Y156757D01*
X141012Y156769D01*
X141067Y156771D01*
X141166Y156802D01*
X141266Y156824D01*
X141316Y156849D01*
X141368Y156866D01*
X141422Y156903D01*
X141548Y156966D01*
X141678Y157081D01*
X141732Y157118D01*
X148107Y163494D01*
X148175Y163581D01*
X148249Y163662D01*
X148271Y163705D01*
X148301Y163743D01*
X148344Y163844D01*
X148395Y163942D01*
X148402Y163979D01*
X148425Y164033D01*
X148473Y164345D01*
X148471Y164364D01*
X148473Y164377D01*
X148473Y175260D01*
X148459Y175369D01*
X148454Y175479D01*
X148440Y175525D01*
X148433Y175573D01*
X148393Y175676D01*
X148360Y175780D01*
X148339Y175811D01*
X148317Y175866D01*
X148130Y176121D01*
X148115Y176133D01*
X148107Y176144D01*
X147257Y176994D01*
X146449Y178944D01*
X146449Y181056D01*
X147257Y183006D01*
X148750Y184499D01*
X150700Y185307D01*
X152812Y185307D01*
X154762Y184499D01*
X156255Y183006D01*
X157063Y181056D01*
X157063Y178944D01*
X156255Y176994D01*
X155405Y176144D01*
X155337Y176057D01*
X155264Y175975D01*
X155241Y175933D01*
X155212Y175894D01*
X155168Y175793D01*
X155117Y175696D01*
X155111Y175659D01*
X155087Y175604D01*
X155039Y175293D01*
X155041Y175273D01*
X155039Y175260D01*
X155039Y161140D01*
X152750Y158851D01*
X137957Y144058D01*
X137943Y144040D01*
X137925Y144025D01*
X137895Y143978D01*
X137764Y143809D01*
X137718Y143704D01*
X137686Y143653D01*
X136999Y141994D01*
X135506Y140501D01*
X133556Y139693D01*
X131444Y139693D01*
G37*
%LPD*%
%LPC*%
G36*
X65752Y143047D02*
X65752Y143047D01*
X60097Y148702D01*
X60097Y156698D01*
X61859Y158460D01*
X61903Y158516D01*
X61954Y158566D01*
X61999Y158641D01*
X62052Y158710D01*
X62081Y158775D01*
X62117Y158836D01*
X62143Y158920D01*
X62177Y159000D01*
X62188Y159070D01*
X62208Y159138D01*
X62212Y159225D01*
X62225Y159312D01*
X62218Y159382D01*
X62220Y159454D01*
X62202Y159539D01*
X62193Y159625D01*
X62168Y159692D01*
X62153Y159762D01*
X62114Y159840D01*
X62084Y159921D01*
X62043Y159980D01*
X62011Y160043D01*
X61953Y160109D01*
X61904Y160180D01*
X61849Y160227D01*
X61803Y160280D01*
X61730Y160329D01*
X61664Y160386D01*
X61600Y160418D01*
X61542Y160458D01*
X61459Y160487D01*
X61381Y160525D01*
X61312Y160540D01*
X61244Y160564D01*
X61158Y160572D01*
X61072Y160589D01*
X61001Y160586D01*
X60930Y160592D01*
X60871Y160579D01*
X60757Y160574D01*
X60553Y160510D01*
X60498Y160498D01*
X58556Y159693D01*
X56444Y159693D01*
X54494Y160501D01*
X53001Y161994D01*
X52193Y163944D01*
X52193Y166056D01*
X53001Y168006D01*
X54494Y169499D01*
X56444Y170307D01*
X58556Y170307D01*
X60506Y169499D01*
X61356Y168649D01*
X61443Y168581D01*
X61525Y168508D01*
X61567Y168485D01*
X61606Y168455D01*
X61707Y168412D01*
X61804Y168361D01*
X61841Y168354D01*
X61896Y168331D01*
X62207Y168283D01*
X62227Y168285D01*
X62240Y168283D01*
X62900Y168283D01*
X63041Y168301D01*
X63182Y168315D01*
X63197Y168321D01*
X63213Y168323D01*
X63345Y168375D01*
X63478Y168424D01*
X63491Y168434D01*
X63506Y168440D01*
X63621Y168524D01*
X63737Y168604D01*
X63748Y168617D01*
X63761Y168626D01*
X63851Y168736D01*
X63943Y168844D01*
X63950Y168858D01*
X63960Y168871D01*
X64020Y169000D01*
X64082Y169127D01*
X64085Y169143D01*
X64092Y169157D01*
X64117Y169297D01*
X64146Y169436D01*
X64145Y169452D01*
X64148Y169468D01*
X64137Y169609D01*
X64130Y169751D01*
X64125Y169766D01*
X64124Y169782D01*
X64078Y169917D01*
X64036Y170052D01*
X64029Y170063D01*
X64022Y170081D01*
X63849Y170345D01*
X63805Y170385D01*
X63784Y170415D01*
X60097Y174102D01*
X60097Y182098D01*
X65752Y187753D01*
X73748Y187753D01*
X79403Y182098D01*
X79403Y174102D01*
X75716Y170415D01*
X75630Y170303D01*
X75540Y170193D01*
X75533Y170179D01*
X75523Y170166D01*
X75467Y170035D01*
X75408Y169907D01*
X75405Y169891D01*
X75399Y169876D01*
X75377Y169735D01*
X75352Y169596D01*
X75353Y169580D01*
X75351Y169564D01*
X75365Y169422D01*
X75376Y169282D01*
X75381Y169266D01*
X75383Y169250D01*
X75432Y169117D01*
X75478Y168983D01*
X75486Y168969D01*
X75492Y168954D01*
X75573Y168838D01*
X75651Y168719D01*
X75663Y168708D01*
X75672Y168695D01*
X75779Y168603D01*
X75885Y168508D01*
X75899Y168500D01*
X75911Y168490D01*
X76038Y168427D01*
X76164Y168361D01*
X76177Y168359D01*
X76194Y168350D01*
X76503Y168286D01*
X76563Y168289D01*
X76600Y168283D01*
X98554Y168283D01*
X100794Y166043D01*
X100850Y165999D01*
X100900Y165948D01*
X100974Y165903D01*
X101043Y165850D01*
X101109Y165821D01*
X101170Y165785D01*
X101253Y165759D01*
X101333Y165725D01*
X101404Y165714D01*
X101472Y165694D01*
X101559Y165690D01*
X101645Y165677D01*
X101716Y165684D01*
X101787Y165682D01*
X101872Y165700D01*
X101959Y165709D01*
X102026Y165734D01*
X102095Y165749D01*
X102173Y165788D01*
X102255Y165818D01*
X102313Y165859D01*
X102377Y165891D01*
X102442Y165949D01*
X102514Y165998D01*
X102560Y166052D01*
X102614Y166099D01*
X102663Y166172D01*
X102720Y166238D01*
X102751Y166301D01*
X102791Y166360D01*
X102820Y166443D01*
X102859Y166521D01*
X102873Y166590D01*
X102897Y166658D01*
X102905Y166744D01*
X102923Y166830D01*
X102919Y166901D01*
X102926Y166972D01*
X102913Y167030D01*
X102907Y167145D01*
X102843Y167349D01*
X102831Y167404D01*
X102193Y168944D01*
X102193Y171056D01*
X103001Y173006D01*
X104494Y174499D01*
X106444Y175307D01*
X108556Y175307D01*
X110506Y174499D01*
X111999Y173006D01*
X112807Y171056D01*
X112807Y168944D01*
X111999Y166994D01*
X110506Y165501D01*
X108556Y164693D01*
X108022Y164693D01*
X107881Y164675D01*
X107739Y164661D01*
X107724Y164655D01*
X107709Y164653D01*
X107576Y164601D01*
X107443Y164551D01*
X107430Y164542D01*
X107416Y164536D01*
X107301Y164452D01*
X107184Y164371D01*
X107174Y164359D01*
X107161Y164350D01*
X107071Y164240D01*
X106979Y164132D01*
X106972Y164118D01*
X106962Y164105D01*
X106902Y163976D01*
X106840Y163849D01*
X106836Y163833D01*
X106830Y163819D01*
X106805Y163679D01*
X106776Y163540D01*
X106777Y163524D01*
X106774Y163508D01*
X106785Y163366D01*
X106792Y163225D01*
X106796Y163210D01*
X106798Y163194D01*
X106844Y163059D01*
X106886Y162924D01*
X106893Y162913D01*
X106899Y162895D01*
X106950Y162818D01*
X107807Y160750D01*
X107807Y158638D01*
X106999Y156688D01*
X105506Y155195D01*
X103556Y154387D01*
X101444Y154387D01*
X99494Y155195D01*
X98001Y156688D01*
X97193Y158638D01*
X97193Y159841D01*
X97179Y159950D01*
X97174Y160060D01*
X97160Y160106D01*
X97153Y160154D01*
X97113Y160256D01*
X97080Y160361D01*
X97058Y160392D01*
X97036Y160447D01*
X96850Y160701D01*
X96835Y160713D01*
X96827Y160724D01*
X96200Y161351D01*
X96113Y161419D01*
X96032Y161492D01*
X95989Y161515D01*
X95951Y161545D01*
X95850Y161588D01*
X95752Y161639D01*
X95715Y161646D01*
X95661Y161669D01*
X95349Y161717D01*
X95330Y161715D01*
X95317Y161717D01*
X77400Y161717D01*
X77259Y161699D01*
X77118Y161685D01*
X77103Y161679D01*
X77087Y161677D01*
X76955Y161625D01*
X76822Y161576D01*
X76809Y161566D01*
X76794Y161560D01*
X76679Y161476D01*
X76563Y161396D01*
X76552Y161383D01*
X76539Y161374D01*
X76449Y161264D01*
X76357Y161156D01*
X76350Y161142D01*
X76340Y161129D01*
X76280Y161000D01*
X76218Y160873D01*
X76215Y160857D01*
X76208Y160843D01*
X76183Y160703D01*
X76154Y160564D01*
X76155Y160548D01*
X76152Y160532D01*
X76163Y160391D01*
X76170Y160249D01*
X76175Y160234D01*
X76176Y160218D01*
X76222Y160083D01*
X76264Y159948D01*
X76271Y159937D01*
X76278Y159919D01*
X76451Y159655D01*
X76495Y159615D01*
X76516Y159585D01*
X79403Y156698D01*
X79403Y148702D01*
X73748Y143047D01*
X65752Y143047D01*
G37*
%LPD*%
%LPC*%
G36*
X468911Y244459D02*
X468911Y244459D01*
X462281Y247206D01*
X457206Y252281D01*
X454459Y258911D01*
X454459Y266089D01*
X457206Y272719D01*
X462281Y277794D01*
X468911Y280541D01*
X476089Y280541D01*
X482719Y277794D01*
X487794Y272719D01*
X490541Y266089D01*
X490541Y258911D01*
X487794Y252281D01*
X482719Y247206D01*
X476089Y244459D01*
X468911Y244459D01*
G37*
%LPD*%
%LPC*%
G36*
X23911Y244459D02*
X23911Y244459D01*
X17281Y247206D01*
X12206Y252281D01*
X9459Y258911D01*
X9459Y266089D01*
X12206Y272719D01*
X17281Y277794D01*
X23911Y280541D01*
X31089Y280541D01*
X37719Y277794D01*
X42794Y272719D01*
X45541Y266089D01*
X45541Y258911D01*
X42794Y252281D01*
X37719Y247206D01*
X31089Y244459D01*
X23911Y244459D01*
G37*
%LPD*%
%LPC*%
G36*
X23911Y-541D02*
X23911Y-541D01*
X17281Y2206D01*
X12206Y7281D01*
X9459Y13911D01*
X9459Y21089D01*
X12206Y27719D01*
X17281Y32794D01*
X23911Y35541D01*
X31089Y35541D01*
X37719Y32794D01*
X42794Y27719D01*
X45541Y21089D01*
X45541Y13911D01*
X42794Y7281D01*
X37719Y2206D01*
X31089Y-541D01*
X23911Y-541D01*
G37*
%LPD*%
%LPC*%
G36*
X468911Y-541D02*
X468911Y-541D01*
X462281Y2206D01*
X457206Y7281D01*
X454459Y13911D01*
X454459Y21089D01*
X457206Y27719D01*
X462281Y32794D01*
X468911Y35541D01*
X476089Y35541D01*
X482719Y32794D01*
X487794Y27719D01*
X490541Y21089D01*
X490541Y13911D01*
X487794Y7281D01*
X482719Y2206D01*
X476089Y-541D01*
X468911Y-541D01*
G37*
%LPD*%
%LPC*%
G36*
X168944Y168137D02*
X168944Y168137D01*
X166994Y168945D01*
X165501Y170438D01*
X164693Y172388D01*
X164693Y174500D01*
X165501Y176450D01*
X166994Y177943D01*
X168994Y178771D01*
X169014Y178783D01*
X169036Y178790D01*
X169073Y178815D01*
X169125Y178836D01*
X169188Y178882D01*
X169268Y178928D01*
X169322Y178981D01*
X169379Y179022D01*
X169390Y179035D01*
X169400Y179042D01*
X171351Y180994D01*
X171419Y181081D01*
X171492Y181162D01*
X171515Y181205D01*
X171545Y181243D01*
X171588Y181344D01*
X171639Y181442D01*
X171646Y181479D01*
X171669Y181533D01*
X171717Y181845D01*
X171715Y181864D01*
X171717Y181877D01*
X171717Y217760D01*
X171703Y217869D01*
X171698Y217979D01*
X171684Y218025D01*
X171677Y218073D01*
X171637Y218176D01*
X171604Y218280D01*
X171582Y218311D01*
X171560Y218366D01*
X171374Y218621D01*
X171359Y218633D01*
X171351Y218644D01*
X170501Y219494D01*
X169693Y221444D01*
X169693Y223556D01*
X170501Y225506D01*
X171612Y226617D01*
X171689Y226716D01*
X171771Y226812D01*
X171785Y226841D01*
X171805Y226866D01*
X171855Y226982D01*
X171910Y227095D01*
X171917Y227126D01*
X171929Y227156D01*
X171949Y227281D01*
X171974Y227404D01*
X171972Y227436D01*
X171977Y227468D01*
X171965Y227593D01*
X171958Y227719D01*
X171949Y227750D01*
X171946Y227782D01*
X171902Y227900D01*
X171864Y228020D01*
X171850Y228041D01*
X171836Y228078D01*
X171656Y228337D01*
X171627Y228362D01*
X171612Y228383D01*
X170501Y229494D01*
X169693Y231444D01*
X169693Y233556D01*
X170501Y235506D01*
X171994Y236999D01*
X173944Y237807D01*
X176056Y237807D01*
X178006Y236999D01*
X179499Y235506D01*
X180307Y233556D01*
X180307Y231444D01*
X179499Y229494D01*
X178388Y228383D01*
X178311Y228284D01*
X178229Y228188D01*
X178215Y228159D01*
X178195Y228134D01*
X178145Y228018D01*
X178090Y227905D01*
X178083Y227874D01*
X178071Y227844D01*
X178051Y227719D01*
X178026Y227596D01*
X178028Y227564D01*
X178023Y227532D01*
X178035Y227407D01*
X178042Y227281D01*
X178051Y227250D01*
X178054Y227218D01*
X178098Y227100D01*
X178136Y226980D01*
X178150Y226959D01*
X178164Y226922D01*
X178344Y226663D01*
X178373Y226638D01*
X178388Y226617D01*
X179499Y225506D01*
X180307Y223556D01*
X180307Y221444D01*
X179499Y219494D01*
X178649Y218644D01*
X178581Y218557D01*
X178508Y218475D01*
X178485Y218433D01*
X178455Y218394D01*
X178412Y218293D01*
X178361Y218196D01*
X178354Y218159D01*
X178331Y218104D01*
X178283Y217793D01*
X178285Y217773D01*
X178283Y217760D01*
X178283Y216304D01*
X178301Y216163D01*
X178315Y216022D01*
X178321Y216007D01*
X178323Y215991D01*
X178375Y215859D01*
X178424Y215726D01*
X178434Y215713D01*
X178440Y215698D01*
X178523Y215583D01*
X178604Y215467D01*
X178617Y215456D01*
X178626Y215443D01*
X178736Y215353D01*
X178844Y215261D01*
X178858Y215254D01*
X178871Y215244D01*
X179000Y215184D01*
X179127Y215122D01*
X179143Y215119D01*
X179157Y215112D01*
X179297Y215087D01*
X179436Y215058D01*
X179452Y215059D01*
X179468Y215056D01*
X179609Y215067D01*
X179751Y215074D01*
X179766Y215078D01*
X179782Y215080D01*
X179917Y215125D01*
X180052Y215168D01*
X180063Y215175D01*
X180081Y215181D01*
X180345Y215355D01*
X180385Y215399D01*
X180415Y215420D01*
X181994Y216999D01*
X183944Y217807D01*
X186056Y217807D01*
X188006Y216999D01*
X189499Y215506D01*
X190307Y213556D01*
X190307Y211444D01*
X189499Y209494D01*
X188006Y208001D01*
X186056Y207193D01*
X183944Y207193D01*
X181994Y208001D01*
X180415Y209580D01*
X180303Y209666D01*
X180303Y209667D01*
X180282Y209685D01*
X180276Y209689D01*
X180193Y209756D01*
X180179Y209763D01*
X180166Y209773D01*
X180036Y209829D01*
X179907Y209888D01*
X179891Y209891D01*
X179876Y209897D01*
X179735Y209919D01*
X179596Y209944D01*
X179580Y209943D01*
X179564Y209945D01*
X179423Y209931D01*
X179282Y209920D01*
X179266Y209915D01*
X179250Y209914D01*
X179118Y209865D01*
X178983Y209819D01*
X178969Y209810D01*
X178954Y209804D01*
X178839Y209724D01*
X178719Y209645D01*
X178708Y209633D01*
X178695Y209624D01*
X178603Y209517D01*
X178508Y209411D01*
X178500Y209397D01*
X178490Y209385D01*
X178427Y209258D01*
X178361Y209132D01*
X178359Y209119D01*
X178350Y209102D01*
X178286Y208793D01*
X178289Y208749D01*
X178284Y208725D01*
X178285Y208711D01*
X178283Y208696D01*
X178283Y178640D01*
X175556Y175913D01*
X175532Y175882D01*
X175503Y175857D01*
X175436Y175758D01*
X175363Y175664D01*
X175347Y175628D01*
X175325Y175596D01*
X175285Y175484D01*
X175238Y175374D01*
X175232Y175335D01*
X175219Y175299D01*
X175208Y175180D01*
X175190Y175062D01*
X175194Y175023D01*
X175191Y174984D01*
X175205Y174920D01*
X175222Y174748D01*
X175271Y174616D01*
X175285Y174552D01*
X175307Y174499D01*
X175307Y172388D01*
X174499Y170438D01*
X173006Y168945D01*
X171056Y168137D01*
X168944Y168137D01*
G37*
%LPD*%
%LPC*%
G36*
X219080Y245227D02*
X219080Y245227D01*
X215532Y246697D01*
X212817Y249412D01*
X211347Y252960D01*
X211347Y272040D01*
X212817Y275588D01*
X215532Y278303D01*
X219080Y279773D01*
X222920Y279773D01*
X226468Y278303D01*
X229183Y275588D01*
X230653Y272040D01*
X230653Y252960D01*
X229183Y249412D01*
X226468Y246697D01*
X222920Y245227D01*
X219080Y245227D01*
G37*
%LPD*%
%LPC*%
G36*
X193680Y245227D02*
X193680Y245227D01*
X190132Y246697D01*
X187417Y249412D01*
X185947Y252960D01*
X185947Y272040D01*
X187417Y275588D01*
X190132Y278303D01*
X193680Y279773D01*
X197520Y279773D01*
X201068Y278303D01*
X203783Y275588D01*
X205253Y272040D01*
X205253Y252960D01*
X203783Y249412D01*
X201068Y246697D01*
X197520Y245227D01*
X193680Y245227D01*
G37*
%LPD*%
%LPC*%
G36*
X117480Y245227D02*
X117480Y245227D01*
X113932Y246697D01*
X111217Y249412D01*
X109747Y252960D01*
X109747Y272040D01*
X111217Y275588D01*
X113932Y278303D01*
X117480Y279773D01*
X121320Y279773D01*
X124868Y278303D01*
X127583Y275588D01*
X129053Y272040D01*
X129053Y252960D01*
X127583Y249412D01*
X124868Y246697D01*
X121320Y245227D01*
X117480Y245227D01*
G37*
%LPD*%
%LPC*%
G36*
X168280Y245227D02*
X168280Y245227D01*
X164732Y246697D01*
X162017Y249412D01*
X160547Y252960D01*
X160547Y272040D01*
X162017Y275588D01*
X164732Y278303D01*
X168280Y279773D01*
X172120Y279773D01*
X175668Y278303D01*
X178383Y275588D01*
X179853Y272040D01*
X179853Y252960D01*
X178383Y249412D01*
X175668Y246697D01*
X172120Y245227D01*
X168280Y245227D01*
G37*
%LPD*%
%LPC*%
G36*
X92080Y245227D02*
X92080Y245227D01*
X88532Y246697D01*
X85817Y249412D01*
X84347Y252960D01*
X84347Y272040D01*
X85817Y275588D01*
X88532Y278303D01*
X92080Y279773D01*
X95920Y279773D01*
X99468Y278303D01*
X102183Y275588D01*
X103653Y272040D01*
X103653Y252960D01*
X102183Y249412D01*
X99468Y246697D01*
X95920Y245227D01*
X92080Y245227D01*
G37*
%LPD*%
%LPC*%
G36*
X40352Y168447D02*
X40352Y168447D01*
X34697Y174102D01*
X34697Y182098D01*
X40352Y187753D01*
X48348Y187753D01*
X54003Y182098D01*
X54003Y174102D01*
X48348Y168447D01*
X40352Y168447D01*
G37*
%LPD*%
%LPC*%
G36*
X451652Y117647D02*
X451652Y117647D01*
X445997Y123302D01*
X445997Y131298D01*
X451652Y136953D01*
X459648Y136953D01*
X465303Y131298D01*
X465303Y123302D01*
X459648Y117647D01*
X451652Y117647D01*
G37*
%LPD*%
%LPC*%
G36*
X426252Y168447D02*
X426252Y168447D01*
X420597Y174102D01*
X420597Y182098D01*
X426252Y187753D01*
X434248Y187753D01*
X439903Y182098D01*
X439903Y174102D01*
X434248Y168447D01*
X426252Y168447D01*
G37*
%LPD*%
%LPC*%
G36*
X451652Y168447D02*
X451652Y168447D01*
X445997Y174102D01*
X445997Y182098D01*
X451652Y187753D01*
X459648Y187753D01*
X465303Y182098D01*
X465303Y174102D01*
X459648Y168447D01*
X451652Y168447D01*
G37*
%LPD*%
%LPC*%
G36*
X426252Y143047D02*
X426252Y143047D01*
X420597Y148702D01*
X420597Y156698D01*
X426252Y162353D01*
X434248Y162353D01*
X439903Y156698D01*
X439903Y148702D01*
X434248Y143047D01*
X426252Y143047D01*
G37*
%LPD*%
%LPC*%
G36*
X451652Y143047D02*
X451652Y143047D01*
X445997Y148702D01*
X445997Y156698D01*
X451652Y162353D01*
X459648Y162353D01*
X465303Y156698D01*
X465303Y148702D01*
X459648Y143047D01*
X451652Y143047D01*
G37*
%LPD*%
%LPC*%
G36*
X426252Y117647D02*
X426252Y117647D01*
X420597Y123302D01*
X420597Y131298D01*
X426252Y136953D01*
X434248Y136953D01*
X439903Y131298D01*
X439903Y123302D01*
X434248Y117647D01*
X426252Y117647D01*
G37*
%LPD*%
%LPC*%
G36*
X65752Y117647D02*
X65752Y117647D01*
X60097Y123302D01*
X60097Y131298D01*
X65752Y136953D01*
X73748Y136953D01*
X79403Y131298D01*
X79403Y123302D01*
X73748Y117647D01*
X65752Y117647D01*
G37*
%LPD*%
%LPC*%
G36*
X65752Y92247D02*
X65752Y92247D01*
X60097Y97902D01*
X60097Y105898D01*
X65752Y111553D01*
X73748Y111553D01*
X79403Y105898D01*
X79403Y97902D01*
X73748Y92247D01*
X65752Y92247D01*
G37*
%LPD*%
%LPC*%
G36*
X426252Y92247D02*
X426252Y92247D01*
X420597Y97902D01*
X420597Y105898D01*
X426252Y111553D01*
X434248Y111553D01*
X439903Y105898D01*
X439903Y97902D01*
X434248Y92247D01*
X426252Y92247D01*
G37*
%LPD*%
%LPC*%
G36*
X451652Y92247D02*
X451652Y92247D01*
X445997Y97902D01*
X445997Y105898D01*
X451652Y111553D01*
X459648Y111553D01*
X465303Y105898D01*
X465303Y97902D01*
X459648Y92247D01*
X451652Y92247D01*
G37*
%LPD*%
%LPC*%
G36*
X426252Y66847D02*
X426252Y66847D01*
X420597Y72502D01*
X420597Y80498D01*
X426252Y86153D01*
X434248Y86153D01*
X439903Y80498D01*
X439903Y72502D01*
X434248Y66847D01*
X426252Y66847D01*
G37*
%LPD*%
%LPC*%
G36*
X65752Y66847D02*
X65752Y66847D01*
X60097Y72502D01*
X60097Y80498D01*
X65752Y86153D01*
X73748Y86153D01*
X79403Y80498D01*
X79403Y72502D01*
X73748Y66847D01*
X65752Y66847D01*
G37*
%LPD*%
%LPC*%
G36*
X40352Y193847D02*
X40352Y193847D01*
X34697Y199502D01*
X34697Y207498D01*
X40352Y213153D01*
X48348Y213153D01*
X54003Y207498D01*
X54003Y199502D01*
X48348Y193847D01*
X40352Y193847D01*
G37*
%LPD*%
%LPC*%
G36*
X426252Y193847D02*
X426252Y193847D01*
X420597Y199502D01*
X420597Y207498D01*
X426252Y213153D01*
X434248Y213153D01*
X439903Y207498D01*
X439903Y199502D01*
X434248Y193847D01*
X426252Y193847D01*
G37*
%LPD*%
%LPC*%
G36*
X65752Y193847D02*
X65752Y193847D01*
X60097Y199502D01*
X60097Y207498D01*
X65752Y213153D01*
X73748Y213153D01*
X79403Y207498D01*
X79403Y199502D01*
X73748Y193847D01*
X65752Y193847D01*
G37*
%LPD*%
%LPC*%
G36*
X173944Y94693D02*
X173944Y94693D01*
X171994Y95501D01*
X170501Y96994D01*
X169693Y98944D01*
X169693Y101056D01*
X170501Y103006D01*
X171351Y103856D01*
X171419Y103943D01*
X171492Y104025D01*
X171515Y104067D01*
X171544Y104106D01*
X171588Y104207D01*
X171639Y104304D01*
X171646Y104341D01*
X171669Y104396D01*
X171717Y104707D01*
X171715Y104727D01*
X171717Y104740D01*
X171717Y109644D01*
X171703Y109753D01*
X171698Y109863D01*
X171684Y109909D01*
X171677Y109957D01*
X171637Y110059D01*
X171604Y110164D01*
X171582Y110195D01*
X171560Y110250D01*
X171374Y110504D01*
X171359Y110516D01*
X171351Y110527D01*
X170193Y111686D01*
X169385Y113636D01*
X169385Y115747D01*
X170193Y117698D01*
X171686Y119191D01*
X173636Y119999D01*
X175747Y119999D01*
X177698Y119191D01*
X179191Y117698D01*
X179999Y115747D01*
X179999Y113636D01*
X179191Y111686D01*
X178649Y111144D01*
X178581Y111057D01*
X178508Y110975D01*
X178485Y110933D01*
X178455Y110894D01*
X178412Y110793D01*
X178361Y110696D01*
X178354Y110659D01*
X178331Y110604D01*
X178283Y110293D01*
X178285Y110273D01*
X178283Y110260D01*
X178283Y104740D01*
X178297Y104631D01*
X178302Y104521D01*
X178316Y104475D01*
X178323Y104427D01*
X178363Y104324D01*
X178396Y104220D01*
X178418Y104189D01*
X178440Y104134D01*
X178626Y103879D01*
X178641Y103867D01*
X178649Y103856D01*
X179499Y103006D01*
X180307Y101056D01*
X180307Y98944D01*
X179499Y96994D01*
X178006Y95501D01*
X176056Y94693D01*
X173944Y94693D01*
G37*
%LPD*%
%LPC*%
G36*
X208944Y69693D02*
X208944Y69693D01*
X206994Y70501D01*
X205501Y71994D01*
X204693Y73944D01*
X204693Y76056D01*
X205501Y78006D01*
X206994Y79499D01*
X208944Y80307D01*
X211056Y80307D01*
X213006Y79499D01*
X214117Y78388D01*
X214216Y78311D01*
X214312Y78229D01*
X214341Y78215D01*
X214366Y78195D01*
X214482Y78145D01*
X214595Y78090D01*
X214626Y78083D01*
X214656Y78071D01*
X214781Y78051D01*
X214904Y78026D01*
X214936Y78028D01*
X214968Y78023D01*
X215093Y78035D01*
X215219Y78042D01*
X215250Y78051D01*
X215282Y78054D01*
X215400Y78098D01*
X215520Y78136D01*
X215541Y78150D01*
X215578Y78164D01*
X215837Y78344D01*
X215862Y78373D01*
X215883Y78388D01*
X216994Y79499D01*
X218944Y80307D01*
X221056Y80307D01*
X223006Y79499D01*
X224499Y78006D01*
X225307Y76056D01*
X225307Y73944D01*
X224499Y71994D01*
X223006Y70501D01*
X221056Y69693D01*
X218944Y69693D01*
X216994Y70501D01*
X215883Y71612D01*
X215784Y71689D01*
X215688Y71771D01*
X215659Y71785D01*
X215634Y71805D01*
X215518Y71855D01*
X215405Y71910D01*
X215374Y71917D01*
X215344Y71929D01*
X215219Y71949D01*
X215096Y71974D01*
X215064Y71972D01*
X215032Y71977D01*
X214907Y71965D01*
X214781Y71958D01*
X214750Y71949D01*
X214718Y71946D01*
X214600Y71902D01*
X214480Y71864D01*
X214459Y71850D01*
X214422Y71836D01*
X214163Y71656D01*
X214138Y71627D01*
X214117Y71612D01*
X213006Y70501D01*
X211056Y69693D01*
X208944Y69693D01*
G37*
%LPD*%
%LPC*%
G36*
X126444Y69693D02*
X126444Y69693D01*
X124494Y70501D01*
X123001Y71994D01*
X122193Y73944D01*
X122193Y76056D01*
X123001Y78006D01*
X124494Y79499D01*
X126444Y80307D01*
X128556Y80307D01*
X130506Y79499D01*
X131617Y78388D01*
X131716Y78311D01*
X131812Y78229D01*
X131841Y78215D01*
X131866Y78195D01*
X131982Y78145D01*
X132095Y78090D01*
X132126Y78083D01*
X132156Y78071D01*
X132281Y78051D01*
X132404Y78026D01*
X132436Y78028D01*
X132468Y78023D01*
X132593Y78035D01*
X132719Y78042D01*
X132750Y78051D01*
X132782Y78054D01*
X132900Y78098D01*
X133020Y78136D01*
X133041Y78150D01*
X133078Y78164D01*
X133337Y78344D01*
X133362Y78373D01*
X133383Y78388D01*
X134494Y79499D01*
X136444Y80307D01*
X138556Y80307D01*
X140506Y79499D01*
X141999Y78006D01*
X142807Y76056D01*
X142807Y73944D01*
X141999Y71994D01*
X140506Y70501D01*
X138556Y69693D01*
X136444Y69693D01*
X134494Y70501D01*
X133383Y71612D01*
X133284Y71689D01*
X133188Y71771D01*
X133159Y71785D01*
X133134Y71805D01*
X133018Y71855D01*
X132905Y71910D01*
X132874Y71917D01*
X132844Y71929D01*
X132719Y71949D01*
X132596Y71974D01*
X132564Y71972D01*
X132532Y71977D01*
X132407Y71965D01*
X132281Y71958D01*
X132250Y71949D01*
X132218Y71946D01*
X132100Y71902D01*
X131980Y71864D01*
X131959Y71850D01*
X131922Y71836D01*
X131663Y71656D01*
X131638Y71627D01*
X131617Y71612D01*
X130506Y70501D01*
X128556Y69693D01*
X126444Y69693D01*
G37*
%LPD*%
%LPC*%
G36*
X261444Y44693D02*
X261444Y44693D01*
X259494Y45501D01*
X258001Y46994D01*
X257193Y48944D01*
X257193Y51056D01*
X258001Y53006D01*
X259112Y54117D01*
X259189Y54216D01*
X259271Y54312D01*
X259285Y54341D01*
X259305Y54366D01*
X259355Y54482D01*
X259410Y54595D01*
X259417Y54626D01*
X259429Y54656D01*
X259449Y54781D01*
X259474Y54904D01*
X259472Y54936D01*
X259477Y54968D01*
X259465Y55093D01*
X259458Y55219D01*
X259450Y55247D01*
X259449Y55254D01*
X259448Y55257D01*
X259446Y55282D01*
X259402Y55400D01*
X259364Y55520D01*
X259353Y55537D01*
X259347Y55552D01*
X259343Y55559D01*
X259336Y55578D01*
X259235Y55723D01*
X259174Y55816D01*
X259165Y55824D01*
X259156Y55837D01*
X259127Y55862D01*
X259112Y55883D01*
X258001Y56994D01*
X257193Y58944D01*
X257193Y61056D01*
X258001Y63006D01*
X259494Y64499D01*
X261444Y65307D01*
X263556Y65307D01*
X265506Y64499D01*
X266999Y63006D01*
X267807Y61056D01*
X267807Y58944D01*
X266999Y56994D01*
X265888Y55883D01*
X265811Y55784D01*
X265729Y55688D01*
X265721Y55672D01*
X265715Y55665D01*
X265709Y55652D01*
X265695Y55634D01*
X265645Y55518D01*
X265590Y55405D01*
X265585Y55382D01*
X265583Y55378D01*
X265582Y55370D01*
X265571Y55344D01*
X265551Y55219D01*
X265526Y55096D01*
X265527Y55068D01*
X265527Y55067D01*
X265528Y55064D01*
X265523Y55032D01*
X265535Y54907D01*
X265542Y54781D01*
X265551Y54750D01*
X265554Y54718D01*
X265598Y54600D01*
X265636Y54480D01*
X265650Y54459D01*
X265664Y54422D01*
X265844Y54163D01*
X265873Y54138D01*
X265888Y54117D01*
X266999Y53006D01*
X267807Y51056D01*
X267807Y48944D01*
X266999Y46994D01*
X265506Y45501D01*
X263556Y44693D01*
X261444Y44693D01*
G37*
%LPD*%
%LPC*%
G36*
X147299Y264999D02*
X147299Y264999D01*
X147299Y279992D01*
X148700Y279536D01*
X150125Y278810D01*
X151419Y277870D01*
X152550Y276739D01*
X153490Y275445D01*
X154216Y274020D01*
X154711Y272499D01*
X154961Y270920D01*
X154961Y264999D01*
X147299Y264999D01*
G37*
%LPD*%
%LPC*%
G36*
X147299Y260001D02*
X147299Y260001D01*
X154961Y260001D01*
X154961Y254080D01*
X154711Y252501D01*
X154216Y250980D01*
X153490Y249555D01*
X152550Y248261D01*
X151419Y247130D01*
X150125Y246190D01*
X148700Y245464D01*
X147299Y245008D01*
X147299Y260001D01*
G37*
%LPD*%
%LPC*%
G36*
X134639Y264999D02*
X134639Y264999D01*
X134639Y270920D01*
X134889Y272499D01*
X135384Y274020D01*
X136110Y275445D01*
X137050Y276739D01*
X138181Y277870D01*
X139475Y278810D01*
X140900Y279536D01*
X142301Y279992D01*
X142301Y264999D01*
X134639Y264999D01*
G37*
%LPD*%
%LPC*%
G36*
X140900Y245464D02*
X140900Y245464D01*
X139475Y246190D01*
X138181Y247130D01*
X137050Y248261D01*
X136110Y249555D01*
X135384Y250980D01*
X134889Y252501D01*
X134639Y254080D01*
X134639Y260001D01*
X142301Y260001D01*
X142301Y245008D01*
X140900Y245464D01*
G37*
%LPD*%
%LPC*%
G36*
X124772Y120520D02*
X124772Y120520D01*
X122821Y121328D01*
X121328Y122821D01*
X120521Y124772D01*
X120521Y126883D01*
X121328Y128833D01*
X122821Y130326D01*
X124772Y131134D01*
X126883Y131134D01*
X128833Y130326D01*
X130326Y128833D01*
X131134Y126883D01*
X131134Y124772D01*
X130326Y122821D01*
X128833Y121328D01*
X126883Y120520D01*
X124772Y120520D01*
G37*
%LPD*%
%LPC*%
G36*
X403944Y119693D02*
X403944Y119693D01*
X401994Y120501D01*
X400501Y121994D01*
X399693Y123944D01*
X399693Y126056D01*
X400501Y128006D01*
X401994Y129499D01*
X403944Y130307D01*
X406056Y130307D01*
X408006Y129499D01*
X409499Y128006D01*
X410307Y126056D01*
X410307Y123944D01*
X409499Y121994D01*
X408006Y120501D01*
X406056Y119693D01*
X403944Y119693D01*
G37*
%LPD*%
%LPC*%
G36*
X403944Y79693D02*
X403944Y79693D01*
X401994Y80501D01*
X400501Y81994D01*
X399693Y83944D01*
X399693Y86056D01*
X400501Y88006D01*
X401994Y89499D01*
X403944Y90307D01*
X406056Y90307D01*
X408006Y89499D01*
X409499Y88006D01*
X410307Y86056D01*
X410307Y83944D01*
X409499Y81994D01*
X408006Y80501D01*
X406056Y79693D01*
X403944Y79693D01*
G37*
%LPD*%
%LPC*%
G36*
X403944Y99693D02*
X403944Y99693D01*
X401994Y100501D01*
X400501Y101994D01*
X399693Y103944D01*
X399693Y106056D01*
X400501Y108006D01*
X401994Y109499D01*
X403944Y110307D01*
X406056Y110307D01*
X408006Y109499D01*
X409499Y108006D01*
X410307Y106056D01*
X410307Y103944D01*
X409499Y101994D01*
X408006Y100501D01*
X406056Y99693D01*
X403944Y99693D01*
G37*
%LPD*%
%LPC*%
G36*
X403944Y179693D02*
X403944Y179693D01*
X401994Y180501D01*
X400501Y181994D01*
X399693Y183944D01*
X399693Y186056D01*
X400501Y188006D01*
X401994Y189499D01*
X403944Y190307D01*
X406056Y190307D01*
X408006Y189499D01*
X409499Y188006D01*
X410307Y186056D01*
X410307Y183944D01*
X409499Y181994D01*
X408006Y180501D01*
X406056Y179693D01*
X403944Y179693D01*
G37*
%LPD*%
%LPC*%
G36*
X403944Y219693D02*
X403944Y219693D01*
X401994Y220501D01*
X400501Y221994D01*
X399693Y223944D01*
X399693Y226056D01*
X400501Y228006D01*
X401994Y229499D01*
X403944Y230307D01*
X406056Y230307D01*
X408006Y229499D01*
X409499Y228006D01*
X410307Y226056D01*
X410307Y223944D01*
X409499Y221994D01*
X408006Y220501D01*
X406056Y219693D01*
X403944Y219693D01*
G37*
%LPD*%
%LPC*%
G36*
X333944Y132193D02*
X333944Y132193D01*
X331994Y133001D01*
X330501Y134494D01*
X329693Y136444D01*
X329693Y138556D01*
X330501Y140506D01*
X331994Y141999D01*
X333944Y142807D01*
X336056Y142807D01*
X338006Y141999D01*
X339499Y140506D01*
X340307Y138556D01*
X340307Y136444D01*
X339499Y134494D01*
X338006Y133001D01*
X336056Y132193D01*
X333944Y132193D01*
G37*
%LPD*%
%LPC*%
G36*
X403944Y59693D02*
X403944Y59693D01*
X401994Y60501D01*
X400501Y61994D01*
X399693Y63944D01*
X399693Y66056D01*
X400501Y68006D01*
X401994Y69499D01*
X403944Y70307D01*
X406056Y70307D01*
X408006Y69499D01*
X409499Y68006D01*
X410307Y66056D01*
X410307Y63944D01*
X409499Y61994D01*
X408006Y60501D01*
X406056Y59693D01*
X403944Y59693D01*
G37*
%LPD*%
%LPC*%
G36*
X403944Y139693D02*
X403944Y139693D01*
X401994Y140501D01*
X400501Y141994D01*
X399693Y143944D01*
X399693Y146056D01*
X400501Y148006D01*
X401994Y149499D01*
X403944Y150307D01*
X406056Y150307D01*
X408006Y149499D01*
X409499Y148006D01*
X410307Y146056D01*
X410307Y143944D01*
X409499Y141994D01*
X408006Y140501D01*
X406056Y139693D01*
X403944Y139693D01*
G37*
%LPD*%
%LPC*%
G36*
X158944Y39693D02*
X158944Y39693D01*
X156994Y40501D01*
X155501Y41994D01*
X154693Y43944D01*
X154693Y46056D01*
X155501Y48006D01*
X156994Y49499D01*
X158944Y50307D01*
X161056Y50307D01*
X163006Y49499D01*
X164499Y48006D01*
X165307Y46056D01*
X165307Y43944D01*
X164499Y41994D01*
X163006Y40501D01*
X161056Y39693D01*
X158944Y39693D01*
G37*
%LPD*%
%LPC*%
G36*
X191444Y142193D02*
X191444Y142193D01*
X189494Y143001D01*
X188001Y144494D01*
X187193Y146444D01*
X187193Y148556D01*
X188001Y150506D01*
X189494Y151999D01*
X191444Y152807D01*
X193556Y152807D01*
X195506Y151999D01*
X196999Y150506D01*
X197807Y148556D01*
X197807Y146444D01*
X196999Y144494D01*
X195506Y143001D01*
X193556Y142193D01*
X191444Y142193D01*
G37*
%LPD*%
%LPC*%
G36*
X403944Y199693D02*
X403944Y199693D01*
X401994Y200501D01*
X400501Y201994D01*
X399693Y203944D01*
X399693Y206056D01*
X400501Y208006D01*
X401994Y209499D01*
X403944Y210307D01*
X406056Y210307D01*
X408006Y209499D01*
X409499Y208006D01*
X410307Y206056D01*
X410307Y203944D01*
X409499Y201994D01*
X408006Y200501D01*
X406056Y199693D01*
X403944Y199693D01*
G37*
%LPD*%
%LPC*%
G36*
X76444Y39693D02*
X76444Y39693D01*
X74494Y40501D01*
X73001Y41994D01*
X72193Y43944D01*
X72193Y46056D01*
X73001Y48006D01*
X74494Y49499D01*
X76444Y50307D01*
X78556Y50307D01*
X80506Y49499D01*
X81999Y48006D01*
X82807Y46056D01*
X82807Y43944D01*
X81999Y41994D01*
X80506Y40501D01*
X78556Y39693D01*
X76444Y39693D01*
G37*
%LPD*%
%LPC*%
G36*
X88944Y27193D02*
X88944Y27193D01*
X86994Y28001D01*
X85501Y29494D01*
X84693Y31444D01*
X84693Y33556D01*
X85501Y35506D01*
X86994Y36999D01*
X88944Y37807D01*
X91056Y37807D01*
X93006Y36999D01*
X94499Y35506D01*
X95307Y33556D01*
X95307Y31444D01*
X94499Y29494D01*
X93006Y28001D01*
X91056Y27193D01*
X88944Y27193D01*
G37*
%LPD*%
%LPC*%
G36*
X403944Y159693D02*
X403944Y159693D01*
X401994Y160501D01*
X400501Y161994D01*
X399693Y163944D01*
X399693Y166056D01*
X400501Y168006D01*
X401994Y169499D01*
X403944Y170307D01*
X406056Y170307D01*
X408006Y169499D01*
X409499Y168006D01*
X410307Y166056D01*
X410307Y163944D01*
X409499Y161994D01*
X408006Y160501D01*
X406056Y159693D01*
X403944Y159693D01*
G37*
%LPD*%
%LPC*%
G36*
X323944Y169693D02*
X323944Y169693D01*
X321994Y170501D01*
X320501Y171994D01*
X319693Y173944D01*
X319693Y176056D01*
X320501Y178006D01*
X321994Y179499D01*
X323944Y180307D01*
X326056Y180307D01*
X328006Y179499D01*
X329499Y178006D01*
X330307Y176056D01*
X330307Y173944D01*
X329499Y171994D01*
X328006Y170501D01*
X326056Y169693D01*
X323944Y169693D01*
G37*
%LPD*%
%LPC*%
G36*
X171444Y27193D02*
X171444Y27193D01*
X169494Y28001D01*
X168001Y29494D01*
X167193Y31444D01*
X167193Y33556D01*
X168001Y35506D01*
X169494Y36999D01*
X171444Y37807D01*
X173556Y37807D01*
X175506Y36999D01*
X176999Y35506D01*
X177807Y33556D01*
X177807Y31444D01*
X176999Y29494D01*
X175506Y28001D01*
X173556Y27193D01*
X171444Y27193D01*
G37*
%LPD*%
%LPC*%
G36*
X46849Y78999D02*
X46849Y78999D01*
X46849Y86661D01*
X48559Y86661D01*
X54511Y80709D01*
X54511Y78999D01*
X46849Y78999D01*
G37*
%LPD*%
%LPC*%
G36*
X458149Y78999D02*
X458149Y78999D01*
X458149Y86661D01*
X459859Y86661D01*
X465811Y80709D01*
X465811Y78999D01*
X458149Y78999D01*
G37*
%LPD*%
%LPC*%
G36*
X458149Y205999D02*
X458149Y205999D01*
X458149Y213661D01*
X459859Y213661D01*
X465811Y207709D01*
X465811Y205999D01*
X458149Y205999D01*
G37*
%LPD*%
%LPC*%
G36*
X46849Y104399D02*
X46849Y104399D01*
X46849Y112061D01*
X48559Y112061D01*
X54511Y106109D01*
X54511Y104399D01*
X46849Y104399D01*
G37*
%LPD*%
%LPC*%
G36*
X46849Y129799D02*
X46849Y129799D01*
X46849Y137461D01*
X48559Y137461D01*
X54511Y131509D01*
X54511Y129799D01*
X46849Y129799D01*
G37*
%LPD*%
%LPC*%
G36*
X46849Y155199D02*
X46849Y155199D01*
X46849Y162861D01*
X48559Y162861D01*
X54511Y156909D01*
X54511Y155199D01*
X46849Y155199D01*
G37*
%LPD*%
%LPC*%
G36*
X34189Y104399D02*
X34189Y104399D01*
X34189Y106109D01*
X40141Y112061D01*
X41851Y112061D01*
X41851Y104399D01*
X34189Y104399D01*
G37*
%LPD*%
%LPC*%
G36*
X34189Y129799D02*
X34189Y129799D01*
X34189Y131509D01*
X40141Y137461D01*
X41851Y137461D01*
X41851Y129799D01*
X34189Y129799D01*
G37*
%LPD*%
%LPC*%
G36*
X445489Y205999D02*
X445489Y205999D01*
X445489Y207709D01*
X451441Y213661D01*
X453151Y213661D01*
X453151Y205999D01*
X445489Y205999D01*
G37*
%LPD*%
%LPC*%
G36*
X34189Y78999D02*
X34189Y78999D01*
X34189Y80709D01*
X40141Y86661D01*
X41851Y86661D01*
X41851Y78999D01*
X34189Y78999D01*
G37*
%LPD*%
%LPC*%
G36*
X445489Y78999D02*
X445489Y78999D01*
X445489Y80709D01*
X451441Y86661D01*
X453151Y86661D01*
X453151Y78999D01*
X445489Y78999D01*
G37*
%LPD*%
%LPC*%
G36*
X34189Y155199D02*
X34189Y155199D01*
X34189Y156909D01*
X40141Y162861D01*
X41851Y162861D01*
X41851Y155199D01*
X34189Y155199D01*
G37*
%LPD*%
%LPC*%
G36*
X46849Y117139D02*
X46849Y117139D01*
X46849Y124801D01*
X54511Y124801D01*
X54511Y123091D01*
X48559Y117139D01*
X46849Y117139D01*
G37*
%LPD*%
%LPC*%
G36*
X458149Y193339D02*
X458149Y193339D01*
X458149Y201001D01*
X465811Y201001D01*
X465811Y199291D01*
X459859Y193339D01*
X458149Y193339D01*
G37*
%LPD*%
%LPC*%
G36*
X46849Y142539D02*
X46849Y142539D01*
X46849Y150201D01*
X54511Y150201D01*
X54511Y148491D01*
X48559Y142539D01*
X46849Y142539D01*
G37*
%LPD*%
%LPC*%
G36*
X46849Y91739D02*
X46849Y91739D01*
X46849Y99401D01*
X54511Y99401D01*
X54511Y97691D01*
X48559Y91739D01*
X46849Y91739D01*
G37*
%LPD*%
%LPC*%
G36*
X46849Y66339D02*
X46849Y66339D01*
X46849Y74001D01*
X54511Y74001D01*
X54511Y72291D01*
X48559Y66339D01*
X46849Y66339D01*
G37*
%LPD*%
%LPC*%
G36*
X458149Y66339D02*
X458149Y66339D01*
X458149Y74001D01*
X465811Y74001D01*
X465811Y72291D01*
X459859Y66339D01*
X458149Y66339D01*
G37*
%LPD*%
%LPC*%
G36*
X451441Y193339D02*
X451441Y193339D01*
X445489Y199291D01*
X445489Y201001D01*
X453151Y201001D01*
X453151Y193339D01*
X451441Y193339D01*
G37*
%LPD*%
%LPC*%
G36*
X40141Y142539D02*
X40141Y142539D01*
X34189Y148491D01*
X34189Y150201D01*
X41851Y150201D01*
X41851Y142539D01*
X40141Y142539D01*
G37*
%LPD*%
%LPC*%
G36*
X451441Y66339D02*
X451441Y66339D01*
X445489Y72291D01*
X445489Y74001D01*
X453151Y74001D01*
X453151Y66339D01*
X451441Y66339D01*
G37*
%LPD*%
%LPC*%
G36*
X40141Y66339D02*
X40141Y66339D01*
X34189Y72291D01*
X34189Y74001D01*
X41851Y74001D01*
X41851Y66339D01*
X40141Y66339D01*
G37*
%LPD*%
%LPC*%
G36*
X40141Y117139D02*
X40141Y117139D01*
X34189Y123091D01*
X34189Y124801D01*
X41851Y124801D01*
X41851Y117139D01*
X40141Y117139D01*
G37*
%LPD*%
%LPC*%
G36*
X40141Y91739D02*
X40141Y91739D01*
X34189Y97691D01*
X34189Y99401D01*
X41851Y99401D01*
X41851Y91739D01*
X40141Y91739D01*
G37*
%LPD*%
%LPC*%
G36*
X455649Y76499D02*
X455649Y76499D01*
X455649Y76501D01*
X455651Y76501D01*
X455651Y76499D01*
X455649Y76499D01*
G37*
%LPD*%
%LPC*%
G36*
X44349Y76499D02*
X44349Y76499D01*
X44349Y76501D01*
X44351Y76501D01*
X44351Y76499D01*
X44349Y76499D01*
G37*
%LPD*%
%LPC*%
G36*
X144799Y262499D02*
X144799Y262499D01*
X144799Y262501D01*
X144801Y262501D01*
X144801Y262499D01*
X144799Y262499D01*
G37*
%LPD*%
%LPC*%
G36*
X44349Y152699D02*
X44349Y152699D01*
X44349Y152701D01*
X44351Y152701D01*
X44351Y152699D01*
X44349Y152699D01*
G37*
%LPD*%
%LPC*%
G36*
X44349Y127299D02*
X44349Y127299D01*
X44349Y127301D01*
X44351Y127301D01*
X44351Y127299D01*
X44349Y127299D01*
G37*
%LPD*%
%LPC*%
G36*
X455649Y203499D02*
X455649Y203499D01*
X455649Y203501D01*
X455651Y203501D01*
X455651Y203499D01*
X455649Y203499D01*
G37*
%LPD*%
%LPC*%
G36*
X44349Y101899D02*
X44349Y101899D01*
X44349Y101901D01*
X44351Y101901D01*
X44351Y101899D01*
X44349Y101899D01*
G37*
%LPD*%
D10*
X455650Y203500D03*
X455650Y178100D03*
X455650Y152700D03*
X455650Y127300D03*
X455650Y101900D03*
X455650Y76500D03*
X430250Y203500D03*
X430250Y178100D03*
X430250Y152700D03*
X430250Y127300D03*
X430250Y101900D03*
X430250Y76500D03*
D11*
X44350Y76500D03*
X44350Y101900D03*
X44350Y127300D03*
X44350Y152700D03*
X44350Y178100D03*
X44350Y203500D03*
X69750Y76500D03*
X69750Y101900D03*
X69750Y127300D03*
X69750Y152700D03*
X69750Y178100D03*
X69750Y203500D03*
D12*
X94000Y254880D02*
X94000Y270120D01*
X119400Y270120D02*
X119400Y254880D01*
X144800Y254880D02*
X144800Y270120D01*
X170200Y270120D02*
X170200Y254880D01*
X195600Y254880D02*
X195600Y270120D01*
X221000Y270120D02*
X221000Y254880D01*
D13*
X405000Y225000D03*
X405000Y165000D03*
X405000Y185000D03*
X405000Y145000D03*
X405000Y125000D03*
X405000Y105000D03*
X405000Y85000D03*
X405000Y65000D03*
X405000Y205000D03*
X175000Y100000D03*
D14*
X175000Y114384D02*
X174692Y114692D01*
X175000Y114384D02*
X175000Y100000D01*
D13*
X174692Y114692D03*
X210000Y147500D03*
X265000Y147500D03*
D14*
X210000Y147500D01*
D13*
X134992Y155008D03*
D14*
X134992Y190124D01*
X133444Y191672D01*
D13*
X133444Y191672D03*
X175000Y222500D03*
D14*
X175000Y180000D01*
X170000Y175000D01*
X170000Y173444D01*
D13*
X170000Y173444D03*
X77500Y45000D03*
X172500Y32500D03*
X160000Y45000D03*
X90000Y32500D03*
X90000Y72500D03*
X77500Y60000D03*
X127500Y30000D03*
X137500Y30000D03*
X210000Y30000D03*
X220000Y30000D03*
X172500Y72500D03*
X160000Y60000D03*
X370000Y60000D03*
X355000Y75000D03*
X302500Y140000D03*
X320000Y160000D03*
X285000Y160000D03*
X285000Y120000D03*
X320000Y120000D03*
X362500Y202500D03*
X140000Y132500D03*
X122500Y147500D03*
X185000Y225000D03*
X245000Y250000D03*
X325000Y212500D03*
X347500Y212500D03*
X165000Y187500D03*
X130000Y240000D03*
X265000Y252500D03*
X292500Y267500D03*
X285000Y267500D03*
X277500Y267500D03*
X305000Y252500D03*
X317500Y242500D03*
X330000Y252500D03*
X262500Y37500D03*
X287500Y37500D03*
X297500Y37500D03*
X322500Y37500D03*
X310000Y67500D03*
X285000Y110000D03*
X300000Y180000D03*
X310000Y180000D03*
X280000Y180000D03*
X192500Y95000D03*
X240000Y187500D03*
X227500Y135000D03*
X172500Y135000D03*
X245000Y95000D03*
X245000Y210000D03*
X95000Y152500D03*
X82500Y217500D03*
X105000Y185000D03*
X95000Y112500D03*
X210000Y75000D03*
X220000Y75000D03*
X325000Y175000D03*
X335000Y137500D03*
X262500Y50000D03*
X262500Y60000D03*
X192500Y147500D03*
X107500Y170000D03*
X127500Y75000D03*
X137500Y75000D03*
X235000Y95000D03*
X175000Y232500D03*
X185000Y212500D03*
X125827Y125827D03*
X151756Y180000D03*
D14*
X151756Y162500D02*
X132500Y143244D01*
X132500Y145000D01*
X151756Y162500D02*
X151756Y180000D01*
D13*
X132500Y145000D03*
X260944Y165000D03*
D14*
X240000Y165000D01*
X231420Y173580D02*
X231420Y187500D01*
D13*
X231420Y187500D03*
D14*
X231420Y173580D02*
X240000Y165000D01*
D13*
X157500Y197500D03*
D14*
X152500Y202500D02*
X125000Y202500D01*
X120000Y197500D01*
X152500Y202500D02*
X157500Y197500D01*
D13*
X120000Y197500D03*
X157500Y207500D03*
D14*
X152500Y212500D02*
X125000Y212500D01*
X120000Y207500D01*
X152500Y212500D02*
X157500Y207500D01*
D13*
X120000Y207500D03*
X102500Y159694D03*
D14*
X97194Y165000D01*
D13*
X57500Y165000D03*
D14*
X97194Y165000D01*
D13*
X112500Y190000D03*
D14*
X107500Y195000D02*
X107500Y210000D01*
X107500Y195000D02*
X112500Y190000D01*
D13*
X107500Y210000D03*
M02*
