G04 EAGLE Gerber RS-274X export*
G75*
%MOMM*%
%FSLAX34Y34*%
%LPD*%
%INCopper Layer 3*%
%IPPOS*%
%AMOC8*
5,1,8,0,0,1.08239X$1,22.5*%
G01*
%ADD10C,1.524000*%
%ADD11C,0.654800*%

G36*
X467037Y-4990D02*
X467037Y-4990D01*
X467109Y-4991D01*
X467193Y-4970D01*
X467280Y-4959D01*
X467346Y-4933D01*
X467415Y-4916D01*
X467492Y-4875D01*
X467573Y-4842D01*
X467630Y-4800D01*
X467693Y-4767D01*
X467757Y-4707D01*
X467827Y-4656D01*
X467872Y-4601D01*
X467924Y-4552D01*
X467971Y-4479D01*
X468027Y-4411D01*
X468056Y-4347D01*
X468095Y-4287D01*
X468122Y-4204D01*
X468158Y-4125D01*
X468171Y-4055D01*
X468193Y-3987D01*
X468199Y-3900D01*
X468214Y-3814D01*
X468209Y-3743D01*
X468214Y-3672D01*
X468197Y-3587D01*
X468191Y-3500D01*
X468168Y-3432D01*
X468154Y-3362D01*
X468117Y-3284D01*
X468089Y-3201D01*
X468050Y-3141D01*
X468019Y-3077D01*
X467964Y-3010D01*
X467916Y-2937D01*
X467863Y-2890D01*
X467817Y-2835D01*
X467767Y-2802D01*
X467682Y-2726D01*
X467492Y-2626D01*
X467445Y-2596D01*
X460887Y120D01*
X455120Y5887D01*
X451999Y13422D01*
X451999Y21578D01*
X455120Y29113D01*
X460887Y34880D01*
X468422Y38001D01*
X476578Y38001D01*
X484113Y34880D01*
X489880Y29113D01*
X492596Y22555D01*
X492631Y22493D01*
X492658Y22427D01*
X492709Y22357D01*
X492752Y22281D01*
X492802Y22230D01*
X492844Y22173D01*
X492912Y22118D01*
X492973Y22055D01*
X493033Y22019D01*
X493089Y21973D01*
X493168Y21937D01*
X493242Y21892D01*
X493311Y21871D01*
X493375Y21842D01*
X493461Y21826D01*
X493545Y21801D01*
X493616Y21798D01*
X493686Y21786D01*
X493773Y21792D01*
X493860Y21789D01*
X493929Y21804D01*
X494000Y21809D01*
X494083Y21838D01*
X494168Y21856D01*
X494232Y21888D01*
X494299Y21911D01*
X494372Y21959D01*
X494450Y21998D01*
X494503Y22045D01*
X494563Y22084D01*
X494621Y22149D01*
X494687Y22207D01*
X494727Y22266D01*
X494774Y22318D01*
X494815Y22396D01*
X494864Y22468D01*
X494888Y22535D01*
X494921Y22598D01*
X494932Y22657D01*
X494970Y22765D01*
X494989Y22978D01*
X494999Y23033D01*
X494999Y256967D01*
X494990Y257037D01*
X494991Y257109D01*
X494970Y257193D01*
X494959Y257280D01*
X494933Y257346D01*
X494916Y257415D01*
X494875Y257492D01*
X494842Y257573D01*
X494800Y257630D01*
X494767Y257693D01*
X494707Y257757D01*
X494656Y257827D01*
X494601Y257872D01*
X494552Y257924D01*
X494479Y257971D01*
X494411Y258027D01*
X494347Y258056D01*
X494287Y258095D01*
X494204Y258122D01*
X494125Y258158D01*
X494055Y258171D01*
X493987Y258193D01*
X493900Y258199D01*
X493814Y258214D01*
X493743Y258209D01*
X493672Y258214D01*
X493587Y258197D01*
X493500Y258191D01*
X493432Y258168D01*
X493362Y258154D01*
X493284Y258117D01*
X493201Y258089D01*
X493141Y258050D01*
X493077Y258019D01*
X493010Y257964D01*
X492937Y257916D01*
X492890Y257863D01*
X492835Y257817D01*
X492802Y257767D01*
X492726Y257682D01*
X492626Y257492D01*
X492596Y257445D01*
X489880Y250887D01*
X484113Y245120D01*
X476578Y241999D01*
X468422Y241999D01*
X460887Y245120D01*
X455120Y250887D01*
X451999Y258422D01*
X451999Y266578D01*
X455120Y274113D01*
X460887Y279880D01*
X467445Y282596D01*
X467507Y282631D01*
X467573Y282658D01*
X467643Y282709D01*
X467719Y282752D01*
X467770Y282802D01*
X467827Y282844D01*
X467882Y282912D01*
X467945Y282973D01*
X467981Y283033D01*
X468027Y283089D01*
X468063Y283168D01*
X468108Y283242D01*
X468129Y283311D01*
X468158Y283375D01*
X468174Y283461D01*
X468199Y283545D01*
X468202Y283616D01*
X468214Y283686D01*
X468208Y283773D01*
X468211Y283860D01*
X468196Y283929D01*
X468191Y284000D01*
X468162Y284083D01*
X468144Y284168D01*
X468112Y284232D01*
X468089Y284299D01*
X468041Y284372D01*
X468002Y284450D01*
X467955Y284503D01*
X467916Y284563D01*
X467851Y284621D01*
X467793Y284687D01*
X467734Y284727D01*
X467682Y284774D01*
X467604Y284815D01*
X467532Y284864D01*
X467465Y284888D01*
X467402Y284921D01*
X467343Y284932D01*
X467235Y284970D01*
X467022Y284989D01*
X466967Y284999D01*
X257500Y284999D01*
X257375Y284983D01*
X257250Y284974D01*
X257219Y284963D01*
X257187Y284959D01*
X257070Y284913D01*
X256951Y284872D01*
X256924Y284854D01*
X256894Y284842D01*
X256793Y284768D01*
X256687Y284699D01*
X256666Y284675D01*
X256640Y284656D01*
X256560Y284558D01*
X256476Y284465D01*
X256461Y284436D01*
X256440Y284411D01*
X256387Y284297D01*
X256329Y284186D01*
X256325Y284160D01*
X256308Y284125D01*
X256252Y283814D01*
X256255Y283775D01*
X256251Y283750D01*
X256251Y258469D01*
X256269Y258329D01*
X256283Y258187D01*
X256289Y258172D01*
X256291Y258156D01*
X256343Y258025D01*
X256392Y257891D01*
X256402Y257878D01*
X256408Y257863D01*
X256491Y257749D01*
X256572Y257632D01*
X256585Y257622D01*
X256594Y257609D01*
X256704Y257519D01*
X256812Y257426D01*
X256826Y257419D01*
X256839Y257409D01*
X256968Y257350D01*
X257095Y257287D01*
X257111Y257284D01*
X257125Y257277D01*
X257265Y257252D01*
X257404Y257223D01*
X257420Y257224D01*
X257436Y257221D01*
X257577Y257232D01*
X257719Y257239D01*
X257734Y257244D01*
X257750Y257245D01*
X257885Y257291D01*
X258020Y257333D01*
X258031Y257341D01*
X258049Y257347D01*
X258313Y257520D01*
X258353Y257564D01*
X258383Y257586D01*
X260313Y259515D01*
X263354Y260775D01*
X266646Y260775D01*
X269687Y259515D01*
X272015Y257187D01*
X273275Y254146D01*
X273275Y250854D01*
X272015Y247813D01*
X269687Y245485D01*
X266646Y244225D01*
X263354Y244225D01*
X260313Y245485D01*
X258383Y247414D01*
X258271Y247501D01*
X258161Y247591D01*
X258147Y247598D01*
X258134Y247608D01*
X258004Y247663D01*
X257875Y247723D01*
X257859Y247726D01*
X257844Y247732D01*
X257703Y247754D01*
X257564Y247779D01*
X257548Y247777D01*
X257532Y247780D01*
X257391Y247766D01*
X257250Y247755D01*
X257234Y247750D01*
X257218Y247748D01*
X257086Y247699D01*
X256951Y247653D01*
X256937Y247644D01*
X256922Y247639D01*
X256807Y247558D01*
X256687Y247480D01*
X256676Y247468D01*
X256663Y247459D01*
X256571Y247352D01*
X256476Y247246D01*
X256468Y247232D01*
X256458Y247219D01*
X256395Y247092D01*
X256329Y246967D01*
X256327Y246954D01*
X256318Y246936D01*
X256254Y246627D01*
X256257Y246568D01*
X256251Y246531D01*
X256251Y173882D01*
X256258Y173827D01*
X256256Y173772D01*
X256278Y173672D01*
X256291Y173569D01*
X256311Y173518D01*
X256323Y173464D01*
X256369Y173372D01*
X256408Y173276D01*
X256440Y173232D01*
X256465Y173182D01*
X256533Y173105D01*
X256594Y173022D01*
X256637Y172987D01*
X256673Y172945D01*
X256759Y172888D01*
X256839Y172822D01*
X256889Y172799D01*
X256934Y172768D01*
X257031Y172734D01*
X257125Y172690D01*
X257180Y172681D01*
X257231Y172662D01*
X257334Y172653D01*
X257436Y172635D01*
X257491Y172639D01*
X257546Y172634D01*
X257609Y172648D01*
X257750Y172658D01*
X257914Y172714D01*
X257978Y172728D01*
X259298Y173275D01*
X262590Y173275D01*
X265631Y172015D01*
X267959Y169687D01*
X269219Y166646D01*
X269219Y163354D01*
X267959Y160313D01*
X265554Y157907D01*
X265467Y157796D01*
X265377Y157685D01*
X265370Y157671D01*
X265360Y157658D01*
X265305Y157528D01*
X265245Y157399D01*
X265242Y157383D01*
X265236Y157368D01*
X265214Y157227D01*
X265189Y157088D01*
X265191Y157072D01*
X265188Y157056D01*
X265202Y156915D01*
X265213Y156774D01*
X265218Y156758D01*
X265220Y156742D01*
X265269Y156610D01*
X265315Y156475D01*
X265324Y156461D01*
X265329Y156446D01*
X265410Y156330D01*
X265488Y156211D01*
X265500Y156200D01*
X265509Y156187D01*
X265616Y156095D01*
X265722Y156000D01*
X265736Y155992D01*
X265749Y155982D01*
X265876Y155919D01*
X266001Y155853D01*
X266014Y155851D01*
X266032Y155842D01*
X266341Y155778D01*
X266400Y155781D01*
X266437Y155775D01*
X266646Y155775D01*
X269687Y154515D01*
X272015Y152187D01*
X273275Y149146D01*
X273275Y145854D01*
X272015Y142813D01*
X269687Y140485D01*
X266646Y139225D01*
X263354Y139225D01*
X260313Y140485D01*
X258383Y142414D01*
X258271Y142501D01*
X258161Y142591D01*
X258147Y142598D01*
X258134Y142608D01*
X258004Y142663D01*
X257875Y142723D01*
X257859Y142726D01*
X257844Y142732D01*
X257703Y142754D01*
X257564Y142779D01*
X257548Y142777D01*
X257532Y142780D01*
X257391Y142766D01*
X257250Y142755D01*
X257234Y142750D01*
X257218Y142748D01*
X257086Y142699D01*
X256951Y142653D01*
X256937Y142644D01*
X256922Y142639D01*
X256807Y142558D01*
X256687Y142480D01*
X256676Y142468D01*
X256663Y142459D01*
X256571Y142352D01*
X256476Y142246D01*
X256468Y142232D01*
X256458Y142219D01*
X256395Y142092D01*
X256329Y141967D01*
X256327Y141954D01*
X256318Y141936D01*
X256254Y141627D01*
X256257Y141568D01*
X256251Y141531D01*
X256251Y88757D01*
X255299Y86459D01*
X253541Y84701D01*
X251243Y83749D01*
X180607Y83749D01*
X180498Y83735D01*
X180388Y83730D01*
X180342Y83716D01*
X180294Y83709D01*
X180192Y83669D01*
X180087Y83636D01*
X180056Y83614D01*
X180001Y83592D01*
X179746Y83406D01*
X179734Y83391D01*
X179723Y83383D01*
X177404Y81065D01*
X177327Y80965D01*
X177245Y80870D01*
X177231Y80841D01*
X177211Y80815D01*
X177161Y80699D01*
X177106Y80586D01*
X177100Y80555D01*
X177087Y80525D01*
X177068Y80401D01*
X177042Y80277D01*
X177044Y80245D01*
X177039Y80213D01*
X177052Y80088D01*
X177058Y79962D01*
X177067Y79932D01*
X177071Y79899D01*
X177114Y79781D01*
X177152Y79661D01*
X177167Y79640D01*
X177180Y79603D01*
X177360Y79344D01*
X177390Y79319D01*
X177404Y79298D01*
X179515Y77187D01*
X180775Y74146D01*
X180775Y70854D01*
X179515Y67813D01*
X177187Y65485D01*
X174146Y64225D01*
X170854Y64225D01*
X169237Y64895D01*
X169100Y64932D01*
X168965Y64973D01*
X168948Y64974D01*
X168933Y64978D01*
X168791Y64980D01*
X168649Y64985D01*
X168634Y64982D01*
X168617Y64982D01*
X168480Y64948D01*
X168341Y64918D01*
X168327Y64911D01*
X168311Y64907D01*
X168186Y64840D01*
X168059Y64776D01*
X168047Y64765D01*
X168033Y64757D01*
X167929Y64661D01*
X167823Y64567D01*
X167813Y64554D01*
X167802Y64543D01*
X167725Y64423D01*
X167645Y64306D01*
X167640Y64291D01*
X167631Y64278D01*
X167587Y64142D01*
X167539Y64009D01*
X167538Y63993D01*
X167533Y63978D01*
X167524Y63836D01*
X167511Y63695D01*
X167514Y63682D01*
X167512Y63663D01*
X167546Y63486D01*
X167548Y63459D01*
X167555Y63439D01*
X167572Y63353D01*
X167597Y63299D01*
X167605Y63263D01*
X168275Y61646D01*
X168275Y60000D01*
X168291Y59875D01*
X168300Y59750D01*
X168311Y59719D01*
X168315Y59687D01*
X168361Y59570D01*
X168402Y59451D01*
X168420Y59424D01*
X168432Y59394D01*
X168506Y59293D01*
X168575Y59187D01*
X168599Y59166D01*
X168618Y59140D01*
X168716Y59060D01*
X168809Y58976D01*
X168838Y58961D01*
X168863Y58940D01*
X168977Y58887D01*
X169088Y58829D01*
X169114Y58825D01*
X169149Y58808D01*
X169460Y58752D01*
X169499Y58755D01*
X169524Y58751D01*
X226243Y58751D01*
X228541Y57799D01*
X230299Y56041D01*
X231251Y53743D01*
X231251Y-3750D01*
X231267Y-3875D01*
X231276Y-4000D01*
X231287Y-4031D01*
X231291Y-4063D01*
X231337Y-4180D01*
X231378Y-4299D01*
X231396Y-4326D01*
X231408Y-4356D01*
X231482Y-4457D01*
X231551Y-4563D01*
X231575Y-4584D01*
X231594Y-4610D01*
X231692Y-4690D01*
X231785Y-4774D01*
X231814Y-4789D01*
X231839Y-4810D01*
X231953Y-4863D01*
X232064Y-4921D01*
X232090Y-4925D01*
X232125Y-4942D01*
X232436Y-4998D01*
X232475Y-4995D01*
X232500Y-4999D01*
X466967Y-4999D01*
X467037Y-4990D01*
G37*
G36*
X150601Y58767D02*
X150601Y58767D01*
X150726Y58776D01*
X150757Y58787D01*
X150789Y58791D01*
X150906Y58837D01*
X151025Y58878D01*
X151052Y58896D01*
X151082Y58908D01*
X151183Y58982D01*
X151289Y59051D01*
X151310Y59075D01*
X151336Y59094D01*
X151416Y59192D01*
X151500Y59285D01*
X151515Y59314D01*
X151536Y59339D01*
X151589Y59453D01*
X151647Y59564D01*
X151651Y59590D01*
X151668Y59625D01*
X151724Y59936D01*
X151721Y59975D01*
X151725Y60000D01*
X151725Y61646D01*
X152985Y64687D01*
X155313Y67015D01*
X156737Y67605D01*
X156757Y67616D01*
X156779Y67623D01*
X156808Y67643D01*
X156830Y67652D01*
X156867Y67679D01*
X157011Y67762D01*
X157093Y67842D01*
X157143Y67876D01*
X164624Y75357D01*
X164638Y75376D01*
X164656Y75390D01*
X164686Y75438D01*
X164713Y75472D01*
X164800Y75579D01*
X164807Y75593D01*
X164817Y75607D01*
X164863Y75712D01*
X164895Y75763D01*
X165485Y77187D01*
X167813Y79515D01*
X169237Y80105D01*
X169257Y80116D01*
X169279Y80123D01*
X169307Y80143D01*
X169312Y80145D01*
X169331Y80159D01*
X169511Y80262D01*
X169593Y80342D01*
X169643Y80376D01*
X178017Y88751D01*
X184262Y88751D01*
X184317Y88758D01*
X184372Y88756D01*
X184473Y88778D01*
X184575Y88791D01*
X184627Y88811D01*
X184680Y88823D01*
X184773Y88869D01*
X184868Y88908D01*
X184913Y88940D01*
X184962Y88965D01*
X185039Y89033D01*
X185123Y89094D01*
X185158Y89137D01*
X185199Y89173D01*
X185257Y89259D01*
X185322Y89339D01*
X185345Y89389D01*
X185376Y89434D01*
X185411Y89531D01*
X185454Y89625D01*
X185464Y89680D01*
X185482Y89732D01*
X185492Y89834D01*
X185510Y89936D01*
X185506Y89991D01*
X185511Y90046D01*
X185497Y90109D01*
X185486Y90250D01*
X185430Y90414D01*
X185417Y90478D01*
X184225Y93354D01*
X184225Y94507D01*
X184207Y94647D01*
X184193Y94789D01*
X184187Y94804D01*
X184185Y94820D01*
X184133Y94952D01*
X184084Y95085D01*
X184074Y95098D01*
X184068Y95113D01*
X183984Y95228D01*
X183904Y95344D01*
X183891Y95354D01*
X183882Y95367D01*
X183772Y95457D01*
X183664Y95550D01*
X183650Y95557D01*
X183637Y95567D01*
X183508Y95626D01*
X183381Y95689D01*
X183365Y95692D01*
X183351Y95699D01*
X183211Y95724D01*
X183072Y95753D01*
X183056Y95752D01*
X183040Y95755D01*
X182899Y95744D01*
X182757Y95737D01*
X182742Y95732D01*
X182726Y95731D01*
X182591Y95685D01*
X182456Y95643D01*
X182445Y95635D01*
X182427Y95629D01*
X182163Y95456D01*
X182123Y95412D01*
X182093Y95390D01*
X179687Y92985D01*
X176646Y91725D01*
X173354Y91725D01*
X170313Y92985D01*
X167985Y95313D01*
X166725Y98354D01*
X166725Y101646D01*
X167985Y104687D01*
X169606Y106308D01*
X169683Y106408D01*
X169765Y106503D01*
X169780Y106532D01*
X169799Y106558D01*
X169849Y106674D01*
X169905Y106787D01*
X169911Y106818D01*
X169924Y106848D01*
X169943Y106972D01*
X169968Y107095D01*
X169967Y107128D01*
X169972Y107160D01*
X169959Y107285D01*
X169953Y107411D01*
X169943Y107441D01*
X169940Y107474D01*
X169896Y107592D01*
X169859Y107712D01*
X169844Y107733D01*
X169830Y107769D01*
X169650Y108029D01*
X169621Y108054D01*
X169606Y108075D01*
X167677Y110004D01*
X166417Y113046D01*
X166417Y116338D01*
X167677Y119379D01*
X170004Y121707D01*
X173046Y122967D01*
X176338Y122967D01*
X179379Y121707D01*
X181707Y119379D01*
X182967Y116338D01*
X182967Y113046D01*
X181707Y110004D01*
X180086Y108383D01*
X180009Y108284D01*
X179926Y108188D01*
X179912Y108159D01*
X179892Y108134D01*
X179843Y108018D01*
X179787Y107905D01*
X179781Y107874D01*
X179768Y107844D01*
X179749Y107719D01*
X179723Y107596D01*
X179725Y107564D01*
X179720Y107532D01*
X179733Y107407D01*
X179739Y107281D01*
X179749Y107250D01*
X179752Y107218D01*
X179796Y107100D01*
X179833Y106980D01*
X179848Y106959D01*
X179861Y106922D01*
X180041Y106663D01*
X180071Y106638D01*
X180086Y106617D01*
X182015Y104687D01*
X183275Y101646D01*
X183275Y100493D01*
X183293Y100353D01*
X183307Y100211D01*
X183313Y100196D01*
X183315Y100180D01*
X183367Y100048D01*
X183416Y99915D01*
X183426Y99902D01*
X183432Y99887D01*
X183516Y99772D01*
X183596Y99656D01*
X183609Y99646D01*
X183618Y99633D01*
X183728Y99543D01*
X183836Y99450D01*
X183850Y99443D01*
X183863Y99433D01*
X183992Y99374D01*
X184119Y99311D01*
X184135Y99308D01*
X184149Y99301D01*
X184289Y99276D01*
X184428Y99247D01*
X184444Y99248D01*
X184460Y99245D01*
X184601Y99256D01*
X184743Y99263D01*
X184758Y99268D01*
X184774Y99269D01*
X184909Y99315D01*
X185044Y99357D01*
X185055Y99365D01*
X185073Y99371D01*
X185337Y99544D01*
X185377Y99588D01*
X185407Y99610D01*
X187813Y102015D01*
X190854Y103275D01*
X194146Y103275D01*
X197187Y102015D01*
X199515Y99687D01*
X200775Y96646D01*
X200775Y93354D01*
X199583Y90478D01*
X199569Y90425D01*
X199546Y90375D01*
X199528Y90273D01*
X199500Y90174D01*
X199500Y90118D01*
X199490Y90064D01*
X199498Y89961D01*
X199496Y89858D01*
X199510Y89805D01*
X199514Y89750D01*
X199547Y89652D01*
X199572Y89552D01*
X199598Y89503D01*
X199615Y89451D01*
X199672Y89365D01*
X199721Y89274D01*
X199758Y89234D01*
X199789Y89187D01*
X199865Y89118D01*
X199935Y89042D01*
X199982Y89013D01*
X200023Y88976D01*
X200114Y88928D01*
X200201Y88872D01*
X200253Y88855D01*
X200302Y88829D01*
X200366Y88818D01*
X200501Y88773D01*
X200673Y88762D01*
X200738Y88751D01*
X236762Y88751D01*
X236817Y88758D01*
X236872Y88756D01*
X236973Y88778D01*
X237075Y88791D01*
X237127Y88811D01*
X237180Y88823D01*
X237273Y88869D01*
X237368Y88908D01*
X237413Y88940D01*
X237462Y88965D01*
X237539Y89033D01*
X237623Y89094D01*
X237658Y89137D01*
X237699Y89173D01*
X237757Y89259D01*
X237822Y89339D01*
X237845Y89389D01*
X237876Y89434D01*
X237911Y89531D01*
X237954Y89625D01*
X237964Y89680D01*
X237982Y89732D01*
X237992Y89834D01*
X238010Y89936D01*
X238006Y89991D01*
X238011Y90046D01*
X237997Y90109D01*
X237986Y90250D01*
X237930Y90414D01*
X237917Y90478D01*
X236725Y93354D01*
X236725Y96646D01*
X237985Y99687D01*
X240313Y102015D01*
X243354Y103275D01*
X246646Y103275D01*
X249522Y102083D01*
X249575Y102069D01*
X249625Y102046D01*
X249727Y102028D01*
X249826Y102000D01*
X249882Y102000D01*
X249936Y101990D01*
X250039Y101998D01*
X250142Y101996D01*
X250195Y102010D01*
X250250Y102014D01*
X250348Y102047D01*
X250448Y102072D01*
X250497Y102098D01*
X250549Y102115D01*
X250635Y102172D01*
X250726Y102221D01*
X250767Y102258D01*
X250813Y102289D01*
X250882Y102365D01*
X250958Y102435D01*
X250987Y102482D01*
X251024Y102523D01*
X251072Y102614D01*
X251128Y102701D01*
X251145Y102753D01*
X251171Y102802D01*
X251182Y102866D01*
X251227Y103001D01*
X251238Y103173D01*
X251249Y103238D01*
X251249Y201762D01*
X251242Y201817D01*
X251244Y201872D01*
X251222Y201973D01*
X251209Y202075D01*
X251189Y202127D01*
X251177Y202180D01*
X251131Y202273D01*
X251092Y202368D01*
X251060Y202413D01*
X251035Y202462D01*
X250967Y202539D01*
X250906Y202623D01*
X250863Y202658D01*
X250827Y202699D01*
X250741Y202757D01*
X250661Y202822D01*
X250611Y202845D01*
X250566Y202876D01*
X250469Y202911D01*
X250375Y202954D01*
X250320Y202964D01*
X250269Y202982D01*
X250166Y202992D01*
X250064Y203010D01*
X250009Y203006D01*
X249954Y203011D01*
X249891Y202997D01*
X249750Y202986D01*
X249586Y202930D01*
X249522Y202917D01*
X246646Y201725D01*
X243354Y201725D01*
X240313Y202985D01*
X237985Y205313D01*
X236725Y208354D01*
X236725Y211646D01*
X237985Y214687D01*
X240313Y217015D01*
X243354Y218275D01*
X246646Y218275D01*
X249522Y217083D01*
X249575Y217069D01*
X249625Y217046D01*
X249727Y217028D01*
X249826Y217000D01*
X249882Y217000D01*
X249936Y216990D01*
X250039Y216998D01*
X250142Y216996D01*
X250195Y217010D01*
X250250Y217014D01*
X250348Y217047D01*
X250448Y217072D01*
X250497Y217098D01*
X250549Y217115D01*
X250635Y217172D01*
X250726Y217221D01*
X250767Y217258D01*
X250813Y217289D01*
X250882Y217365D01*
X250958Y217435D01*
X250987Y217482D01*
X251024Y217523D01*
X251072Y217614D01*
X251128Y217701D01*
X251145Y217753D01*
X251171Y217802D01*
X251182Y217866D01*
X251227Y218001D01*
X251238Y218173D01*
X251249Y218238D01*
X251249Y241762D01*
X251242Y241817D01*
X251244Y241872D01*
X251222Y241973D01*
X251209Y242075D01*
X251189Y242127D01*
X251177Y242180D01*
X251131Y242273D01*
X251092Y242368D01*
X251060Y242413D01*
X251035Y242462D01*
X250967Y242539D01*
X250906Y242623D01*
X250863Y242658D01*
X250827Y242699D01*
X250741Y242757D01*
X250661Y242822D01*
X250611Y242845D01*
X250566Y242876D01*
X250469Y242911D01*
X250375Y242954D01*
X250320Y242964D01*
X250269Y242982D01*
X250166Y242992D01*
X250064Y243010D01*
X250009Y243006D01*
X249954Y243011D01*
X249891Y242997D01*
X249750Y242986D01*
X249586Y242930D01*
X249522Y242917D01*
X246646Y241725D01*
X243354Y241725D01*
X240313Y242985D01*
X237985Y245313D01*
X236725Y248354D01*
X236725Y251646D01*
X237985Y254687D01*
X240313Y257015D01*
X243354Y258275D01*
X246646Y258275D01*
X249522Y257083D01*
X249575Y257069D01*
X249625Y257046D01*
X249727Y257028D01*
X249826Y257000D01*
X249882Y257000D01*
X249936Y256990D01*
X250039Y256998D01*
X250142Y256996D01*
X250195Y257010D01*
X250250Y257014D01*
X250348Y257047D01*
X250448Y257072D01*
X250497Y257098D01*
X250549Y257115D01*
X250635Y257172D01*
X250726Y257221D01*
X250767Y257258D01*
X250813Y257289D01*
X250882Y257365D01*
X250958Y257435D01*
X250987Y257482D01*
X251024Y257523D01*
X251072Y257614D01*
X251128Y257701D01*
X251145Y257753D01*
X251171Y257802D01*
X251182Y257866D01*
X251227Y258001D01*
X251238Y258173D01*
X251249Y258238D01*
X251249Y283750D01*
X251233Y283875D01*
X251224Y284000D01*
X251213Y284031D01*
X251209Y284063D01*
X251163Y284180D01*
X251122Y284299D01*
X251104Y284326D01*
X251092Y284356D01*
X251018Y284457D01*
X250949Y284563D01*
X250925Y284584D01*
X250906Y284610D01*
X250808Y284690D01*
X250715Y284774D01*
X250686Y284789D01*
X250661Y284810D01*
X250547Y284863D01*
X250436Y284921D01*
X250410Y284925D01*
X250375Y284942D01*
X250064Y284998D01*
X250025Y284995D01*
X250000Y284999D01*
X33033Y284999D01*
X32963Y284990D01*
X32891Y284991D01*
X32807Y284970D01*
X32720Y284959D01*
X32654Y284933D01*
X32585Y284916D01*
X32508Y284875D01*
X32427Y284842D01*
X32370Y284800D01*
X32307Y284767D01*
X32243Y284707D01*
X32173Y284656D01*
X32128Y284601D01*
X32076Y284552D01*
X32029Y284479D01*
X31973Y284411D01*
X31944Y284347D01*
X31905Y284287D01*
X31878Y284204D01*
X31842Y284125D01*
X31829Y284055D01*
X31807Y283987D01*
X31801Y283900D01*
X31786Y283814D01*
X31791Y283743D01*
X31786Y283672D01*
X31803Y283587D01*
X31809Y283500D01*
X31832Y283432D01*
X31846Y283362D01*
X31883Y283284D01*
X31911Y283201D01*
X31950Y283141D01*
X31981Y283077D01*
X32036Y283010D01*
X32084Y282937D01*
X32137Y282890D01*
X32183Y282835D01*
X32233Y282802D01*
X32318Y282726D01*
X32508Y282626D01*
X32555Y282596D01*
X39113Y279880D01*
X44880Y274113D01*
X48001Y266578D01*
X48001Y258422D01*
X44880Y250887D01*
X39113Y245120D01*
X31578Y241999D01*
X23422Y241999D01*
X15887Y245120D01*
X10120Y250887D01*
X7404Y257445D01*
X7369Y257507D01*
X7342Y257573D01*
X7291Y257643D01*
X7248Y257719D01*
X7198Y257770D01*
X7156Y257827D01*
X7088Y257882D01*
X7027Y257945D01*
X6967Y257981D01*
X6911Y258027D01*
X6832Y258063D01*
X6758Y258108D01*
X6689Y258129D01*
X6625Y258158D01*
X6539Y258174D01*
X6455Y258199D01*
X6384Y258202D01*
X6314Y258214D01*
X6227Y258208D01*
X6140Y258211D01*
X6071Y258196D01*
X6000Y258191D01*
X5917Y258162D01*
X5832Y258144D01*
X5768Y258112D01*
X5701Y258089D01*
X5628Y258041D01*
X5550Y258002D01*
X5497Y257955D01*
X5437Y257916D01*
X5379Y257851D01*
X5313Y257793D01*
X5273Y257734D01*
X5226Y257682D01*
X5185Y257604D01*
X5136Y257532D01*
X5112Y257465D01*
X5079Y257402D01*
X5068Y257343D01*
X5030Y257235D01*
X5011Y257022D01*
X5001Y256967D01*
X5001Y97500D01*
X5017Y97375D01*
X5026Y97250D01*
X5037Y97219D01*
X5041Y97187D01*
X5087Y97070D01*
X5128Y96951D01*
X5146Y96924D01*
X5158Y96894D01*
X5232Y96793D01*
X5301Y96687D01*
X5325Y96666D01*
X5344Y96640D01*
X5442Y96560D01*
X5535Y96476D01*
X5564Y96461D01*
X5589Y96440D01*
X5703Y96387D01*
X5814Y96329D01*
X5840Y96325D01*
X5875Y96308D01*
X6186Y96252D01*
X6225Y96255D01*
X6250Y96251D01*
X31160Y96251D01*
X31215Y96258D01*
X31270Y96256D01*
X31370Y96278D01*
X31473Y96291D01*
X31524Y96311D01*
X31578Y96323D01*
X31670Y96369D01*
X31766Y96408D01*
X31810Y96440D01*
X31859Y96465D01*
X31937Y96533D01*
X32020Y96594D01*
X32055Y96637D01*
X32096Y96673D01*
X32154Y96759D01*
X32220Y96839D01*
X32243Y96889D01*
X32274Y96934D01*
X32308Y97031D01*
X32352Y97125D01*
X32361Y97180D01*
X32380Y97231D01*
X32389Y97334D01*
X32407Y97436D01*
X32403Y97491D01*
X32408Y97546D01*
X32394Y97609D01*
X32384Y97750D01*
X32328Y97914D01*
X32314Y97978D01*
X31729Y99390D01*
X31729Y104410D01*
X33651Y109049D01*
X37201Y112599D01*
X39245Y113446D01*
X39368Y113516D01*
X39493Y113583D01*
X39504Y113594D01*
X39518Y113602D01*
X39620Y113702D01*
X39724Y113798D01*
X39733Y113811D01*
X39744Y113823D01*
X39818Y113944D01*
X39895Y114063D01*
X39900Y114079D01*
X39908Y114092D01*
X39949Y114228D01*
X39993Y114363D01*
X39994Y114379D01*
X39999Y114395D01*
X40004Y114536D01*
X40013Y114678D01*
X40010Y114694D01*
X40011Y114710D01*
X39981Y114849D01*
X39954Y114988D01*
X39947Y115002D01*
X39944Y115018D01*
X39879Y115145D01*
X39819Y115273D01*
X39809Y115285D01*
X39801Y115300D01*
X39708Y115406D01*
X39617Y115515D01*
X39606Y115522D01*
X39593Y115537D01*
X39332Y115714D01*
X39276Y115734D01*
X39245Y115754D01*
X37201Y116601D01*
X33651Y120151D01*
X31729Y124790D01*
X31729Y129810D01*
X33651Y134449D01*
X37201Y137999D01*
X39245Y138846D01*
X39368Y138916D01*
X39493Y138983D01*
X39504Y138994D01*
X39518Y139002D01*
X39620Y139102D01*
X39724Y139198D01*
X39733Y139211D01*
X39744Y139223D01*
X39818Y139344D01*
X39895Y139463D01*
X39900Y139479D01*
X39908Y139492D01*
X39949Y139628D01*
X39993Y139763D01*
X39994Y139779D01*
X39999Y139795D01*
X40004Y139936D01*
X40013Y140078D01*
X40010Y140094D01*
X40011Y140110D01*
X39981Y140249D01*
X39954Y140388D01*
X39947Y140402D01*
X39944Y140418D01*
X39879Y140545D01*
X39819Y140673D01*
X39809Y140685D01*
X39801Y140700D01*
X39708Y140806D01*
X39617Y140915D01*
X39606Y140922D01*
X39593Y140937D01*
X39332Y141114D01*
X39276Y141134D01*
X39245Y141154D01*
X37201Y142001D01*
X33651Y145551D01*
X31729Y150190D01*
X31729Y155210D01*
X33651Y159849D01*
X37201Y163399D01*
X39245Y164246D01*
X39368Y164316D01*
X39493Y164383D01*
X39504Y164394D01*
X39518Y164402D01*
X39620Y164502D01*
X39724Y164598D01*
X39733Y164611D01*
X39744Y164623D01*
X39818Y164744D01*
X39895Y164863D01*
X39900Y164879D01*
X39908Y164892D01*
X39949Y165028D01*
X39993Y165163D01*
X39994Y165179D01*
X39999Y165195D01*
X40004Y165336D01*
X40013Y165478D01*
X40010Y165494D01*
X40011Y165510D01*
X39981Y165649D01*
X39954Y165788D01*
X39947Y165802D01*
X39944Y165818D01*
X39879Y165945D01*
X39819Y166073D01*
X39809Y166085D01*
X39801Y166100D01*
X39708Y166206D01*
X39617Y166315D01*
X39606Y166322D01*
X39593Y166337D01*
X39332Y166514D01*
X39276Y166534D01*
X39245Y166554D01*
X37201Y167401D01*
X33651Y170951D01*
X31729Y175590D01*
X31729Y180610D01*
X33651Y185249D01*
X37201Y188799D01*
X39245Y189646D01*
X39368Y189716D01*
X39493Y189783D01*
X39504Y189794D01*
X39518Y189802D01*
X39620Y189902D01*
X39724Y189998D01*
X39733Y190011D01*
X39744Y190023D01*
X39818Y190144D01*
X39895Y190263D01*
X39900Y190279D01*
X39908Y190292D01*
X39949Y190428D01*
X39993Y190563D01*
X39994Y190579D01*
X39999Y190595D01*
X40004Y190736D01*
X40013Y190878D01*
X40010Y190894D01*
X40011Y190910D01*
X39981Y191049D01*
X39954Y191188D01*
X39947Y191202D01*
X39944Y191218D01*
X39879Y191345D01*
X39819Y191473D01*
X39809Y191485D01*
X39801Y191500D01*
X39708Y191606D01*
X39617Y191715D01*
X39606Y191722D01*
X39593Y191737D01*
X39332Y191914D01*
X39276Y191934D01*
X39245Y191954D01*
X37201Y192801D01*
X33651Y196351D01*
X31729Y200990D01*
X31729Y206010D01*
X33651Y210649D01*
X37201Y214199D01*
X41840Y216121D01*
X46860Y216121D01*
X51499Y214199D01*
X55049Y210649D01*
X55896Y208605D01*
X55966Y208482D01*
X56033Y208357D01*
X56044Y208346D01*
X56052Y208332D01*
X56152Y208230D01*
X56248Y208126D01*
X56261Y208117D01*
X56273Y208106D01*
X56394Y208032D01*
X56513Y207955D01*
X56529Y207950D01*
X56542Y207942D01*
X56678Y207901D01*
X56813Y207857D01*
X56829Y207856D01*
X56845Y207851D01*
X56986Y207846D01*
X57128Y207837D01*
X57144Y207840D01*
X57160Y207839D01*
X57299Y207869D01*
X57438Y207896D01*
X57452Y207903D01*
X57468Y207906D01*
X57595Y207971D01*
X57723Y208031D01*
X57735Y208041D01*
X57750Y208049D01*
X57856Y208142D01*
X57965Y208233D01*
X57972Y208244D01*
X57987Y208257D01*
X58164Y208518D01*
X58184Y208574D01*
X58204Y208605D01*
X59051Y210649D01*
X62601Y214199D01*
X67240Y216121D01*
X72260Y216121D01*
X72498Y216022D01*
X72551Y216008D01*
X72601Y215985D01*
X72703Y215967D01*
X72802Y215939D01*
X72858Y215939D01*
X72912Y215929D01*
X73015Y215937D01*
X73118Y215935D01*
X73171Y215948D01*
X73226Y215953D01*
X73324Y215986D01*
X73424Y216010D01*
X73473Y216037D01*
X73525Y216054D01*
X73611Y216111D01*
X73702Y216160D01*
X73743Y216197D01*
X73789Y216228D01*
X73858Y216304D01*
X73934Y216374D01*
X73963Y216421D01*
X74000Y216462D01*
X74048Y216553D01*
X74104Y216640D01*
X74121Y216692D01*
X74147Y216741D01*
X74158Y216805D01*
X74203Y216939D01*
X74214Y217112D01*
X74225Y217176D01*
X74225Y219146D01*
X75485Y222187D01*
X77813Y224515D01*
X80854Y225775D01*
X84146Y225775D01*
X87187Y224515D01*
X89515Y222187D01*
X90775Y219146D01*
X90775Y215854D01*
X89515Y212813D01*
X87187Y210485D01*
X84146Y209225D01*
X82909Y209225D01*
X82854Y209218D01*
X82799Y209220D01*
X82698Y209198D01*
X82596Y209185D01*
X82545Y209165D01*
X82491Y209153D01*
X82399Y209107D01*
X82303Y209068D01*
X82258Y209036D01*
X82209Y209011D01*
X82132Y208943D01*
X82048Y208882D01*
X82014Y208839D01*
X81972Y208803D01*
X81914Y208717D01*
X81849Y208637D01*
X81826Y208587D01*
X81795Y208542D01*
X81760Y208445D01*
X81717Y208351D01*
X81707Y208296D01*
X81689Y208245D01*
X81679Y208142D01*
X81661Y208040D01*
X81665Y207985D01*
X81660Y207930D01*
X81674Y207867D01*
X81685Y207726D01*
X81741Y207562D01*
X81755Y207498D01*
X82371Y206010D01*
X82371Y200990D01*
X80449Y196351D01*
X76899Y192801D01*
X74855Y191954D01*
X74732Y191884D01*
X74607Y191817D01*
X74596Y191806D01*
X74582Y191798D01*
X74480Y191699D01*
X74376Y191602D01*
X74367Y191589D01*
X74356Y191577D01*
X74282Y191456D01*
X74205Y191337D01*
X74200Y191321D01*
X74192Y191308D01*
X74151Y191171D01*
X74107Y191037D01*
X74106Y191021D01*
X74101Y191005D01*
X74096Y190864D01*
X74087Y190722D01*
X74090Y190706D01*
X74089Y190690D01*
X74119Y190551D01*
X74146Y190412D01*
X74153Y190398D01*
X74156Y190382D01*
X74221Y190255D01*
X74281Y190127D01*
X74291Y190115D01*
X74299Y190100D01*
X74392Y189994D01*
X74483Y189885D01*
X74494Y189878D01*
X74507Y189863D01*
X74768Y189686D01*
X74824Y189666D01*
X74855Y189646D01*
X76899Y188799D01*
X80449Y185249D01*
X82371Y180610D01*
X82371Y175590D01*
X80449Y170951D01*
X76899Y167401D01*
X74855Y166554D01*
X74732Y166484D01*
X74607Y166417D01*
X74596Y166406D01*
X74582Y166398D01*
X74480Y166299D01*
X74376Y166202D01*
X74367Y166189D01*
X74356Y166177D01*
X74282Y166056D01*
X74205Y165937D01*
X74200Y165921D01*
X74192Y165908D01*
X74151Y165772D01*
X74107Y165637D01*
X74106Y165621D01*
X74101Y165605D01*
X74096Y165464D01*
X74087Y165322D01*
X74090Y165306D01*
X74089Y165290D01*
X74119Y165151D01*
X74146Y165012D01*
X74153Y164998D01*
X74156Y164982D01*
X74220Y164856D01*
X74281Y164727D01*
X74291Y164715D01*
X74299Y164700D01*
X74392Y164594D01*
X74483Y164485D01*
X74494Y164478D01*
X74507Y164463D01*
X74768Y164286D01*
X74824Y164266D01*
X74855Y164246D01*
X76899Y163399D01*
X80449Y159849D01*
X82371Y155210D01*
X82371Y150190D01*
X80449Y145551D01*
X76899Y142001D01*
X74855Y141154D01*
X74732Y141084D01*
X74607Y141017D01*
X74596Y141006D01*
X74582Y140998D01*
X74480Y140899D01*
X74376Y140802D01*
X74367Y140789D01*
X74356Y140777D01*
X74282Y140656D01*
X74205Y140537D01*
X74200Y140521D01*
X74192Y140508D01*
X74151Y140372D01*
X74107Y140237D01*
X74106Y140221D01*
X74101Y140205D01*
X74096Y140064D01*
X74087Y139922D01*
X74090Y139906D01*
X74089Y139890D01*
X74119Y139751D01*
X74146Y139612D01*
X74153Y139598D01*
X74156Y139582D01*
X74220Y139456D01*
X74281Y139327D01*
X74291Y139315D01*
X74299Y139300D01*
X74392Y139194D01*
X74483Y139085D01*
X74494Y139078D01*
X74507Y139063D01*
X74768Y138886D01*
X74824Y138866D01*
X74855Y138846D01*
X76899Y137999D01*
X80449Y134449D01*
X82371Y129810D01*
X82371Y124790D01*
X80449Y120151D01*
X76899Y116601D01*
X74855Y115754D01*
X74732Y115684D01*
X74607Y115617D01*
X74596Y115606D01*
X74582Y115598D01*
X74480Y115499D01*
X74376Y115402D01*
X74367Y115389D01*
X74356Y115377D01*
X74282Y115256D01*
X74205Y115137D01*
X74200Y115121D01*
X74192Y115108D01*
X74151Y114972D01*
X74107Y114837D01*
X74106Y114821D01*
X74101Y114805D01*
X74096Y114664D01*
X74087Y114522D01*
X74090Y114506D01*
X74089Y114490D01*
X74119Y114351D01*
X74146Y114212D01*
X74153Y114198D01*
X74156Y114182D01*
X74220Y114056D01*
X74281Y113927D01*
X74291Y113915D01*
X74299Y113900D01*
X74392Y113794D01*
X74483Y113685D01*
X74494Y113678D01*
X74507Y113663D01*
X74768Y113486D01*
X74824Y113466D01*
X74855Y113446D01*
X76899Y112599D01*
X80449Y109049D01*
X82371Y104410D01*
X82371Y99390D01*
X81574Y97466D01*
X81541Y97345D01*
X81502Y97225D01*
X81499Y97193D01*
X81491Y97162D01*
X81489Y97035D01*
X81481Y96910D01*
X81487Y96878D01*
X81487Y96846D01*
X81517Y96724D01*
X81541Y96600D01*
X81554Y96571D01*
X81562Y96540D01*
X81622Y96429D01*
X81676Y96315D01*
X81696Y96290D01*
X81712Y96262D01*
X81797Y96170D01*
X81878Y96073D01*
X81899Y96059D01*
X81926Y96030D01*
X82191Y95860D01*
X82228Y95848D01*
X82250Y95834D01*
X83541Y95299D01*
X119723Y59117D01*
X119810Y59049D01*
X119892Y58976D01*
X119934Y58953D01*
X119973Y58923D01*
X120074Y58880D01*
X120171Y58829D01*
X120208Y58822D01*
X120263Y58799D01*
X120574Y58751D01*
X120594Y58753D01*
X120607Y58751D01*
X150476Y58751D01*
X150601Y58767D01*
G37*
G36*
X225125Y-4983D02*
X225125Y-4983D01*
X225250Y-4974D01*
X225281Y-4963D01*
X225313Y-4959D01*
X225430Y-4913D01*
X225549Y-4872D01*
X225576Y-4854D01*
X225606Y-4842D01*
X225707Y-4768D01*
X225813Y-4699D01*
X225834Y-4675D01*
X225860Y-4656D01*
X225940Y-4558D01*
X226024Y-4465D01*
X226039Y-4436D01*
X226060Y-4411D01*
X226113Y-4297D01*
X226171Y-4186D01*
X226175Y-4160D01*
X226192Y-4125D01*
X226248Y-3814D01*
X226245Y-3775D01*
X226249Y-3750D01*
X226249Y21762D01*
X226242Y21817D01*
X226244Y21872D01*
X226222Y21973D01*
X226209Y22075D01*
X226189Y22127D01*
X226177Y22180D01*
X226131Y22273D01*
X226092Y22368D01*
X226060Y22413D01*
X226035Y22462D01*
X225967Y22539D01*
X225906Y22623D01*
X225863Y22658D01*
X225827Y22699D01*
X225741Y22757D01*
X225661Y22822D01*
X225611Y22845D01*
X225566Y22876D01*
X225469Y22911D01*
X225375Y22954D01*
X225320Y22964D01*
X225269Y22982D01*
X225166Y22992D01*
X225064Y23010D01*
X225009Y23006D01*
X224954Y23011D01*
X224891Y22997D01*
X224750Y22986D01*
X224586Y22930D01*
X224522Y22917D01*
X221646Y21725D01*
X218354Y21725D01*
X215478Y22917D01*
X215372Y22945D01*
X215268Y22982D01*
X215220Y22987D01*
X215174Y23000D01*
X215064Y23001D01*
X214954Y23011D01*
X214918Y23003D01*
X214858Y23004D01*
X214552Y22928D01*
X214535Y22919D01*
X214522Y22917D01*
X211646Y21725D01*
X208354Y21725D01*
X205313Y22985D01*
X202985Y25313D01*
X201725Y28354D01*
X201725Y31646D01*
X202985Y34687D01*
X205313Y37015D01*
X208354Y38275D01*
X211646Y38275D01*
X214522Y37083D01*
X214628Y37055D01*
X214731Y37018D01*
X214780Y37013D01*
X214826Y37000D01*
X214936Y36999D01*
X215046Y36989D01*
X215082Y36997D01*
X215142Y36996D01*
X215448Y37072D01*
X215465Y37081D01*
X215478Y37083D01*
X218354Y38275D01*
X221646Y38275D01*
X224522Y37083D01*
X224575Y37069D01*
X224625Y37046D01*
X224727Y37028D01*
X224826Y37000D01*
X224882Y37000D01*
X224936Y36990D01*
X225039Y36998D01*
X225142Y36996D01*
X225195Y37010D01*
X225250Y37014D01*
X225348Y37047D01*
X225448Y37072D01*
X225497Y37098D01*
X225549Y37115D01*
X225635Y37172D01*
X225726Y37221D01*
X225767Y37258D01*
X225813Y37289D01*
X225882Y37365D01*
X225958Y37435D01*
X225987Y37482D01*
X226024Y37523D01*
X226072Y37614D01*
X226128Y37701D01*
X226145Y37753D01*
X226171Y37802D01*
X226182Y37866D01*
X226227Y38001D01*
X226238Y38173D01*
X226249Y38238D01*
X226249Y52500D01*
X226233Y52625D01*
X226224Y52750D01*
X226213Y52781D01*
X226209Y52813D01*
X226163Y52930D01*
X226122Y53049D01*
X226104Y53076D01*
X226092Y53106D01*
X226018Y53207D01*
X225949Y53313D01*
X225925Y53334D01*
X225906Y53360D01*
X225808Y53440D01*
X225715Y53524D01*
X225686Y53539D01*
X225661Y53560D01*
X225547Y53613D01*
X225436Y53671D01*
X225410Y53675D01*
X225375Y53692D01*
X225064Y53748D01*
X225025Y53745D01*
X225000Y53749D01*
X165969Y53749D01*
X165860Y53735D01*
X165750Y53730D01*
X165704Y53716D01*
X165656Y53709D01*
X165554Y53669D01*
X165449Y53636D01*
X165418Y53614D01*
X165363Y53592D01*
X165109Y53406D01*
X165096Y53391D01*
X165086Y53383D01*
X164687Y52985D01*
X161646Y51725D01*
X158354Y51725D01*
X155313Y52985D01*
X154914Y53383D01*
X154828Y53451D01*
X154746Y53524D01*
X154703Y53547D01*
X154665Y53576D01*
X154564Y53620D01*
X154467Y53671D01*
X154430Y53678D01*
X154375Y53701D01*
X154063Y53749D01*
X154044Y53747D01*
X154031Y53749D01*
X118017Y53749D01*
X100369Y71397D01*
X100326Y71431D01*
X100288Y71472D01*
X100202Y71527D01*
X100120Y71590D01*
X100069Y71612D01*
X100023Y71642D01*
X99925Y71674D01*
X99830Y71715D01*
X99775Y71723D01*
X99723Y71741D01*
X99620Y71747D01*
X99518Y71763D01*
X99463Y71757D01*
X99408Y71761D01*
X99307Y71741D01*
X99204Y71731D01*
X99152Y71712D01*
X99098Y71702D01*
X99005Y71657D01*
X98908Y71622D01*
X98863Y71590D01*
X98813Y71567D01*
X98734Y71500D01*
X98649Y71442D01*
X98613Y71400D01*
X98571Y71364D01*
X98536Y71309D01*
X98444Y71202D01*
X98367Y71047D01*
X98332Y70992D01*
X97015Y67813D01*
X94687Y65485D01*
X91646Y64225D01*
X88354Y64225D01*
X86737Y64895D01*
X86600Y64932D01*
X86465Y64973D01*
X86448Y64974D01*
X86433Y64978D01*
X86291Y64980D01*
X86149Y64985D01*
X86134Y64982D01*
X86117Y64982D01*
X85980Y64948D01*
X85841Y64918D01*
X85827Y64911D01*
X85811Y64907D01*
X85686Y64840D01*
X85559Y64776D01*
X85547Y64765D01*
X85533Y64757D01*
X85429Y64661D01*
X85323Y64567D01*
X85313Y64554D01*
X85302Y64543D01*
X85225Y64423D01*
X85145Y64306D01*
X85140Y64291D01*
X85131Y64278D01*
X85087Y64142D01*
X85039Y64009D01*
X85038Y63993D01*
X85033Y63978D01*
X85024Y63836D01*
X85011Y63695D01*
X85014Y63682D01*
X85012Y63663D01*
X85046Y63486D01*
X85048Y63459D01*
X85055Y63439D01*
X85072Y63353D01*
X85097Y63299D01*
X85105Y63263D01*
X85775Y61646D01*
X85775Y58354D01*
X84515Y55313D01*
X82187Y52985D01*
X79146Y51725D01*
X75854Y51725D01*
X72813Y52985D01*
X70485Y55313D01*
X69225Y58354D01*
X69225Y61646D01*
X70485Y64687D01*
X71883Y66086D01*
X71950Y66172D01*
X72024Y66254D01*
X72047Y66297D01*
X72076Y66335D01*
X72120Y66436D01*
X72171Y66533D01*
X72177Y66570D01*
X72201Y66625D01*
X72249Y66937D01*
X72247Y66956D01*
X72249Y66969D01*
X72249Y74001D01*
X80830Y74001D01*
X80869Y74006D01*
X80908Y74003D01*
X81025Y74026D01*
X81143Y74041D01*
X81180Y74055D01*
X81218Y74062D01*
X81326Y74113D01*
X81436Y74158D01*
X81468Y74181D01*
X81503Y74197D01*
X81595Y74274D01*
X81691Y74344D01*
X81715Y74375D01*
X81746Y74400D01*
X81781Y74455D01*
X81890Y74589D01*
X81949Y74717D01*
X81985Y74772D01*
X82985Y77187D01*
X85313Y79515D01*
X88492Y80832D01*
X88540Y80859D01*
X88592Y80878D01*
X88676Y80937D01*
X88766Y80988D01*
X88805Y81027D01*
X88851Y81058D01*
X88918Y81137D01*
X88992Y81209D01*
X89020Y81256D01*
X89056Y81298D01*
X89102Y81390D01*
X89155Y81478D01*
X89171Y81531D01*
X89196Y81581D01*
X89217Y81682D01*
X89246Y81781D01*
X89248Y81836D01*
X89259Y81890D01*
X89254Y81993D01*
X89258Y82096D01*
X89247Y82150D01*
X89244Y82205D01*
X89213Y82303D01*
X89191Y82404D01*
X89166Y82453D01*
X89150Y82506D01*
X89113Y82560D01*
X89049Y82686D01*
X88935Y82816D01*
X88897Y82869D01*
X80883Y90883D01*
X80797Y90951D01*
X80715Y91024D01*
X80672Y91047D01*
X80634Y91077D01*
X80533Y91120D01*
X80436Y91171D01*
X80399Y91178D01*
X80344Y91201D01*
X80032Y91249D01*
X80013Y91247D01*
X80000Y91249D01*
X77265Y91249D01*
X77242Y91246D01*
X77219Y91248D01*
X77164Y91236D01*
X76952Y91209D01*
X76846Y91167D01*
X76787Y91154D01*
X72260Y89279D01*
X67240Y89279D01*
X62713Y91154D01*
X62691Y91160D01*
X62671Y91171D01*
X62615Y91181D01*
X62409Y91237D01*
X62294Y91239D01*
X62235Y91249D01*
X51865Y91249D01*
X51842Y91246D01*
X51819Y91248D01*
X51764Y91236D01*
X51552Y91209D01*
X51446Y91167D01*
X51387Y91154D01*
X49455Y90354D01*
X49332Y90284D01*
X49207Y90217D01*
X49196Y90206D01*
X49182Y90198D01*
X49080Y90098D01*
X48976Y90002D01*
X48967Y89989D01*
X48956Y89977D01*
X48882Y89856D01*
X48805Y89737D01*
X48800Y89721D01*
X48792Y89708D01*
X48751Y89572D01*
X48707Y89437D01*
X48706Y89421D01*
X48701Y89405D01*
X48696Y89264D01*
X48687Y89122D01*
X48690Y89106D01*
X48689Y89090D01*
X48719Y88952D01*
X48746Y88812D01*
X48753Y88798D01*
X48756Y88782D01*
X48820Y88656D01*
X48881Y88527D01*
X48891Y88515D01*
X48899Y88500D01*
X48992Y88394D01*
X49083Y88285D01*
X49094Y88278D01*
X49107Y88263D01*
X49368Y88086D01*
X49424Y88066D01*
X49455Y88046D01*
X51499Y87199D01*
X55049Y83649D01*
X56971Y79010D01*
X56971Y73990D01*
X55049Y69351D01*
X51499Y65801D01*
X46860Y63879D01*
X41840Y63879D01*
X37201Y65801D01*
X33651Y69351D01*
X31729Y73990D01*
X31729Y79010D01*
X33651Y83649D01*
X37201Y87199D01*
X39245Y88046D01*
X39368Y88116D01*
X39493Y88183D01*
X39504Y88194D01*
X39518Y88202D01*
X39620Y88301D01*
X39724Y88398D01*
X39733Y88411D01*
X39744Y88423D01*
X39818Y88544D01*
X39895Y88663D01*
X39900Y88679D01*
X39908Y88692D01*
X39949Y88828D01*
X39993Y88963D01*
X39994Y88979D01*
X39999Y88995D01*
X40004Y89136D01*
X40013Y89278D01*
X40010Y89294D01*
X40011Y89310D01*
X39981Y89449D01*
X39954Y89588D01*
X39947Y89602D01*
X39944Y89618D01*
X39879Y89745D01*
X39819Y89873D01*
X39809Y89885D01*
X39801Y89900D01*
X39708Y90006D01*
X39617Y90115D01*
X39606Y90122D01*
X39593Y90137D01*
X39332Y90314D01*
X39276Y90334D01*
X39245Y90354D01*
X37313Y91154D01*
X37291Y91160D01*
X37271Y91171D01*
X37215Y91181D01*
X37009Y91237D01*
X36894Y91239D01*
X36835Y91249D01*
X6250Y91249D01*
X6125Y91233D01*
X6000Y91224D01*
X5969Y91213D01*
X5937Y91209D01*
X5820Y91163D01*
X5701Y91122D01*
X5674Y91104D01*
X5644Y91092D01*
X5543Y91018D01*
X5437Y90949D01*
X5416Y90925D01*
X5390Y90906D01*
X5310Y90808D01*
X5226Y90715D01*
X5211Y90686D01*
X5190Y90661D01*
X5137Y90547D01*
X5079Y90436D01*
X5075Y90410D01*
X5058Y90375D01*
X5002Y90064D01*
X5005Y90025D01*
X5001Y90000D01*
X5001Y23033D01*
X5010Y22963D01*
X5009Y22891D01*
X5030Y22807D01*
X5041Y22720D01*
X5067Y22654D01*
X5084Y22585D01*
X5125Y22508D01*
X5158Y22427D01*
X5200Y22370D01*
X5233Y22307D01*
X5293Y22243D01*
X5344Y22173D01*
X5399Y22128D01*
X5448Y22076D01*
X5521Y22029D01*
X5589Y21973D01*
X5653Y21944D01*
X5713Y21905D01*
X5796Y21878D01*
X5875Y21842D01*
X5945Y21829D01*
X6013Y21807D01*
X6100Y21801D01*
X6186Y21786D01*
X6257Y21791D01*
X6328Y21786D01*
X6413Y21803D01*
X6500Y21809D01*
X6568Y21832D01*
X6638Y21846D01*
X6716Y21883D01*
X6799Y21911D01*
X6859Y21950D01*
X6923Y21981D01*
X6990Y22036D01*
X7063Y22084D01*
X7110Y22137D01*
X7165Y22183D01*
X7198Y22233D01*
X7274Y22318D01*
X7374Y22508D01*
X7404Y22555D01*
X10120Y29113D01*
X15887Y34880D01*
X23422Y38001D01*
X31578Y38001D01*
X39113Y34880D01*
X44880Y29113D01*
X48001Y21578D01*
X48001Y13422D01*
X44880Y5887D01*
X39113Y120D01*
X32555Y-2596D01*
X32493Y-2631D01*
X32427Y-2658D01*
X32357Y-2709D01*
X32281Y-2752D01*
X32230Y-2802D01*
X32173Y-2844D01*
X32118Y-2912D01*
X32055Y-2973D01*
X32019Y-3033D01*
X31973Y-3089D01*
X31937Y-3168D01*
X31892Y-3242D01*
X31871Y-3311D01*
X31842Y-3375D01*
X31826Y-3461D01*
X31801Y-3545D01*
X31798Y-3616D01*
X31786Y-3686D01*
X31792Y-3773D01*
X31789Y-3860D01*
X31804Y-3929D01*
X31809Y-4000D01*
X31838Y-4083D01*
X31856Y-4168D01*
X31888Y-4232D01*
X31911Y-4299D01*
X31959Y-4372D01*
X31998Y-4450D01*
X32045Y-4503D01*
X32084Y-4563D01*
X32149Y-4621D01*
X32207Y-4687D01*
X32266Y-4727D01*
X32318Y-4774D01*
X32396Y-4815D01*
X32468Y-4864D01*
X32535Y-4888D01*
X32598Y-4921D01*
X32657Y-4932D01*
X32765Y-4970D01*
X32978Y-4989D01*
X33033Y-4999D01*
X225000Y-4999D01*
X225125Y-4983D01*
G37*
%LPC*%
G36*
X393757Y53749D02*
X393757Y53749D01*
X391459Y54701D01*
X389701Y56459D01*
X388749Y58757D01*
X388749Y241243D01*
X389701Y243541D01*
X391459Y245299D01*
X393757Y246251D01*
X411243Y246251D01*
X413541Y245299D01*
X415299Y243541D01*
X416251Y241243D01*
X416251Y208963D01*
X416260Y208892D01*
X416259Y208821D01*
X416280Y208736D01*
X416291Y208650D01*
X416317Y208584D01*
X416334Y208514D01*
X416375Y208438D01*
X416408Y208357D01*
X416450Y208299D01*
X416483Y208237D01*
X416543Y208173D01*
X416594Y208102D01*
X416649Y208057D01*
X416698Y208005D01*
X416771Y207958D01*
X416839Y207903D01*
X416903Y207873D01*
X416963Y207835D01*
X417046Y207807D01*
X417125Y207771D01*
X417195Y207758D01*
X417263Y207736D01*
X417350Y207731D01*
X417436Y207715D01*
X417507Y207720D01*
X417578Y207716D01*
X417663Y207732D01*
X417750Y207739D01*
X417818Y207762D01*
X417888Y207775D01*
X417966Y207812D01*
X418049Y207841D01*
X418109Y207880D01*
X418173Y207910D01*
X418240Y207966D01*
X418313Y208014D01*
X418361Y208067D01*
X418415Y208112D01*
X418448Y208163D01*
X418524Y208248D01*
X418624Y208437D01*
X418654Y208485D01*
X419551Y210649D01*
X423101Y214199D01*
X427740Y216121D01*
X432760Y216121D01*
X437399Y214199D01*
X440949Y210649D01*
X441796Y208605D01*
X441866Y208482D01*
X441933Y208357D01*
X441944Y208346D01*
X441952Y208332D01*
X442051Y208230D01*
X442148Y208126D01*
X442161Y208117D01*
X442173Y208106D01*
X442294Y208032D01*
X442413Y207955D01*
X442429Y207950D01*
X442442Y207942D01*
X442578Y207901D01*
X442713Y207857D01*
X442729Y207856D01*
X442745Y207851D01*
X442887Y207846D01*
X443028Y207837D01*
X443044Y207840D01*
X443060Y207839D01*
X443199Y207869D01*
X443338Y207896D01*
X443352Y207903D01*
X443368Y207906D01*
X443495Y207970D01*
X443623Y208031D01*
X443635Y208041D01*
X443650Y208049D01*
X443757Y208142D01*
X443865Y208233D01*
X443872Y208244D01*
X443887Y208257D01*
X444064Y208518D01*
X444084Y208574D01*
X444104Y208605D01*
X444951Y210649D01*
X448501Y214199D01*
X453140Y216121D01*
X458160Y216121D01*
X462799Y214199D01*
X466349Y210649D01*
X468271Y206010D01*
X468271Y200990D01*
X466349Y196351D01*
X462799Y192801D01*
X460755Y191954D01*
X460633Y191884D01*
X460507Y191817D01*
X460496Y191806D01*
X460482Y191798D01*
X460380Y191698D01*
X460276Y191602D01*
X460267Y191589D01*
X460256Y191577D01*
X460182Y191456D01*
X460105Y191337D01*
X460100Y191321D01*
X460092Y191308D01*
X460051Y191172D01*
X460007Y191037D01*
X460006Y191021D01*
X460001Y191005D01*
X459996Y190864D01*
X459987Y190722D01*
X459990Y190706D01*
X459989Y190690D01*
X460019Y190551D01*
X460046Y190412D01*
X460053Y190398D01*
X460056Y190382D01*
X460121Y190255D01*
X460181Y190127D01*
X460191Y190115D01*
X460199Y190100D01*
X460292Y189994D01*
X460383Y189885D01*
X460394Y189878D01*
X460407Y189863D01*
X460668Y189686D01*
X460724Y189666D01*
X460755Y189646D01*
X462799Y188799D01*
X466349Y185249D01*
X468271Y180610D01*
X468271Y175590D01*
X466349Y170951D01*
X462799Y167401D01*
X460755Y166554D01*
X460633Y166484D01*
X460507Y166417D01*
X460496Y166406D01*
X460482Y166398D01*
X460380Y166298D01*
X460276Y166202D01*
X460267Y166189D01*
X460256Y166177D01*
X460182Y166056D01*
X460105Y165937D01*
X460100Y165921D01*
X460092Y165908D01*
X460051Y165772D01*
X460007Y165637D01*
X460006Y165621D01*
X460001Y165605D01*
X459996Y165464D01*
X459987Y165322D01*
X459990Y165306D01*
X459989Y165290D01*
X460019Y165151D01*
X460046Y165012D01*
X460053Y164998D01*
X460056Y164982D01*
X460121Y164855D01*
X460181Y164727D01*
X460191Y164715D01*
X460199Y164700D01*
X460292Y164594D01*
X460383Y164485D01*
X460394Y164478D01*
X460407Y164463D01*
X460668Y164286D01*
X460724Y164266D01*
X460755Y164246D01*
X462799Y163399D01*
X466349Y159849D01*
X468271Y155210D01*
X468271Y150190D01*
X466349Y145551D01*
X462799Y142001D01*
X460755Y141154D01*
X460633Y141084D01*
X460507Y141017D01*
X460496Y141006D01*
X460482Y140998D01*
X460380Y140898D01*
X460276Y140802D01*
X460267Y140789D01*
X460256Y140777D01*
X460182Y140656D01*
X460105Y140537D01*
X460100Y140521D01*
X460092Y140508D01*
X460051Y140372D01*
X460007Y140237D01*
X460006Y140221D01*
X460001Y140205D01*
X459996Y140064D01*
X459987Y139922D01*
X459990Y139906D01*
X459989Y139890D01*
X460019Y139751D01*
X460046Y139612D01*
X460053Y139598D01*
X460056Y139582D01*
X460121Y139455D01*
X460181Y139327D01*
X460191Y139315D01*
X460199Y139300D01*
X460292Y139194D01*
X460383Y139085D01*
X460394Y139078D01*
X460407Y139063D01*
X460668Y138886D01*
X460724Y138866D01*
X460755Y138846D01*
X462799Y137999D01*
X466349Y134449D01*
X468271Y129810D01*
X468271Y124790D01*
X466349Y120151D01*
X462799Y116601D01*
X460755Y115754D01*
X460633Y115684D01*
X460507Y115617D01*
X460496Y115606D01*
X460482Y115598D01*
X460380Y115498D01*
X460276Y115402D01*
X460267Y115389D01*
X460256Y115377D01*
X460182Y115256D01*
X460105Y115137D01*
X460100Y115121D01*
X460092Y115108D01*
X460051Y114972D01*
X460007Y114837D01*
X460006Y114821D01*
X460001Y114805D01*
X459996Y114664D01*
X459987Y114522D01*
X459990Y114506D01*
X459989Y114490D01*
X460019Y114351D01*
X460046Y114212D01*
X460053Y114198D01*
X460056Y114182D01*
X460121Y114054D01*
X460181Y113927D01*
X460191Y113915D01*
X460199Y113900D01*
X460292Y113794D01*
X460383Y113685D01*
X460394Y113678D01*
X460407Y113663D01*
X460668Y113486D01*
X460724Y113466D01*
X460755Y113446D01*
X462799Y112599D01*
X466349Y109049D01*
X468271Y104410D01*
X468271Y99390D01*
X466349Y94751D01*
X462799Y91201D01*
X460755Y90354D01*
X460633Y90284D01*
X460507Y90217D01*
X460496Y90206D01*
X460482Y90198D01*
X460380Y90098D01*
X460276Y90002D01*
X460267Y89989D01*
X460256Y89977D01*
X460182Y89856D01*
X460105Y89737D01*
X460100Y89721D01*
X460092Y89708D01*
X460051Y89572D01*
X460007Y89437D01*
X460006Y89421D01*
X460001Y89405D01*
X459996Y89264D01*
X459987Y89122D01*
X459990Y89106D01*
X459989Y89090D01*
X460019Y88951D01*
X460046Y88812D01*
X460053Y88798D01*
X460056Y88782D01*
X460121Y88655D01*
X460181Y88527D01*
X460191Y88515D01*
X460199Y88500D01*
X460292Y88394D01*
X460383Y88285D01*
X460394Y88278D01*
X460407Y88263D01*
X460668Y88086D01*
X460724Y88066D01*
X460755Y88046D01*
X462799Y87199D01*
X466349Y83649D01*
X468271Y79010D01*
X468271Y73990D01*
X466349Y69351D01*
X462799Y65801D01*
X458160Y63879D01*
X453140Y63879D01*
X448501Y65801D01*
X444951Y69351D01*
X444104Y71395D01*
X444034Y71518D01*
X443967Y71643D01*
X443956Y71654D01*
X443948Y71668D01*
X443848Y71770D01*
X443752Y71874D01*
X443739Y71883D01*
X443727Y71894D01*
X443606Y71968D01*
X443487Y72045D01*
X443471Y72050D01*
X443458Y72058D01*
X443322Y72099D01*
X443187Y72143D01*
X443171Y72144D01*
X443155Y72149D01*
X443014Y72154D01*
X442872Y72163D01*
X442856Y72160D01*
X442840Y72161D01*
X442701Y72131D01*
X442562Y72104D01*
X442548Y72097D01*
X442532Y72094D01*
X442405Y72029D01*
X442277Y71969D01*
X442265Y71959D01*
X442250Y71951D01*
X442144Y71858D01*
X442035Y71767D01*
X442028Y71756D01*
X442013Y71743D01*
X441836Y71482D01*
X441816Y71426D01*
X441796Y71395D01*
X440949Y69351D01*
X437399Y65801D01*
X432760Y63879D01*
X427740Y63879D01*
X423101Y65801D01*
X419551Y69351D01*
X418654Y71515D01*
X418619Y71577D01*
X418592Y71643D01*
X418541Y71714D01*
X418498Y71789D01*
X418448Y71840D01*
X418406Y71898D01*
X418338Y71953D01*
X418277Y72015D01*
X418217Y72052D01*
X418161Y72097D01*
X418082Y72134D01*
X418008Y72179D01*
X417939Y72199D01*
X417875Y72229D01*
X417789Y72244D01*
X417705Y72270D01*
X417634Y72272D01*
X417564Y72285D01*
X417477Y72278D01*
X417390Y72282D01*
X417321Y72267D01*
X417250Y72261D01*
X417167Y72233D01*
X417082Y72214D01*
X417018Y72182D01*
X416951Y72159D01*
X416878Y72112D01*
X416800Y72072D01*
X416747Y72025D01*
X416687Y71986D01*
X416629Y71921D01*
X416563Y71864D01*
X416523Y71805D01*
X416476Y71752D01*
X416435Y71675D01*
X416386Y71603D01*
X416362Y71536D01*
X416329Y71473D01*
X416318Y71414D01*
X416280Y71306D01*
X416261Y71093D01*
X416251Y71037D01*
X416251Y58757D01*
X415299Y56459D01*
X413541Y54701D01*
X411243Y53749D01*
X393757Y53749D01*
G37*
%LPD*%
G36*
X410125Y58767D02*
X410125Y58767D01*
X410250Y58776D01*
X410281Y58787D01*
X410313Y58791D01*
X410430Y58837D01*
X410549Y58878D01*
X410576Y58896D01*
X410606Y58908D01*
X410707Y58982D01*
X410813Y59051D01*
X410834Y59075D01*
X410860Y59094D01*
X410940Y59192D01*
X411024Y59285D01*
X411039Y59314D01*
X411060Y59339D01*
X411113Y59453D01*
X411171Y59565D01*
X411175Y59590D01*
X411192Y59625D01*
X411248Y59936D01*
X411245Y59975D01*
X411249Y60000D01*
X411249Y240000D01*
X411233Y240125D01*
X411224Y240250D01*
X411213Y240281D01*
X411209Y240313D01*
X411163Y240430D01*
X411122Y240549D01*
X411104Y240576D01*
X411092Y240606D01*
X411018Y240707D01*
X410949Y240813D01*
X410925Y240834D01*
X410906Y240860D01*
X410808Y240940D01*
X410715Y241024D01*
X410686Y241039D01*
X410661Y241060D01*
X410547Y241113D01*
X410436Y241171D01*
X410410Y241175D01*
X410375Y241192D01*
X410064Y241248D01*
X410025Y241245D01*
X410000Y241249D01*
X395000Y241249D01*
X394875Y241233D01*
X394750Y241224D01*
X394719Y241213D01*
X394687Y241209D01*
X394570Y241163D01*
X394451Y241122D01*
X394424Y241104D01*
X394394Y241092D01*
X394293Y241018D01*
X394187Y240949D01*
X394166Y240925D01*
X394140Y240906D01*
X394060Y240808D01*
X393976Y240715D01*
X393961Y240686D01*
X393940Y240661D01*
X393887Y240547D01*
X393829Y240436D01*
X393825Y240410D01*
X393808Y240375D01*
X393752Y240064D01*
X393755Y240025D01*
X393751Y240000D01*
X393751Y60000D01*
X393767Y59875D01*
X393776Y59750D01*
X393787Y59719D01*
X393791Y59687D01*
X393837Y59570D01*
X393878Y59451D01*
X393896Y59424D01*
X393908Y59394D01*
X393982Y59293D01*
X394051Y59187D01*
X394075Y59166D01*
X394094Y59140D01*
X394192Y59060D01*
X394285Y58976D01*
X394314Y58961D01*
X394339Y58940D01*
X394453Y58887D01*
X394565Y58829D01*
X394590Y58825D01*
X394625Y58808D01*
X394936Y58752D01*
X394975Y58755D01*
X395000Y58751D01*
X410000Y58751D01*
X410125Y58767D01*
G37*
%LPC*%
G36*
X116890Y249879D02*
X116890Y249879D01*
X112251Y251801D01*
X108701Y255351D01*
X106779Y259990D01*
X106779Y265010D01*
X108701Y269649D01*
X112251Y273199D01*
X116890Y275121D01*
X121910Y275121D01*
X126549Y273199D01*
X130099Y269649D01*
X130946Y267605D01*
X131016Y267483D01*
X131083Y267357D01*
X131094Y267346D01*
X131102Y267332D01*
X131202Y267230D01*
X131298Y267126D01*
X131311Y267117D01*
X131323Y267106D01*
X131444Y267032D01*
X131563Y266955D01*
X131579Y266950D01*
X131592Y266942D01*
X131728Y266901D01*
X131863Y266857D01*
X131879Y266856D01*
X131895Y266851D01*
X132036Y266846D01*
X132178Y266837D01*
X132194Y266840D01*
X132210Y266839D01*
X132349Y266869D01*
X132488Y266896D01*
X132502Y266903D01*
X132518Y266906D01*
X132645Y266971D01*
X132773Y267031D01*
X132785Y267041D01*
X132800Y267049D01*
X132906Y267142D01*
X133015Y267233D01*
X133022Y267244D01*
X133037Y267257D01*
X133214Y267518D01*
X133234Y267574D01*
X133254Y267605D01*
X134101Y269649D01*
X137651Y273199D01*
X142290Y275121D01*
X147310Y275121D01*
X151949Y273199D01*
X155499Y269649D01*
X156346Y267605D01*
X156416Y267483D01*
X156483Y267357D01*
X156494Y267346D01*
X156502Y267332D01*
X156602Y267230D01*
X156698Y267126D01*
X156711Y267117D01*
X156723Y267106D01*
X156844Y267032D01*
X156963Y266955D01*
X156979Y266950D01*
X156992Y266942D01*
X157128Y266901D01*
X157263Y266857D01*
X157279Y266856D01*
X157295Y266851D01*
X157436Y266846D01*
X157578Y266837D01*
X157594Y266840D01*
X157610Y266839D01*
X157749Y266869D01*
X157888Y266896D01*
X157902Y266903D01*
X157918Y266906D01*
X158045Y266971D01*
X158173Y267031D01*
X158185Y267041D01*
X158200Y267049D01*
X158306Y267142D01*
X158415Y267233D01*
X158422Y267244D01*
X158437Y267257D01*
X158614Y267518D01*
X158634Y267574D01*
X158654Y267605D01*
X159501Y269649D01*
X163051Y273199D01*
X167690Y275121D01*
X172710Y275121D01*
X177349Y273199D01*
X180899Y269649D01*
X181746Y267605D01*
X181816Y267483D01*
X181883Y267357D01*
X181894Y267346D01*
X181902Y267332D01*
X182002Y267230D01*
X182098Y267126D01*
X182111Y267117D01*
X182123Y267106D01*
X182244Y267032D01*
X182363Y266955D01*
X182379Y266950D01*
X182392Y266942D01*
X182528Y266901D01*
X182663Y266857D01*
X182679Y266856D01*
X182695Y266851D01*
X182836Y266846D01*
X182978Y266837D01*
X182994Y266840D01*
X183010Y266839D01*
X183149Y266869D01*
X183288Y266896D01*
X183302Y266903D01*
X183318Y266906D01*
X183445Y266971D01*
X183573Y267031D01*
X183585Y267041D01*
X183600Y267049D01*
X183706Y267142D01*
X183815Y267233D01*
X183822Y267244D01*
X183837Y267257D01*
X184014Y267518D01*
X184034Y267574D01*
X184054Y267605D01*
X184901Y269649D01*
X188451Y273199D01*
X193090Y275121D01*
X198110Y275121D01*
X202749Y273199D01*
X206299Y269649D01*
X207146Y267605D01*
X207216Y267483D01*
X207283Y267357D01*
X207294Y267346D01*
X207302Y267332D01*
X207402Y267230D01*
X207498Y267126D01*
X207511Y267117D01*
X207523Y267106D01*
X207644Y267032D01*
X207763Y266955D01*
X207779Y266950D01*
X207792Y266942D01*
X207928Y266901D01*
X208063Y266857D01*
X208079Y266856D01*
X208095Y266851D01*
X208236Y266846D01*
X208378Y266837D01*
X208394Y266840D01*
X208410Y266839D01*
X208549Y266869D01*
X208688Y266896D01*
X208702Y266903D01*
X208718Y266906D01*
X208845Y266971D01*
X208973Y267031D01*
X208985Y267041D01*
X209000Y267049D01*
X209106Y267142D01*
X209215Y267233D01*
X209222Y267244D01*
X209237Y267257D01*
X209414Y267518D01*
X209434Y267574D01*
X209454Y267605D01*
X210301Y269649D01*
X213851Y273199D01*
X218490Y275121D01*
X223510Y275121D01*
X228149Y273199D01*
X231699Y269649D01*
X233621Y265010D01*
X233621Y259990D01*
X231699Y255351D01*
X228149Y251801D01*
X223510Y249879D01*
X218490Y249879D01*
X213851Y251801D01*
X210301Y255351D01*
X209454Y257395D01*
X209384Y257518D01*
X209317Y257643D01*
X209306Y257654D01*
X209298Y257668D01*
X209199Y257770D01*
X209102Y257874D01*
X209089Y257883D01*
X209077Y257894D01*
X208956Y257968D01*
X208837Y258045D01*
X208821Y258050D01*
X208808Y258058D01*
X208672Y258099D01*
X208537Y258143D01*
X208521Y258144D01*
X208505Y258149D01*
X208363Y258154D01*
X208222Y258163D01*
X208206Y258160D01*
X208190Y258161D01*
X208051Y258131D01*
X207912Y258104D01*
X207898Y258097D01*
X207882Y258094D01*
X207755Y258030D01*
X207627Y257969D01*
X207615Y257959D01*
X207600Y257951D01*
X207493Y257858D01*
X207385Y257767D01*
X207378Y257756D01*
X207363Y257743D01*
X207186Y257482D01*
X207166Y257426D01*
X207146Y257395D01*
X206299Y255351D01*
X202749Y251801D01*
X198110Y249879D01*
X193090Y249879D01*
X188451Y251801D01*
X184901Y255351D01*
X184054Y257395D01*
X183984Y257518D01*
X183917Y257643D01*
X183906Y257654D01*
X183898Y257668D01*
X183799Y257770D01*
X183702Y257874D01*
X183689Y257883D01*
X183677Y257894D01*
X183556Y257968D01*
X183437Y258045D01*
X183421Y258050D01*
X183408Y258058D01*
X183272Y258099D01*
X183137Y258143D01*
X183121Y258144D01*
X183105Y258149D01*
X182963Y258154D01*
X182822Y258163D01*
X182806Y258160D01*
X182790Y258161D01*
X182651Y258131D01*
X182512Y258104D01*
X182498Y258097D01*
X182482Y258094D01*
X182355Y258030D01*
X182227Y257969D01*
X182215Y257959D01*
X182200Y257951D01*
X182093Y257858D01*
X181985Y257767D01*
X181978Y257756D01*
X181963Y257743D01*
X181786Y257482D01*
X181766Y257426D01*
X181746Y257395D01*
X180899Y255351D01*
X177349Y251801D01*
X172710Y249879D01*
X167690Y249879D01*
X163051Y251801D01*
X159501Y255351D01*
X158654Y257395D01*
X158584Y257518D01*
X158517Y257643D01*
X158506Y257654D01*
X158498Y257668D01*
X158399Y257770D01*
X158302Y257874D01*
X158289Y257883D01*
X158277Y257894D01*
X158156Y257968D01*
X158037Y258045D01*
X158021Y258050D01*
X158008Y258058D01*
X157872Y258099D01*
X157737Y258143D01*
X157721Y258144D01*
X157705Y258149D01*
X157563Y258154D01*
X157422Y258163D01*
X157406Y258160D01*
X157390Y258161D01*
X157251Y258131D01*
X157112Y258104D01*
X157098Y258097D01*
X157082Y258094D01*
X156955Y258030D01*
X156827Y257969D01*
X156815Y257959D01*
X156800Y257951D01*
X156693Y257858D01*
X156585Y257767D01*
X156578Y257756D01*
X156563Y257743D01*
X156386Y257482D01*
X156366Y257426D01*
X156346Y257395D01*
X155499Y255351D01*
X151949Y251801D01*
X147310Y249879D01*
X142290Y249879D01*
X137651Y251801D01*
X134101Y255351D01*
X133254Y257395D01*
X133184Y257518D01*
X133117Y257643D01*
X133106Y257654D01*
X133098Y257668D01*
X132999Y257770D01*
X132902Y257874D01*
X132889Y257883D01*
X132877Y257894D01*
X132756Y257968D01*
X132637Y258045D01*
X132621Y258050D01*
X132608Y258058D01*
X132472Y258099D01*
X132337Y258143D01*
X132321Y258144D01*
X132305Y258149D01*
X132163Y258154D01*
X132022Y258163D01*
X132006Y258160D01*
X131990Y258161D01*
X131851Y258131D01*
X131712Y258104D01*
X131698Y258097D01*
X131682Y258094D01*
X131555Y258030D01*
X131427Y257969D01*
X131415Y257959D01*
X131400Y257951D01*
X131293Y257858D01*
X131185Y257767D01*
X131178Y257756D01*
X131163Y257743D01*
X130986Y257482D01*
X130966Y257426D01*
X130946Y257395D01*
X130099Y255351D01*
X126549Y251801D01*
X121910Y249879D01*
X116890Y249879D01*
G37*
%LPD*%
%LPC*%
G36*
X103354Y176725D02*
X103354Y176725D01*
X100313Y177985D01*
X97985Y180313D01*
X96725Y183354D01*
X96725Y186646D01*
X97985Y189687D01*
X100313Y192015D01*
X103354Y193275D01*
X104065Y193275D01*
X104104Y193280D01*
X104143Y193277D01*
X104260Y193300D01*
X104378Y193315D01*
X104415Y193329D01*
X104453Y193336D01*
X104560Y193387D01*
X104671Y193432D01*
X104703Y193455D01*
X104738Y193471D01*
X104829Y193548D01*
X104926Y193618D01*
X104950Y193648D01*
X104980Y193674D01*
X105016Y193729D01*
X105125Y193863D01*
X105184Y193991D01*
X105219Y194046D01*
X105485Y194687D01*
X107813Y197015D01*
X110992Y198332D01*
X111088Y198387D01*
X111187Y198433D01*
X111224Y198464D01*
X111266Y198488D01*
X111345Y198565D01*
X111429Y198636D01*
X111449Y198667D01*
X111492Y198709D01*
X111655Y198978D01*
X111661Y198997D01*
X111668Y199008D01*
X112395Y200763D01*
X112432Y200900D01*
X112473Y201035D01*
X112474Y201052D01*
X112478Y201067D01*
X112480Y201209D01*
X112485Y201351D01*
X112482Y201366D01*
X112482Y201383D01*
X112448Y201520D01*
X112418Y201659D01*
X112411Y201673D01*
X112407Y201689D01*
X112340Y201814D01*
X112276Y201941D01*
X112265Y201953D01*
X112257Y201967D01*
X112161Y202071D01*
X112067Y202177D01*
X112054Y202187D01*
X112043Y202198D01*
X111923Y202275D01*
X111806Y202355D01*
X111791Y202360D01*
X111778Y202369D01*
X111642Y202413D01*
X111509Y202461D01*
X111493Y202462D01*
X111478Y202467D01*
X111336Y202476D01*
X111195Y202489D01*
X111182Y202486D01*
X111163Y202488D01*
X110853Y202428D01*
X110799Y202403D01*
X110763Y202395D01*
X109146Y201725D01*
X105854Y201725D01*
X102813Y202985D01*
X100485Y205313D01*
X99225Y208354D01*
X99225Y211646D01*
X100485Y214687D01*
X102813Y217015D01*
X105854Y218275D01*
X109146Y218275D01*
X112187Y217015D01*
X114280Y214922D01*
X114311Y214898D01*
X114337Y214869D01*
X114436Y214802D01*
X114530Y214729D01*
X114566Y214713D01*
X114598Y214691D01*
X114710Y214651D01*
X114820Y214604D01*
X114858Y214598D01*
X114895Y214585D01*
X115014Y214575D01*
X115131Y214557D01*
X115170Y214560D01*
X115209Y214557D01*
X115273Y214571D01*
X115445Y214588D01*
X115578Y214637D01*
X115642Y214651D01*
X118354Y215775D01*
X121646Y215775D01*
X124687Y214515D01*
X127015Y212187D01*
X128275Y209146D01*
X128275Y205854D01*
X127083Y202978D01*
X127055Y202872D01*
X127018Y202768D01*
X127013Y202720D01*
X127000Y202674D01*
X126999Y202564D01*
X126989Y202454D01*
X126997Y202418D01*
X126996Y202358D01*
X127072Y202052D01*
X127081Y202035D01*
X127083Y202022D01*
X128029Y199738D01*
X128092Y199629D01*
X128149Y199517D01*
X128170Y199492D01*
X128186Y199464D01*
X128274Y199374D01*
X128357Y199280D01*
X128384Y199261D01*
X128406Y199238D01*
X128514Y199173D01*
X128618Y199102D01*
X128648Y199092D01*
X128676Y199075D01*
X128796Y199039D01*
X128915Y198996D01*
X128947Y198993D01*
X128978Y198984D01*
X129104Y198979D01*
X129229Y198968D01*
X129254Y198973D01*
X129293Y198972D01*
X129602Y199039D01*
X129636Y199057D01*
X129662Y199062D01*
X131798Y199947D01*
X135090Y199947D01*
X138131Y198687D01*
X140459Y196360D01*
X141719Y193318D01*
X141719Y190026D01*
X140459Y186985D01*
X138131Y184657D01*
X135090Y183398D01*
X131798Y183398D01*
X128757Y184657D01*
X126429Y186985D01*
X125415Y189434D01*
X125352Y189543D01*
X125295Y189656D01*
X125274Y189680D01*
X125258Y189708D01*
X125170Y189798D01*
X125087Y189893D01*
X125060Y189911D01*
X125038Y189934D01*
X124930Y189999D01*
X124826Y190070D01*
X124796Y190081D01*
X124768Y190097D01*
X124648Y190134D01*
X124529Y190176D01*
X124497Y190179D01*
X124466Y190188D01*
X124340Y190193D01*
X124215Y190204D01*
X124189Y190199D01*
X124151Y190200D01*
X123842Y190133D01*
X123808Y190116D01*
X123782Y190110D01*
X121508Y189168D01*
X121412Y189113D01*
X121313Y189067D01*
X121276Y189036D01*
X121234Y189012D01*
X121155Y188935D01*
X121071Y188864D01*
X121051Y188833D01*
X121008Y188791D01*
X120845Y188522D01*
X120839Y188503D01*
X120832Y188492D01*
X119515Y185313D01*
X117187Y182985D01*
X114146Y181725D01*
X113435Y181725D01*
X113396Y181720D01*
X113357Y181723D01*
X113240Y181700D01*
X113122Y181685D01*
X113085Y181671D01*
X113047Y181664D01*
X112940Y181613D01*
X112829Y181568D01*
X112797Y181545D01*
X112762Y181529D01*
X112671Y181452D01*
X112574Y181382D01*
X112550Y181352D01*
X112520Y181326D01*
X112484Y181271D01*
X112375Y181137D01*
X112316Y181009D01*
X112281Y180954D01*
X112015Y180313D01*
X109687Y177985D01*
X106646Y176725D01*
X103354Y176725D01*
G37*
%LPD*%
%LPC*%
G36*
X168354Y165169D02*
X168354Y165169D01*
X165313Y166429D01*
X162985Y168757D01*
X161725Y171798D01*
X161725Y175090D01*
X162948Y178041D01*
X162981Y178163D01*
X163020Y178282D01*
X163022Y178315D01*
X163031Y178346D01*
X163032Y178472D01*
X163040Y178597D01*
X163034Y178629D01*
X163035Y178661D01*
X163005Y178784D01*
X162981Y178907D01*
X162967Y178936D01*
X162960Y178968D01*
X162900Y179079D01*
X162846Y179192D01*
X162826Y179217D01*
X162810Y179245D01*
X162725Y179338D01*
X162644Y179435D01*
X162622Y179448D01*
X162596Y179477D01*
X162330Y179647D01*
X162293Y179660D01*
X162272Y179674D01*
X161758Y179886D01*
X161705Y179901D01*
X161655Y179924D01*
X161553Y179942D01*
X161454Y179969D01*
X161398Y179970D01*
X161344Y179980D01*
X161242Y179972D01*
X161138Y179973D01*
X161085Y179960D01*
X161030Y179956D01*
X160932Y179923D01*
X160832Y179898D01*
X160783Y179872D01*
X160731Y179854D01*
X160645Y179798D01*
X160554Y179749D01*
X160514Y179711D01*
X160467Y179681D01*
X160398Y179604D01*
X160322Y179534D01*
X160293Y179488D01*
X160256Y179447D01*
X160208Y179356D01*
X160152Y179269D01*
X160135Y179216D01*
X160109Y179168D01*
X160098Y179104D01*
X160053Y178969D01*
X160043Y178799D01*
X160032Y178743D01*
X160033Y178742D01*
X160031Y178732D01*
X160031Y178354D01*
X158771Y175313D01*
X156443Y172985D01*
X153402Y171725D01*
X150110Y171725D01*
X147069Y172985D01*
X144741Y175313D01*
X143481Y178354D01*
X143481Y181646D01*
X144741Y184687D01*
X147069Y187015D01*
X150110Y188275D01*
X152007Y188275D01*
X152147Y188293D01*
X152289Y188307D01*
X152304Y188313D01*
X152320Y188315D01*
X152452Y188367D01*
X152585Y188416D01*
X152598Y188426D01*
X152613Y188432D01*
X152728Y188516D01*
X152844Y188596D01*
X152854Y188609D01*
X152867Y188618D01*
X152957Y188728D01*
X153050Y188836D01*
X153057Y188850D01*
X153067Y188863D01*
X153126Y188992D01*
X153189Y189119D01*
X153192Y189135D01*
X153199Y189149D01*
X153224Y189289D01*
X153253Y189428D01*
X153252Y189444D01*
X153255Y189460D01*
X153244Y189601D01*
X153237Y189743D01*
X153232Y189758D01*
X153231Y189774D01*
X153185Y189909D01*
X153143Y190044D01*
X153135Y190055D01*
X153129Y190073D01*
X152956Y190337D01*
X152912Y190377D01*
X152890Y190407D01*
X150485Y192813D01*
X149225Y195854D01*
X149225Y199146D01*
X150417Y202022D01*
X150445Y202128D01*
X150482Y202231D01*
X150487Y202280D01*
X150500Y202326D01*
X150501Y202436D01*
X150511Y202546D01*
X150503Y202582D01*
X150504Y202642D01*
X150428Y202948D01*
X150419Y202965D01*
X150417Y202978D01*
X149225Y205854D01*
X149225Y209146D01*
X150485Y212187D01*
X152813Y214515D01*
X155854Y215775D01*
X159146Y215775D01*
X162187Y214515D01*
X164515Y212187D01*
X165775Y209146D01*
X165775Y205854D01*
X164583Y202978D01*
X164555Y202872D01*
X164518Y202768D01*
X164513Y202720D01*
X164500Y202674D01*
X164499Y202564D01*
X164489Y202454D01*
X164497Y202418D01*
X164496Y202358D01*
X164572Y202052D01*
X164581Y202035D01*
X164583Y202022D01*
X165775Y199146D01*
X165775Y196970D01*
X165780Y196931D01*
X165777Y196893D01*
X165800Y196776D01*
X165815Y196657D01*
X165829Y196621D01*
X165836Y196583D01*
X165887Y196475D01*
X165932Y196364D01*
X165955Y196333D01*
X165971Y196297D01*
X166048Y196206D01*
X166118Y196110D01*
X166148Y196085D01*
X166174Y196055D01*
X166229Y196020D01*
X166363Y195910D01*
X166491Y195851D01*
X166546Y195816D01*
X169687Y194515D01*
X172015Y192187D01*
X173275Y189146D01*
X173275Y185854D01*
X172052Y182903D01*
X172038Y182850D01*
X172015Y182801D01*
X172003Y182732D01*
X171980Y182662D01*
X171978Y182629D01*
X171969Y182598D01*
X171968Y182540D01*
X171960Y182491D01*
X171965Y182425D01*
X171960Y182347D01*
X171966Y182315D01*
X171965Y182283D01*
X171980Y182223D01*
X171983Y182176D01*
X172004Y182117D01*
X172019Y182037D01*
X172033Y182008D01*
X172040Y181976D01*
X172070Y181920D01*
X172085Y181877D01*
X172118Y181827D01*
X172154Y181752D01*
X172174Y181727D01*
X172190Y181698D01*
X172234Y181650D01*
X172258Y181614D01*
X172301Y181575D01*
X172356Y181509D01*
X172378Y181495D01*
X172404Y181467D01*
X172461Y181431D01*
X172492Y181402D01*
X172562Y181365D01*
X172670Y181296D01*
X172707Y181284D01*
X172728Y181270D01*
X174687Y180459D01*
X177015Y178131D01*
X178275Y175090D01*
X178275Y171798D01*
X177015Y168757D01*
X174687Y166429D01*
X171646Y165169D01*
X168354Y165169D01*
G37*
%LPD*%
%LPC*%
G36*
X138354Y124225D02*
X138354Y124225D01*
X135313Y125485D01*
X132985Y127813D01*
X131725Y130854D01*
X131725Y134146D01*
X132078Y134998D01*
X132093Y135051D01*
X132116Y135101D01*
X132134Y135203D01*
X132161Y135302D01*
X132162Y135358D01*
X132172Y135412D01*
X132164Y135515D01*
X132165Y135618D01*
X132152Y135671D01*
X132148Y135726D01*
X132115Y135824D01*
X132090Y135924D01*
X132064Y135973D01*
X132046Y136025D01*
X131989Y136111D01*
X131941Y136202D01*
X131903Y136242D01*
X131873Y136289D01*
X131796Y136358D01*
X131726Y136434D01*
X131680Y136463D01*
X131639Y136500D01*
X131548Y136548D01*
X131461Y136604D01*
X131408Y136621D01*
X131360Y136647D01*
X131295Y136658D01*
X131161Y136703D01*
X130988Y136714D01*
X130924Y136725D01*
X130854Y136725D01*
X127813Y137985D01*
X126452Y139346D01*
X126421Y139370D01*
X126395Y139399D01*
X126297Y139466D01*
X126203Y139539D01*
X126167Y139554D01*
X126134Y139576D01*
X126022Y139616D01*
X125913Y139663D01*
X125874Y139669D01*
X125837Y139682D01*
X125719Y139693D01*
X125601Y139711D01*
X125562Y139707D01*
X125523Y139711D01*
X125459Y139697D01*
X125287Y139679D01*
X125154Y139630D01*
X125091Y139617D01*
X124146Y139225D01*
X120854Y139225D01*
X117813Y140485D01*
X115485Y142813D01*
X114225Y145854D01*
X114225Y149146D01*
X115485Y152187D01*
X117813Y154515D01*
X120854Y155775D01*
X124146Y155775D01*
X124990Y155425D01*
X125043Y155411D01*
X125093Y155387D01*
X125195Y155369D01*
X125295Y155342D01*
X125350Y155341D01*
X125404Y155332D01*
X125507Y155339D01*
X125610Y155338D01*
X125664Y155351D01*
X125719Y155355D01*
X125816Y155389D01*
X125916Y155413D01*
X125965Y155439D01*
X126017Y155457D01*
X126104Y155514D01*
X126194Y155563D01*
X126235Y155600D01*
X126281Y155630D01*
X126350Y155707D01*
X126426Y155777D01*
X126456Y155823D01*
X126493Y155864D01*
X126541Y155956D01*
X126596Y156042D01*
X126614Y156095D01*
X126639Y156144D01*
X126651Y156208D01*
X126695Y156342D01*
X126706Y156515D01*
X126717Y156579D01*
X126717Y156654D01*
X127977Y159695D01*
X130305Y162023D01*
X133346Y163283D01*
X136638Y163283D01*
X139680Y162023D01*
X142007Y159695D01*
X143267Y156654D01*
X143267Y153362D01*
X142007Y150321D01*
X140650Y148963D01*
X140626Y148932D01*
X140596Y148906D01*
X140529Y148808D01*
X140457Y148714D01*
X140441Y148678D01*
X140419Y148645D01*
X140379Y148533D01*
X140332Y148424D01*
X140326Y148385D01*
X140313Y148348D01*
X140302Y148230D01*
X140284Y148112D01*
X140288Y148073D01*
X140285Y148034D01*
X140299Y147970D01*
X140316Y147798D01*
X140365Y147665D01*
X140379Y147602D01*
X140775Y146646D01*
X140775Y143354D01*
X140422Y142502D01*
X140407Y142449D01*
X140384Y142399D01*
X140366Y142297D01*
X140339Y142198D01*
X140338Y142142D01*
X140328Y142088D01*
X140336Y141985D01*
X140335Y141882D01*
X140348Y141829D01*
X140352Y141774D01*
X140385Y141676D01*
X140410Y141576D01*
X140436Y141527D01*
X140454Y141475D01*
X140511Y141389D01*
X140559Y141298D01*
X140597Y141258D01*
X140627Y141211D01*
X140704Y141142D01*
X140774Y141066D01*
X140820Y141037D01*
X140861Y141000D01*
X140952Y140952D01*
X141039Y140896D01*
X141092Y140879D01*
X141140Y140853D01*
X141205Y140842D01*
X141339Y140797D01*
X141512Y140786D01*
X141576Y140775D01*
X141646Y140775D01*
X144687Y139515D01*
X147015Y137187D01*
X148275Y134146D01*
X148275Y130854D01*
X147015Y127813D01*
X144687Y125485D01*
X141646Y124225D01*
X138354Y124225D01*
G37*
%LPD*%
%LPC*%
G36*
X315854Y234225D02*
X315854Y234225D01*
X312813Y235485D01*
X310485Y237813D01*
X309225Y240854D01*
X309225Y243424D01*
X309218Y243479D01*
X309220Y243534D01*
X309198Y243635D01*
X309185Y243737D01*
X309165Y243788D01*
X309153Y243842D01*
X309107Y243934D01*
X309068Y244030D01*
X309036Y244075D01*
X309011Y244124D01*
X308943Y244201D01*
X308882Y244284D01*
X308839Y244319D01*
X308803Y244361D01*
X308717Y244419D01*
X308637Y244484D01*
X308587Y244507D01*
X308542Y244538D01*
X308445Y244573D01*
X308351Y244616D01*
X308296Y244625D01*
X308245Y244644D01*
X308142Y244653D01*
X308040Y244672D01*
X307985Y244667D01*
X307930Y244672D01*
X307867Y244659D01*
X307726Y244648D01*
X307562Y244592D01*
X307498Y244578D01*
X306646Y244225D01*
X303354Y244225D01*
X300313Y245485D01*
X297985Y247813D01*
X296725Y250854D01*
X296725Y254146D01*
X297985Y257187D01*
X300313Y259515D01*
X303354Y260775D01*
X306646Y260775D01*
X309687Y259515D01*
X312015Y257187D01*
X313275Y254146D01*
X313275Y251576D01*
X313282Y251521D01*
X313280Y251466D01*
X313302Y251365D01*
X313315Y251263D01*
X313335Y251212D01*
X313347Y251158D01*
X313393Y251066D01*
X313432Y250970D01*
X313464Y250925D01*
X313489Y250876D01*
X313557Y250799D01*
X313618Y250716D01*
X313661Y250681D01*
X313697Y250639D01*
X313783Y250581D01*
X313863Y250516D01*
X313913Y250493D01*
X313958Y250462D01*
X314055Y250427D01*
X314149Y250384D01*
X314204Y250375D01*
X314255Y250356D01*
X314358Y250347D01*
X314460Y250328D01*
X314515Y250333D01*
X314570Y250328D01*
X314633Y250341D01*
X314774Y250352D01*
X314938Y250408D01*
X315002Y250422D01*
X315854Y250775D01*
X319146Y250775D01*
X319998Y250422D01*
X320051Y250407D01*
X320101Y250384D01*
X320203Y250366D01*
X320302Y250339D01*
X320358Y250338D01*
X320412Y250328D01*
X320515Y250336D01*
X320618Y250335D01*
X320671Y250348D01*
X320726Y250352D01*
X320824Y250385D01*
X320924Y250410D01*
X320973Y250436D01*
X321025Y250454D01*
X321111Y250511D01*
X321202Y250559D01*
X321243Y250597D01*
X321289Y250627D01*
X321358Y250704D01*
X321434Y250774D01*
X321463Y250820D01*
X321500Y250861D01*
X321548Y250952D01*
X321604Y251039D01*
X321621Y251092D01*
X321647Y251140D01*
X321658Y251205D01*
X321703Y251339D01*
X321714Y251512D01*
X321725Y251576D01*
X321725Y254146D01*
X322985Y257187D01*
X325313Y259515D01*
X328354Y260775D01*
X331646Y260775D01*
X334687Y259515D01*
X337015Y257187D01*
X338275Y254146D01*
X338275Y250854D01*
X337015Y247813D01*
X334687Y245485D01*
X331646Y244225D01*
X328354Y244225D01*
X327502Y244578D01*
X327449Y244593D01*
X327399Y244616D01*
X327297Y244634D01*
X327198Y244661D01*
X327142Y244662D01*
X327088Y244672D01*
X326985Y244664D01*
X326882Y244665D01*
X326829Y244652D01*
X326774Y244648D01*
X326676Y244615D01*
X326576Y244590D01*
X326527Y244564D01*
X326475Y244546D01*
X326389Y244489D01*
X326298Y244441D01*
X326257Y244403D01*
X326211Y244373D01*
X326142Y244296D01*
X326066Y244226D01*
X326037Y244180D01*
X326000Y244139D01*
X325952Y244048D01*
X325896Y243961D01*
X325879Y243908D01*
X325853Y243860D01*
X325842Y243795D01*
X325797Y243661D01*
X325786Y243488D01*
X325775Y243424D01*
X325775Y240854D01*
X324515Y237813D01*
X322187Y235485D01*
X319146Y234225D01*
X315854Y234225D01*
G37*
%LPD*%
%LPC*%
G36*
X275854Y259225D02*
X275854Y259225D01*
X272813Y260485D01*
X270485Y262813D01*
X269225Y265854D01*
X269225Y269146D01*
X270485Y272187D01*
X272813Y274515D01*
X275854Y275775D01*
X279146Y275775D01*
X280772Y275101D01*
X280878Y275072D01*
X280982Y275035D01*
X281030Y275031D01*
X281076Y275018D01*
X281186Y275017D01*
X281296Y275007D01*
X281332Y275015D01*
X281392Y275014D01*
X281698Y275089D01*
X281715Y275098D01*
X281728Y275101D01*
X283354Y275775D01*
X286646Y275775D01*
X288272Y275101D01*
X288378Y275072D01*
X288482Y275035D01*
X288530Y275031D01*
X288576Y275018D01*
X288686Y275017D01*
X288796Y275007D01*
X288832Y275015D01*
X288892Y275014D01*
X289198Y275089D01*
X289215Y275098D01*
X289228Y275101D01*
X290854Y275775D01*
X294146Y275775D01*
X297187Y274515D01*
X299515Y272187D01*
X300775Y269146D01*
X300775Y265854D01*
X299515Y262813D01*
X297187Y260485D01*
X294146Y259225D01*
X290854Y259225D01*
X289228Y259899D01*
X289122Y259928D01*
X289019Y259965D01*
X288970Y259969D01*
X288924Y259982D01*
X288814Y259983D01*
X288704Y259993D01*
X288668Y259985D01*
X288608Y259986D01*
X288302Y259911D01*
X288285Y259902D01*
X288272Y259899D01*
X286646Y259225D01*
X283354Y259225D01*
X281728Y259899D01*
X281622Y259928D01*
X281519Y259965D01*
X281470Y259969D01*
X281424Y259982D01*
X281314Y259983D01*
X281204Y259993D01*
X281168Y259985D01*
X281108Y259986D01*
X280802Y259911D01*
X280785Y259902D01*
X280772Y259899D01*
X279146Y259225D01*
X275854Y259225D01*
G37*
%LPD*%
%LPC*%
G36*
X360854Y194225D02*
X360854Y194225D01*
X357813Y195485D01*
X355485Y197813D01*
X354225Y200854D01*
X354225Y204165D01*
X354229Y204177D01*
X354257Y204243D01*
X354270Y204329D01*
X354293Y204413D01*
X354294Y204484D01*
X354305Y204555D01*
X354296Y204641D01*
X354297Y204728D01*
X354280Y204798D01*
X354273Y204869D01*
X354243Y204950D01*
X354222Y205035D01*
X354188Y205098D01*
X354163Y205165D01*
X354114Y205236D01*
X354072Y205313D01*
X354024Y205365D01*
X353983Y205424D01*
X353917Y205480D01*
X353858Y205544D01*
X353798Y205583D01*
X353744Y205629D01*
X353666Y205668D01*
X353592Y205715D01*
X353525Y205737D01*
X353461Y205768D01*
X353376Y205786D01*
X353293Y205813D01*
X353222Y205818D01*
X353152Y205832D01*
X353065Y205828D01*
X352978Y205834D01*
X352908Y205820D01*
X352837Y205817D01*
X352754Y205791D01*
X352668Y205774D01*
X352604Y205744D01*
X352536Y205723D01*
X352486Y205688D01*
X352383Y205639D01*
X352218Y205502D01*
X352203Y205492D01*
X349146Y204225D01*
X345854Y204225D01*
X342813Y205485D01*
X340485Y207813D01*
X339225Y210854D01*
X339225Y214146D01*
X340485Y217187D01*
X342813Y219515D01*
X345854Y220775D01*
X349146Y220775D01*
X352187Y219515D01*
X354515Y217187D01*
X355775Y214146D01*
X355775Y210835D01*
X355771Y210823D01*
X355743Y210757D01*
X355730Y210671D01*
X355707Y210587D01*
X355706Y210516D01*
X355695Y210445D01*
X355704Y210359D01*
X355703Y210272D01*
X355720Y210202D01*
X355727Y210131D01*
X355757Y210050D01*
X355778Y209965D01*
X355812Y209902D01*
X355837Y209835D01*
X355886Y209764D01*
X355928Y209687D01*
X355976Y209635D01*
X356017Y209576D01*
X356083Y209520D01*
X356142Y209456D01*
X356202Y209417D01*
X356256Y209371D01*
X356334Y209332D01*
X356408Y209285D01*
X356475Y209263D01*
X356539Y209232D01*
X356624Y209214D01*
X356707Y209187D01*
X356778Y209182D01*
X356848Y209168D01*
X356935Y209172D01*
X357022Y209166D01*
X357092Y209180D01*
X357163Y209183D01*
X357246Y209209D01*
X357332Y209226D01*
X357396Y209256D01*
X357464Y209277D01*
X357514Y209312D01*
X357617Y209361D01*
X357782Y209498D01*
X357797Y209508D01*
X360854Y210775D01*
X364146Y210775D01*
X367187Y209515D01*
X369515Y207187D01*
X370775Y204146D01*
X370775Y200854D01*
X369515Y197813D01*
X367187Y195485D01*
X364146Y194225D01*
X360854Y194225D01*
G37*
%LPD*%
%LPC*%
G36*
X93354Y144225D02*
X93354Y144225D01*
X90313Y145485D01*
X87985Y147813D01*
X86725Y150854D01*
X86725Y154146D01*
X87985Y157187D01*
X90313Y159515D01*
X93442Y160811D01*
X93469Y160815D01*
X93506Y160829D01*
X93544Y160836D01*
X93652Y160887D01*
X93762Y160932D01*
X93794Y160955D01*
X93829Y160971D01*
X93921Y161048D01*
X94017Y161118D01*
X94041Y161148D01*
X94072Y161174D01*
X94107Y161229D01*
X94216Y161363D01*
X94275Y161491D01*
X94311Y161546D01*
X95485Y164381D01*
X97813Y166709D01*
X100854Y167969D01*
X104146Y167969D01*
X107187Y166709D01*
X109515Y164381D01*
X110775Y161340D01*
X110775Y158048D01*
X109515Y155007D01*
X107187Y152679D01*
X104058Y151383D01*
X104031Y151379D01*
X103994Y151365D01*
X103956Y151358D01*
X103848Y151307D01*
X103738Y151262D01*
X103706Y151239D01*
X103671Y151223D01*
X103579Y151146D01*
X103483Y151076D01*
X103459Y151046D01*
X103428Y151020D01*
X103393Y150965D01*
X103284Y150831D01*
X103225Y150703D01*
X103189Y150648D01*
X102015Y147813D01*
X99687Y145485D01*
X96646Y144225D01*
X93354Y144225D01*
G37*
%LPD*%
%LPC*%
G36*
X173354Y214225D02*
X173354Y214225D01*
X170313Y215485D01*
X167985Y217813D01*
X166725Y220854D01*
X166725Y224146D01*
X167985Y227187D01*
X170313Y229515D01*
X173354Y230775D01*
X176646Y230775D01*
X177591Y230383D01*
X177628Y230373D01*
X177663Y230356D01*
X177780Y230332D01*
X177895Y230300D01*
X177934Y230300D01*
X177972Y230292D01*
X178091Y230298D01*
X178210Y230296D01*
X178248Y230306D01*
X178287Y230308D01*
X178401Y230343D01*
X178517Y230372D01*
X178551Y230390D01*
X178589Y230402D01*
X178642Y230439D01*
X178795Y230521D01*
X178898Y230617D01*
X178952Y230654D01*
X180313Y232015D01*
X183354Y233275D01*
X186646Y233275D01*
X189687Y232015D01*
X192015Y229687D01*
X193275Y226646D01*
X193275Y223354D01*
X192015Y220313D01*
X189687Y217985D01*
X186646Y216725D01*
X183354Y216725D01*
X182409Y217117D01*
X182372Y217127D01*
X182337Y217144D01*
X182220Y217168D01*
X182105Y217200D01*
X182066Y217200D01*
X182028Y217208D01*
X181909Y217202D01*
X181790Y217204D01*
X181752Y217194D01*
X181713Y217192D01*
X181599Y217157D01*
X181483Y217128D01*
X181449Y217110D01*
X181411Y217098D01*
X181358Y217061D01*
X181205Y216979D01*
X181102Y216883D01*
X181048Y216846D01*
X179687Y215485D01*
X176646Y214225D01*
X173354Y214225D01*
G37*
%LPD*%
%LPC*%
G36*
X283354Y101725D02*
X283354Y101725D01*
X280313Y102985D01*
X277985Y105313D01*
X276725Y108354D01*
X276725Y111646D01*
X277917Y114522D01*
X277945Y114628D01*
X277982Y114732D01*
X277987Y114780D01*
X278000Y114826D01*
X278001Y114936D01*
X278011Y115046D01*
X278003Y115082D01*
X278004Y115142D01*
X277928Y115448D01*
X277919Y115465D01*
X277917Y115478D01*
X276725Y118354D01*
X276725Y121646D01*
X277985Y124687D01*
X280313Y127015D01*
X283354Y128275D01*
X286646Y128275D01*
X289687Y127015D01*
X292015Y124687D01*
X293275Y121646D01*
X293275Y118354D01*
X292083Y115478D01*
X292055Y115372D01*
X292018Y115269D01*
X292013Y115220D01*
X292000Y115174D01*
X291999Y115064D01*
X291989Y114954D01*
X291997Y114918D01*
X291996Y114858D01*
X292072Y114552D01*
X292081Y114535D01*
X292083Y114522D01*
X293275Y111646D01*
X293275Y108354D01*
X292015Y105313D01*
X289687Y102985D01*
X286646Y101725D01*
X283354Y101725D01*
G37*
%LPD*%
%LPC*%
G36*
X285854Y29225D02*
X285854Y29225D01*
X282813Y30485D01*
X280485Y32813D01*
X279225Y35854D01*
X279225Y39146D01*
X280485Y42187D01*
X282813Y44515D01*
X285854Y45775D01*
X289146Y45775D01*
X292022Y44583D01*
X292128Y44555D01*
X292231Y44518D01*
X292280Y44513D01*
X292326Y44500D01*
X292436Y44499D01*
X292546Y44489D01*
X292582Y44497D01*
X292642Y44496D01*
X292948Y44572D01*
X292965Y44581D01*
X292978Y44583D01*
X295854Y45775D01*
X299146Y45775D01*
X302187Y44515D01*
X304515Y42187D01*
X305775Y39146D01*
X305775Y35854D01*
X304515Y32813D01*
X302187Y30485D01*
X299146Y29225D01*
X295854Y29225D01*
X292978Y30417D01*
X292872Y30445D01*
X292768Y30482D01*
X292720Y30487D01*
X292674Y30500D01*
X292564Y30501D01*
X292454Y30511D01*
X292418Y30503D01*
X292358Y30504D01*
X292052Y30428D01*
X292035Y30419D01*
X292022Y30417D01*
X289146Y29225D01*
X285854Y29225D01*
G37*
%LPD*%
%LPC*%
G36*
X298354Y171725D02*
X298354Y171725D01*
X295313Y172985D01*
X292985Y175313D01*
X291725Y178354D01*
X291725Y181646D01*
X292985Y184687D01*
X295313Y187015D01*
X298354Y188275D01*
X301646Y188275D01*
X304522Y187083D01*
X304628Y187055D01*
X304731Y187018D01*
X304780Y187013D01*
X304826Y187000D01*
X304936Y186999D01*
X305046Y186989D01*
X305082Y186997D01*
X305142Y186996D01*
X305448Y187072D01*
X305465Y187081D01*
X305478Y187083D01*
X308354Y188275D01*
X311646Y188275D01*
X314687Y187015D01*
X317015Y184687D01*
X318275Y181646D01*
X318275Y178354D01*
X317015Y175313D01*
X314687Y172985D01*
X311646Y171725D01*
X308354Y171725D01*
X305478Y172917D01*
X305372Y172945D01*
X305268Y172982D01*
X305220Y172987D01*
X305174Y173000D01*
X305064Y173001D01*
X304954Y173011D01*
X304918Y173003D01*
X304858Y173004D01*
X304552Y172928D01*
X304535Y172919D01*
X304522Y172917D01*
X301646Y171725D01*
X298354Y171725D01*
G37*
%LPD*%
%LPC*%
G36*
X125854Y21725D02*
X125854Y21725D01*
X122813Y22985D01*
X120485Y25313D01*
X119225Y28354D01*
X119225Y31646D01*
X120485Y34687D01*
X122813Y37015D01*
X125854Y38275D01*
X129146Y38275D01*
X132022Y37083D01*
X132128Y37055D01*
X132231Y37018D01*
X132280Y37013D01*
X132326Y37000D01*
X132436Y36999D01*
X132546Y36989D01*
X132582Y36997D01*
X132642Y36996D01*
X132948Y37072D01*
X132965Y37081D01*
X132978Y37083D01*
X135854Y38275D01*
X139146Y38275D01*
X142187Y37015D01*
X144515Y34687D01*
X145775Y31646D01*
X145775Y28354D01*
X144515Y25313D01*
X142187Y22985D01*
X139146Y21725D01*
X135854Y21725D01*
X132978Y22917D01*
X132872Y22945D01*
X132768Y22982D01*
X132720Y22987D01*
X132674Y23000D01*
X132564Y23001D01*
X132454Y23011D01*
X132418Y23003D01*
X132358Y23004D01*
X132052Y22928D01*
X132035Y22919D01*
X132022Y22917D01*
X129146Y21725D01*
X125854Y21725D01*
G37*
%LPD*%
%LPC*%
G36*
X229774Y179225D02*
X229774Y179225D01*
X226733Y180485D01*
X224405Y182813D01*
X223145Y185854D01*
X223145Y189146D01*
X224405Y192187D01*
X226733Y194515D01*
X229774Y195775D01*
X233066Y195775D01*
X235232Y194878D01*
X235338Y194849D01*
X235442Y194812D01*
X235490Y194807D01*
X235536Y194795D01*
X235646Y194793D01*
X235756Y194783D01*
X235792Y194791D01*
X235852Y194791D01*
X236158Y194866D01*
X236175Y194875D01*
X236188Y194878D01*
X238354Y195775D01*
X241646Y195775D01*
X244687Y194515D01*
X247015Y192187D01*
X248275Y189146D01*
X248275Y185854D01*
X247015Y182813D01*
X244687Y180485D01*
X241646Y179225D01*
X238354Y179225D01*
X236188Y180122D01*
X236082Y180151D01*
X235979Y180188D01*
X235930Y180193D01*
X235884Y180205D01*
X235774Y180207D01*
X235664Y180217D01*
X235628Y180209D01*
X235568Y180209D01*
X235262Y180134D01*
X235245Y180125D01*
X235232Y180122D01*
X233066Y179225D01*
X229774Y179225D01*
G37*
%LPD*%
%LPC*%
G36*
X323354Y204225D02*
X323354Y204225D01*
X320313Y205485D01*
X317985Y207813D01*
X316725Y210854D01*
X316725Y214146D01*
X317985Y217187D01*
X320313Y219515D01*
X323354Y220775D01*
X326646Y220775D01*
X329687Y219515D01*
X332015Y217187D01*
X333275Y214146D01*
X333275Y210854D01*
X332015Y207813D01*
X329687Y205485D01*
X326646Y204225D01*
X323354Y204225D01*
G37*
%LPD*%
%LPC*%
G36*
X320854Y29225D02*
X320854Y29225D01*
X317813Y30485D01*
X315485Y32813D01*
X314225Y35854D01*
X314225Y39146D01*
X315485Y42187D01*
X317813Y44515D01*
X320854Y45775D01*
X324146Y45775D01*
X327187Y44515D01*
X329515Y42187D01*
X330775Y39146D01*
X330775Y35854D01*
X329515Y32813D01*
X327187Y30485D01*
X324146Y29225D01*
X320854Y29225D01*
G37*
%LPD*%
%LPC*%
G36*
X260854Y29225D02*
X260854Y29225D01*
X257813Y30485D01*
X255485Y32813D01*
X254225Y35854D01*
X254225Y39146D01*
X255485Y42187D01*
X257813Y44515D01*
X260854Y45775D01*
X264146Y45775D01*
X267187Y44515D01*
X269515Y42187D01*
X270775Y39146D01*
X270775Y35854D01*
X269515Y32813D01*
X267187Y30485D01*
X264146Y29225D01*
X260854Y29225D01*
G37*
%LPD*%
%LPC*%
G36*
X368354Y51725D02*
X368354Y51725D01*
X365313Y52985D01*
X362985Y55313D01*
X361725Y58354D01*
X361725Y61646D01*
X362985Y64687D01*
X365313Y67015D01*
X368354Y68275D01*
X371646Y68275D01*
X374687Y67015D01*
X377015Y64687D01*
X378275Y61646D01*
X378275Y58354D01*
X377015Y55313D01*
X374687Y52985D01*
X371646Y51725D01*
X368354Y51725D01*
G37*
%LPD*%
%LPC*%
G36*
X308354Y59225D02*
X308354Y59225D01*
X305313Y60485D01*
X302985Y62813D01*
X301725Y65854D01*
X301725Y69146D01*
X302985Y72187D01*
X305313Y74515D01*
X308354Y75775D01*
X311646Y75775D01*
X314687Y74515D01*
X317015Y72187D01*
X318275Y69146D01*
X318275Y65854D01*
X317015Y62813D01*
X314687Y60485D01*
X311646Y59225D01*
X308354Y59225D01*
G37*
%LPD*%
%LPC*%
G36*
X353354Y66725D02*
X353354Y66725D01*
X350313Y67985D01*
X347985Y70313D01*
X346725Y73354D01*
X346725Y76646D01*
X347985Y79687D01*
X350313Y82015D01*
X353354Y83275D01*
X356646Y83275D01*
X359687Y82015D01*
X362015Y79687D01*
X363275Y76646D01*
X363275Y73354D01*
X362015Y70313D01*
X359687Y67985D01*
X356646Y66725D01*
X353354Y66725D01*
G37*
%LPD*%
%LPC*%
G36*
X93354Y104225D02*
X93354Y104225D01*
X90313Y105485D01*
X87985Y107813D01*
X86725Y110854D01*
X86725Y114146D01*
X87985Y117187D01*
X90313Y119515D01*
X93354Y120775D01*
X96646Y120775D01*
X99687Y119515D01*
X102015Y117187D01*
X103275Y114146D01*
X103275Y110854D01*
X102015Y107813D01*
X99687Y105485D01*
X96646Y104225D01*
X93354Y104225D01*
G37*
%LPD*%
%LPC*%
G36*
X318354Y111725D02*
X318354Y111725D01*
X315313Y112985D01*
X312985Y115313D01*
X311725Y118354D01*
X311725Y121646D01*
X312985Y124687D01*
X315313Y127015D01*
X318354Y128275D01*
X321646Y128275D01*
X324687Y127015D01*
X327015Y124687D01*
X328275Y121646D01*
X328275Y118354D01*
X327015Y115313D01*
X324687Y112985D01*
X321646Y111725D01*
X318354Y111725D01*
G37*
%LPD*%
%LPC*%
G36*
X170854Y126725D02*
X170854Y126725D01*
X167813Y127985D01*
X165485Y130313D01*
X164225Y133354D01*
X164225Y136646D01*
X165485Y139687D01*
X167813Y142015D01*
X170854Y143275D01*
X174146Y143275D01*
X177187Y142015D01*
X179515Y139687D01*
X180775Y136646D01*
X180775Y133354D01*
X179515Y130313D01*
X177187Y127985D01*
X174146Y126725D01*
X170854Y126725D01*
G37*
%LPD*%
%LPC*%
G36*
X225854Y126725D02*
X225854Y126725D01*
X222813Y127985D01*
X220485Y130313D01*
X219225Y133354D01*
X219225Y136646D01*
X220485Y139687D01*
X222813Y142015D01*
X225854Y143275D01*
X229146Y143275D01*
X232187Y142015D01*
X234515Y139687D01*
X235775Y136646D01*
X235775Y133354D01*
X234515Y130313D01*
X232187Y127985D01*
X229146Y126725D01*
X225854Y126725D01*
G37*
%LPD*%
%LPC*%
G36*
X300854Y131725D02*
X300854Y131725D01*
X297813Y132985D01*
X295485Y135313D01*
X294225Y138354D01*
X294225Y141646D01*
X295485Y144687D01*
X297813Y147015D01*
X300854Y148275D01*
X304146Y148275D01*
X307187Y147015D01*
X309515Y144687D01*
X310775Y141646D01*
X310775Y138354D01*
X309515Y135313D01*
X307187Y132985D01*
X304146Y131725D01*
X300854Y131725D01*
G37*
%LPD*%
%LPC*%
G36*
X208354Y139225D02*
X208354Y139225D01*
X205313Y140485D01*
X202985Y142813D01*
X201725Y145854D01*
X201725Y149146D01*
X202985Y152187D01*
X205313Y154515D01*
X208354Y155775D01*
X211646Y155775D01*
X214687Y154515D01*
X217015Y152187D01*
X218275Y149146D01*
X218275Y145854D01*
X217015Y142813D01*
X214687Y140485D01*
X211646Y139225D01*
X208354Y139225D01*
G37*
%LPD*%
%LPC*%
G36*
X128354Y231725D02*
X128354Y231725D01*
X125313Y232985D01*
X122985Y235313D01*
X121725Y238354D01*
X121725Y241646D01*
X122985Y244687D01*
X125313Y247015D01*
X128354Y248275D01*
X131646Y248275D01*
X134687Y247015D01*
X137015Y244687D01*
X138275Y241646D01*
X138275Y238354D01*
X137015Y235313D01*
X134687Y232985D01*
X131646Y231725D01*
X128354Y231725D01*
G37*
%LPD*%
%LPC*%
G36*
X283354Y151725D02*
X283354Y151725D01*
X280313Y152985D01*
X277985Y155313D01*
X276725Y158354D01*
X276725Y161646D01*
X277985Y164687D01*
X280313Y167015D01*
X283354Y168275D01*
X286646Y168275D01*
X289687Y167015D01*
X292015Y164687D01*
X293275Y161646D01*
X293275Y158354D01*
X292015Y155313D01*
X289687Y152985D01*
X286646Y151725D01*
X283354Y151725D01*
G37*
%LPD*%
%LPC*%
G36*
X318354Y151725D02*
X318354Y151725D01*
X315313Y152985D01*
X312985Y155313D01*
X311725Y158354D01*
X311725Y161646D01*
X312985Y164687D01*
X315313Y167015D01*
X318354Y168275D01*
X321646Y168275D01*
X324687Y167015D01*
X327015Y164687D01*
X328275Y161646D01*
X328275Y158354D01*
X327015Y155313D01*
X324687Y152985D01*
X321646Y151725D01*
X318354Y151725D01*
G37*
%LPD*%
%LPC*%
G36*
X278354Y171725D02*
X278354Y171725D01*
X275313Y172985D01*
X272985Y175313D01*
X271725Y178354D01*
X271725Y181646D01*
X272985Y184687D01*
X275313Y187015D01*
X278354Y188275D01*
X281646Y188275D01*
X284687Y187015D01*
X287015Y184687D01*
X288275Y181646D01*
X288275Y178354D01*
X287015Y175313D01*
X284687Y172985D01*
X281646Y171725D01*
X278354Y171725D01*
G37*
%LPD*%
%LPC*%
G36*
X72249Y78999D02*
X72249Y78999D01*
X72249Y86372D01*
X73650Y85916D01*
X75075Y85190D01*
X76369Y84250D01*
X77500Y83119D01*
X78440Y81825D01*
X79166Y80400D01*
X79622Y78999D01*
X72249Y78999D01*
G37*
%LPD*%
%LPC*%
G36*
X96499Y264999D02*
X96499Y264999D01*
X96499Y272372D01*
X97900Y271916D01*
X99325Y271190D01*
X100619Y270250D01*
X101750Y269119D01*
X102690Y267825D01*
X103416Y266400D01*
X103872Y264999D01*
X96499Y264999D01*
G37*
%LPD*%
%LPC*%
G36*
X59878Y78999D02*
X59878Y78999D01*
X60334Y80400D01*
X61060Y81825D01*
X62000Y83119D01*
X63131Y84250D01*
X64425Y85190D01*
X65850Y85916D01*
X67251Y86372D01*
X67251Y78999D01*
X59878Y78999D01*
G37*
%LPD*%
%LPC*%
G36*
X96499Y260001D02*
X96499Y260001D01*
X103872Y260001D01*
X103416Y258600D01*
X102690Y257175D01*
X101750Y255881D01*
X100619Y254750D01*
X99325Y253810D01*
X97900Y253084D01*
X96499Y252628D01*
X96499Y260001D01*
G37*
%LPD*%
%LPC*%
G36*
X84128Y264999D02*
X84128Y264999D01*
X84584Y266400D01*
X85310Y267825D01*
X86250Y269119D01*
X87381Y270250D01*
X88675Y271190D01*
X90100Y271916D01*
X91501Y272372D01*
X91501Y264999D01*
X84128Y264999D01*
G37*
%LPD*%
%LPC*%
G36*
X90100Y253084D02*
X90100Y253084D01*
X88675Y253810D01*
X87381Y254750D01*
X86250Y255881D01*
X85310Y257175D01*
X84584Y258600D01*
X84128Y260001D01*
X91501Y260001D01*
X91501Y252628D01*
X90100Y253084D01*
G37*
%LPD*%
%LPC*%
G36*
X65850Y67084D02*
X65850Y67084D01*
X64425Y67810D01*
X63131Y68750D01*
X62000Y69881D01*
X61060Y71175D01*
X60334Y72600D01*
X59878Y74001D01*
X67251Y74001D01*
X67251Y66628D01*
X65850Y67084D01*
G37*
%LPD*%
%LPC*%
G36*
X93999Y262499D02*
X93999Y262499D01*
X93999Y262501D01*
X94001Y262501D01*
X94001Y262499D01*
X93999Y262499D01*
G37*
%LPD*%
%LPC*%
G36*
X69749Y76499D02*
X69749Y76499D01*
X69749Y76501D01*
X69751Y76501D01*
X69751Y76499D01*
X69749Y76499D01*
G37*
%LPD*%
D10*
X455650Y203500D03*
X455650Y178100D03*
X455650Y152700D03*
X455650Y127300D03*
X455650Y101900D03*
X455650Y76500D03*
X430250Y203500D03*
X430250Y178100D03*
X430250Y152700D03*
X430250Y127300D03*
X430250Y101900D03*
X430250Y76500D03*
X44350Y76500D03*
X44350Y101900D03*
X44350Y127300D03*
X44350Y152700D03*
X44350Y178100D03*
X44350Y203500D03*
X69750Y76500D03*
X69750Y101900D03*
X69750Y127300D03*
X69750Y152700D03*
X69750Y178100D03*
X69750Y203500D03*
X94000Y262500D03*
X119400Y262500D03*
X144800Y262500D03*
X170200Y262500D03*
X195600Y262500D03*
X221000Y262500D03*
D11*
X405000Y225000D03*
X405000Y165000D03*
X405000Y185000D03*
X405000Y145000D03*
X405000Y125000D03*
X405000Y105000D03*
X405000Y85000D03*
X405000Y65000D03*
X405000Y205000D03*
X175000Y100000D03*
X174692Y114692D03*
X210000Y147500D03*
X265000Y147500D03*
X134992Y155008D03*
X133444Y191672D03*
X175000Y222500D03*
X170000Y173444D03*
X77500Y45000D03*
X172500Y32500D03*
X160000Y45000D03*
X90000Y32500D03*
X90000Y72500D03*
X77500Y60000D03*
X127500Y30000D03*
X137500Y30000D03*
X210000Y30000D03*
X220000Y30000D03*
X172500Y72500D03*
X160000Y60000D03*
X370000Y60000D03*
X355000Y75000D03*
X302500Y140000D03*
X320000Y160000D03*
X285000Y160000D03*
X285000Y120000D03*
X320000Y120000D03*
X362500Y202500D03*
X140000Y132500D03*
X122500Y147500D03*
X185000Y225000D03*
X245000Y250000D03*
X325000Y212500D03*
X347500Y212500D03*
X165000Y187500D03*
X130000Y240000D03*
X265000Y252500D03*
X292500Y267500D03*
X285000Y267500D03*
X277500Y267500D03*
X305000Y252500D03*
X317500Y242500D03*
X330000Y252500D03*
X262500Y37500D03*
X287500Y37500D03*
X297500Y37500D03*
X322500Y37500D03*
X310000Y67500D03*
X285000Y110000D03*
X300000Y180000D03*
X310000Y180000D03*
X280000Y180000D03*
X192500Y95000D03*
X240000Y187500D03*
X227500Y135000D03*
X172500Y135000D03*
X245000Y95000D03*
X245000Y210000D03*
X95000Y152500D03*
X82500Y217500D03*
X105000Y185000D03*
X95000Y112500D03*
X210000Y75000D03*
X220000Y75000D03*
X325000Y175000D03*
X335000Y137500D03*
X262500Y50000D03*
X262500Y60000D03*
X192500Y147500D03*
X107500Y170000D03*
X127500Y75000D03*
X137500Y75000D03*
X235000Y95000D03*
X175000Y232500D03*
X185000Y212500D03*
X125827Y125827D03*
X151756Y180000D03*
X132500Y145000D03*
X260944Y165000D03*
X231420Y187500D03*
X157500Y197500D03*
X120000Y197500D03*
X157500Y207500D03*
X120000Y207500D03*
X102500Y159694D03*
X57500Y165000D03*
X112500Y190000D03*
X107500Y210000D03*
M02*
