G04 EAGLE Gerber RS-274X export*
G75*
%MOMM*%
%FSLAX34Y34*%
%LPD*%
%INCopper Layer 2*%
%IPPOS*%
%AMOC8*
5,1,8,0,0,1.08239X$1,22.5*%
G01*
%ADD10C,1.524000*%
%ADD11C,0.654800*%

G36*
X178017Y88751D02*
X178017Y88751D01*
X230728Y88751D01*
X230869Y88769D01*
X231010Y88783D01*
X231025Y88789D01*
X231041Y88791D01*
X231173Y88843D01*
X231306Y88892D01*
X231319Y88902D01*
X231334Y88908D01*
X231449Y88991D01*
X231565Y89072D01*
X231576Y89085D01*
X231589Y89094D01*
X231678Y89204D01*
X231771Y89312D01*
X231778Y89326D01*
X231788Y89339D01*
X231848Y89468D01*
X231910Y89595D01*
X231913Y89611D01*
X231920Y89625D01*
X231945Y89765D01*
X231974Y89904D01*
X231973Y89920D01*
X231976Y89936D01*
X231965Y90077D01*
X231958Y90219D01*
X231954Y90234D01*
X231952Y90250D01*
X231906Y90385D01*
X231864Y90520D01*
X231857Y90531D01*
X231851Y90549D01*
X231677Y90813D01*
X231633Y90853D01*
X231612Y90883D01*
X230501Y91994D01*
X229693Y93944D01*
X229693Y96056D01*
X230501Y98006D01*
X231994Y99499D01*
X233944Y100307D01*
X236056Y100307D01*
X238006Y99499D01*
X239499Y98006D01*
X240307Y96056D01*
X240307Y93944D01*
X239499Y91994D01*
X238388Y90883D01*
X238302Y90771D01*
X238212Y90661D01*
X238205Y90647D01*
X238195Y90634D01*
X238139Y90504D01*
X238080Y90375D01*
X238077Y90359D01*
X238071Y90344D01*
X238049Y90203D01*
X238024Y90064D01*
X238025Y90048D01*
X238023Y90032D01*
X238037Y89891D01*
X238048Y89750D01*
X238053Y89734D01*
X238054Y89718D01*
X238104Y89586D01*
X238149Y89451D01*
X238158Y89437D01*
X238164Y89422D01*
X238244Y89307D01*
X238323Y89187D01*
X238335Y89176D01*
X238344Y89163D01*
X238451Y89071D01*
X238557Y88976D01*
X238571Y88968D01*
X238583Y88958D01*
X238711Y88895D01*
X238836Y88829D01*
X238849Y88827D01*
X238866Y88818D01*
X239175Y88754D01*
X239235Y88757D01*
X239272Y88751D01*
X250000Y88751D01*
X250125Y88767D01*
X250250Y88776D01*
X250281Y88787D01*
X250313Y88791D01*
X250430Y88837D01*
X250549Y88878D01*
X250576Y88896D01*
X250606Y88908D01*
X250707Y88982D01*
X250813Y89051D01*
X250834Y89075D01*
X250860Y89094D01*
X250940Y89192D01*
X251024Y89285D01*
X251039Y89314D01*
X251060Y89339D01*
X251113Y89453D01*
X251171Y89565D01*
X251175Y89590D01*
X251192Y89625D01*
X251248Y89936D01*
X251245Y89975D01*
X251249Y90000D01*
X251249Y286210D01*
X251233Y286335D01*
X251224Y286460D01*
X251213Y286491D01*
X251209Y286523D01*
X251163Y286640D01*
X251122Y286759D01*
X251104Y286786D01*
X251092Y286816D01*
X251018Y286917D01*
X250949Y287023D01*
X250925Y287044D01*
X250906Y287070D01*
X250808Y287150D01*
X250715Y287234D01*
X250686Y287249D01*
X250661Y287270D01*
X250547Y287323D01*
X250436Y287381D01*
X250410Y287385D01*
X250375Y287402D01*
X250064Y287458D01*
X250025Y287455D01*
X250000Y287459D01*
X3790Y287459D01*
X3665Y287443D01*
X3540Y287434D01*
X3509Y287423D01*
X3477Y287419D01*
X3360Y287373D01*
X3241Y287332D01*
X3214Y287314D01*
X3184Y287302D01*
X3083Y287228D01*
X2977Y287159D01*
X2956Y287135D01*
X2930Y287116D01*
X2850Y287018D01*
X2766Y286925D01*
X2751Y286896D01*
X2730Y286871D01*
X2677Y286757D01*
X2619Y286646D01*
X2615Y286620D01*
X2598Y286585D01*
X2542Y286274D01*
X2545Y286235D01*
X2541Y286210D01*
X2541Y-6210D01*
X2557Y-6335D01*
X2566Y-6460D01*
X2577Y-6491D01*
X2581Y-6523D01*
X2627Y-6640D01*
X2668Y-6759D01*
X2686Y-6786D01*
X2698Y-6816D01*
X2772Y-6917D01*
X2841Y-7023D01*
X2865Y-7044D01*
X2884Y-7070D01*
X2982Y-7150D01*
X3075Y-7234D01*
X3104Y-7249D01*
X3129Y-7270D01*
X3243Y-7323D01*
X3354Y-7381D01*
X3380Y-7385D01*
X3415Y-7402D01*
X3726Y-7458D01*
X3765Y-7455D01*
X3790Y-7459D01*
X496210Y-7459D01*
X496335Y-7443D01*
X496460Y-7434D01*
X496491Y-7423D01*
X496523Y-7419D01*
X496640Y-7373D01*
X496759Y-7332D01*
X496786Y-7314D01*
X496816Y-7302D01*
X496917Y-7228D01*
X497023Y-7159D01*
X497044Y-7135D01*
X497070Y-7116D01*
X497150Y-7018D01*
X497234Y-6925D01*
X497249Y-6896D01*
X497270Y-6871D01*
X497323Y-6757D01*
X497381Y-6646D01*
X497385Y-6620D01*
X497402Y-6585D01*
X497458Y-6274D01*
X497455Y-6235D01*
X497459Y-6210D01*
X497459Y286210D01*
X497443Y286335D01*
X497434Y286460D01*
X497423Y286491D01*
X497419Y286523D01*
X497373Y286640D01*
X497332Y286759D01*
X497314Y286786D01*
X497302Y286816D01*
X497228Y286917D01*
X497159Y287023D01*
X497135Y287044D01*
X497116Y287070D01*
X497018Y287150D01*
X496925Y287234D01*
X496896Y287249D01*
X496871Y287270D01*
X496757Y287323D01*
X496646Y287381D01*
X496620Y287385D01*
X496585Y287402D01*
X496274Y287458D01*
X496235Y287455D01*
X496210Y287459D01*
X257500Y287459D01*
X257375Y287443D01*
X257250Y287434D01*
X257219Y287423D01*
X257187Y287419D01*
X257070Y287373D01*
X256951Y287332D01*
X256924Y287314D01*
X256894Y287302D01*
X256793Y287228D01*
X256687Y287159D01*
X256666Y287135D01*
X256640Y287116D01*
X256560Y287018D01*
X256476Y286925D01*
X256461Y286896D01*
X256440Y286871D01*
X256387Y286757D01*
X256329Y286646D01*
X256325Y286620D01*
X256308Y286585D01*
X256252Y286274D01*
X256255Y286235D01*
X256251Y286210D01*
X256251Y170670D01*
X256258Y170615D01*
X256256Y170560D01*
X256278Y170459D01*
X256291Y170357D01*
X256311Y170305D01*
X256323Y170251D01*
X256369Y170160D01*
X256408Y170064D01*
X256440Y170019D01*
X256465Y169970D01*
X256533Y169893D01*
X256594Y169809D01*
X256637Y169774D01*
X256673Y169733D01*
X256759Y169675D01*
X256839Y169610D01*
X256889Y169587D01*
X256934Y169556D01*
X257031Y169521D01*
X257125Y169478D01*
X257180Y169468D01*
X257232Y169450D01*
X257334Y169440D01*
X257436Y169422D01*
X257491Y169426D01*
X257546Y169421D01*
X257609Y169435D01*
X257750Y169446D01*
X257914Y169502D01*
X257978Y169515D01*
X259888Y170307D01*
X262000Y170307D01*
X263950Y169499D01*
X265443Y168006D01*
X266251Y166056D01*
X266251Y163944D01*
X265443Y161994D01*
X263950Y160501D01*
X262000Y159693D01*
X259888Y159693D01*
X257978Y160485D01*
X257925Y160499D01*
X257875Y160522D01*
X257773Y160540D01*
X257674Y160568D01*
X257618Y160568D01*
X257564Y160578D01*
X257461Y160570D01*
X257358Y160572D01*
X257305Y160558D01*
X257250Y160554D01*
X257152Y160521D01*
X257052Y160496D01*
X257003Y160470D01*
X256951Y160453D01*
X256865Y160396D01*
X256774Y160347D01*
X256734Y160310D01*
X256687Y160279D01*
X256618Y160203D01*
X256542Y160133D01*
X256513Y160086D01*
X256476Y160045D01*
X256428Y159954D01*
X256372Y159867D01*
X256355Y159815D01*
X256329Y159766D01*
X256318Y159702D01*
X256273Y159567D01*
X256262Y159395D01*
X256251Y159330D01*
X256251Y83749D01*
X180000Y83749D01*
X179891Y83735D01*
X179781Y83730D01*
X179735Y83716D01*
X179687Y83709D01*
X179585Y83669D01*
X179480Y83636D01*
X179449Y83614D01*
X179394Y83592D01*
X179140Y83406D01*
X179132Y83397D01*
X179126Y83393D01*
X179122Y83387D01*
X179117Y83383D01*
X156983Y61249D01*
X151249Y61249D01*
X151249Y61983D01*
X178017Y88751D01*
G37*
%LPC*%
G36*
X23911Y244459D02*
X23911Y244459D01*
X17281Y247206D01*
X12206Y252281D01*
X9459Y258911D01*
X9459Y266089D01*
X12206Y272719D01*
X17281Y277794D01*
X23911Y280541D01*
X31089Y280541D01*
X37719Y277794D01*
X42794Y272719D01*
X45541Y266089D01*
X45541Y258911D01*
X42794Y252281D01*
X37719Y247206D01*
X31089Y244459D01*
X23911Y244459D01*
G37*
%LPD*%
%LPC*%
G36*
X468911Y244459D02*
X468911Y244459D01*
X462281Y247206D01*
X457206Y252281D01*
X454459Y258911D01*
X454459Y266089D01*
X457206Y272719D01*
X462281Y277794D01*
X468911Y280541D01*
X476089Y280541D01*
X482719Y277794D01*
X487794Y272719D01*
X490541Y266089D01*
X490541Y258911D01*
X487794Y252281D01*
X482719Y247206D01*
X476089Y244459D01*
X468911Y244459D01*
G37*
%LPD*%
%LPC*%
G36*
X23911Y-541D02*
X23911Y-541D01*
X17281Y2206D01*
X12206Y7281D01*
X9459Y13911D01*
X9459Y21089D01*
X12206Y27719D01*
X17281Y32794D01*
X23911Y35541D01*
X31089Y35541D01*
X37719Y32794D01*
X42794Y27719D01*
X45541Y21089D01*
X45541Y13911D01*
X42794Y7281D01*
X37719Y2206D01*
X31089Y-541D01*
X23911Y-541D01*
G37*
%LPD*%
%LPC*%
G36*
X468911Y-541D02*
X468911Y-541D01*
X462281Y2206D01*
X457206Y7281D01*
X454459Y13911D01*
X454459Y21089D01*
X457206Y27719D01*
X462281Y32794D01*
X468911Y35541D01*
X476089Y35541D01*
X482719Y32794D01*
X487794Y27719D01*
X490541Y21089D01*
X490541Y13911D01*
X487794Y7281D01*
X482719Y2206D01*
X476089Y-541D01*
X468911Y-541D01*
G37*
%LPD*%
%LPC*%
G36*
X67830Y143047D02*
X67830Y143047D01*
X64282Y144517D01*
X61567Y147232D01*
X60097Y150780D01*
X60097Y154620D01*
X61567Y158168D01*
X61859Y158460D01*
X61903Y158517D01*
X61954Y158566D01*
X61999Y158641D01*
X62052Y158710D01*
X62080Y158775D01*
X62117Y158836D01*
X62143Y158920D01*
X62177Y159000D01*
X62188Y159070D01*
X62208Y159138D01*
X62212Y159225D01*
X62225Y159311D01*
X62218Y159382D01*
X62220Y159453D01*
X62202Y159539D01*
X62193Y159625D01*
X62168Y159692D01*
X62153Y159762D01*
X62114Y159840D01*
X62084Y159921D01*
X62043Y159980D01*
X62011Y160043D01*
X61953Y160109D01*
X61904Y160180D01*
X61850Y160227D01*
X61803Y160280D01*
X61730Y160329D01*
X61664Y160386D01*
X61600Y160418D01*
X61542Y160458D01*
X61459Y160487D01*
X61381Y160525D01*
X61311Y160540D01*
X61244Y160564D01*
X61158Y160572D01*
X61072Y160589D01*
X61001Y160586D01*
X60930Y160592D01*
X60871Y160579D01*
X60757Y160574D01*
X60553Y160510D01*
X60498Y160498D01*
X58556Y159693D01*
X56444Y159693D01*
X54494Y160501D01*
X53001Y161994D01*
X52193Y163944D01*
X52193Y166056D01*
X53001Y168006D01*
X54494Y169499D01*
X56444Y170307D01*
X58556Y170307D01*
X60506Y169499D01*
X61999Y168006D01*
X62807Y166056D01*
X62807Y163944D01*
X62002Y162002D01*
X61983Y161933D01*
X61955Y161868D01*
X61942Y161782D01*
X61919Y161698D01*
X61918Y161627D01*
X61908Y161556D01*
X61916Y161469D01*
X61915Y161382D01*
X61932Y161313D01*
X61939Y161242D01*
X61970Y161160D01*
X61990Y161076D01*
X62024Y161013D01*
X62049Y160946D01*
X62098Y160875D01*
X62140Y160798D01*
X62188Y160746D01*
X62229Y160687D01*
X62295Y160630D01*
X62354Y160566D01*
X62414Y160528D01*
X62468Y160482D01*
X62546Y160443D01*
X62620Y160396D01*
X62687Y160374D01*
X62751Y160342D01*
X62836Y160325D01*
X62919Y160298D01*
X62990Y160293D01*
X63060Y160279D01*
X63147Y160283D01*
X63234Y160277D01*
X63304Y160291D01*
X63375Y160294D01*
X63459Y160320D01*
X63544Y160337D01*
X63608Y160367D01*
X63676Y160388D01*
X63726Y160423D01*
X63829Y160472D01*
X63994Y160609D01*
X64040Y160641D01*
X64282Y160883D01*
X67830Y162353D01*
X71670Y162353D01*
X75218Y160883D01*
X77933Y158168D01*
X79403Y154620D01*
X79403Y150780D01*
X77933Y147232D01*
X75218Y144517D01*
X71670Y143047D01*
X67830Y143047D01*
G37*
%LPD*%
%LPC*%
G36*
X111444Y184693D02*
X111444Y184693D01*
X109494Y185501D01*
X108001Y186994D01*
X107193Y188944D01*
X107193Y191056D01*
X108001Y193006D01*
X109494Y194499D01*
X111444Y195307D01*
X113444Y195307D01*
X113569Y195323D01*
X113694Y195332D01*
X113725Y195343D01*
X113757Y195347D01*
X113874Y195393D01*
X113993Y195434D01*
X114020Y195452D01*
X114050Y195464D01*
X114151Y195538D01*
X114257Y195607D01*
X114278Y195631D01*
X114304Y195650D01*
X114384Y195748D01*
X114468Y195841D01*
X114483Y195870D01*
X114504Y195895D01*
X114557Y196009D01*
X114615Y196120D01*
X114619Y196146D01*
X114636Y196181D01*
X114692Y196492D01*
X114689Y196531D01*
X114693Y196556D01*
X114693Y198556D01*
X115501Y200506D01*
X116612Y201617D01*
X116689Y201716D01*
X116771Y201812D01*
X116785Y201841D01*
X116805Y201866D01*
X116855Y201982D01*
X116910Y202095D01*
X116917Y202126D01*
X116929Y202156D01*
X116949Y202281D01*
X116974Y202404D01*
X116972Y202436D01*
X116977Y202468D01*
X116965Y202593D01*
X116958Y202719D01*
X116949Y202750D01*
X116946Y202782D01*
X116902Y202900D01*
X116864Y203020D01*
X116850Y203041D01*
X116836Y203078D01*
X116656Y203337D01*
X116627Y203362D01*
X116612Y203383D01*
X115501Y204494D01*
X114693Y206444D01*
X114693Y207219D01*
X114684Y207289D01*
X114685Y207360D01*
X114664Y207445D01*
X114653Y207532D01*
X114627Y207598D01*
X114610Y207667D01*
X114569Y207744D01*
X114536Y207825D01*
X114494Y207882D01*
X114461Y207945D01*
X114401Y208009D01*
X114350Y208079D01*
X114295Y208124D01*
X114246Y208176D01*
X114173Y208223D01*
X114105Y208278D01*
X114041Y208308D01*
X113981Y208347D01*
X113898Y208374D01*
X113819Y208410D01*
X113749Y208423D01*
X113681Y208445D01*
X113594Y208451D01*
X113508Y208466D01*
X113437Y208461D01*
X113366Y208465D01*
X113281Y208449D01*
X113194Y208442D01*
X113126Y208420D01*
X113056Y208406D01*
X112978Y208369D01*
X112895Y208341D01*
X112835Y208302D01*
X112771Y208271D01*
X112704Y208215D01*
X112631Y208167D01*
X112584Y208115D01*
X112529Y208069D01*
X112496Y208018D01*
X112420Y207934D01*
X112320Y207744D01*
X112290Y207697D01*
X111999Y206994D01*
X110506Y205501D01*
X108556Y204693D01*
X106444Y204693D01*
X104494Y205501D01*
X103001Y206994D01*
X102193Y208944D01*
X102193Y211056D01*
X103001Y213006D01*
X104494Y214499D01*
X106444Y215307D01*
X108556Y215307D01*
X110506Y214499D01*
X111999Y213006D01*
X112807Y211056D01*
X112807Y210281D01*
X112816Y210211D01*
X112815Y210140D01*
X112836Y210055D01*
X112847Y209968D01*
X112873Y209902D01*
X112890Y209833D01*
X112931Y209756D01*
X112964Y209675D01*
X113006Y209618D01*
X113039Y209555D01*
X113099Y209491D01*
X113150Y209421D01*
X113205Y209376D01*
X113254Y209324D01*
X113327Y209277D01*
X113395Y209222D01*
X113459Y209192D01*
X113519Y209153D01*
X113602Y209126D01*
X113681Y209090D01*
X113751Y209077D01*
X113819Y209055D01*
X113906Y209049D01*
X113992Y209034D01*
X114063Y209039D01*
X114134Y209035D01*
X114219Y209051D01*
X114306Y209058D01*
X114374Y209080D01*
X114444Y209094D01*
X114522Y209131D01*
X114605Y209159D01*
X114665Y209198D01*
X114729Y209229D01*
X114796Y209285D01*
X114869Y209333D01*
X114916Y209385D01*
X114971Y209431D01*
X115004Y209482D01*
X115080Y209566D01*
X115180Y209756D01*
X115210Y209803D01*
X115501Y210506D01*
X116994Y211999D01*
X118944Y212807D01*
X121056Y212807D01*
X123006Y211999D01*
X124499Y210506D01*
X125307Y208556D01*
X125307Y206444D01*
X124499Y204494D01*
X123388Y203383D01*
X123311Y203284D01*
X123229Y203188D01*
X123215Y203159D01*
X123195Y203134D01*
X123145Y203018D01*
X123090Y202905D01*
X123083Y202874D01*
X123071Y202844D01*
X123051Y202719D01*
X123026Y202596D01*
X123028Y202564D01*
X123023Y202532D01*
X123035Y202407D01*
X123042Y202281D01*
X123051Y202250D01*
X123054Y202218D01*
X123098Y202100D01*
X123136Y201980D01*
X123150Y201959D01*
X123164Y201922D01*
X123344Y201663D01*
X123373Y201638D01*
X123388Y201617D01*
X124499Y200506D01*
X125307Y198556D01*
X125307Y196444D01*
X124499Y194494D01*
X123006Y193001D01*
X121056Y192193D01*
X119056Y192193D01*
X118931Y192177D01*
X118806Y192168D01*
X118775Y192157D01*
X118743Y192153D01*
X118626Y192107D01*
X118507Y192066D01*
X118480Y192048D01*
X118450Y192036D01*
X118349Y191962D01*
X118243Y191893D01*
X118222Y191869D01*
X118196Y191850D01*
X118116Y191752D01*
X118032Y191659D01*
X118017Y191630D01*
X117996Y191605D01*
X117943Y191491D01*
X117885Y191380D01*
X117881Y191354D01*
X117864Y191319D01*
X117808Y191008D01*
X117811Y190969D01*
X117807Y190944D01*
X117807Y188944D01*
X116999Y186994D01*
X115506Y185501D01*
X113556Y184693D01*
X111444Y184693D01*
G37*
%LPD*%
%LPC*%
G36*
X67830Y193847D02*
X67830Y193847D01*
X64282Y195317D01*
X61567Y198032D01*
X60097Y201580D01*
X60097Y205420D01*
X61567Y208968D01*
X64282Y211683D01*
X67830Y213153D01*
X71670Y213153D01*
X75218Y211683D01*
X77933Y208968D01*
X79403Y205420D01*
X79403Y201580D01*
X77933Y198032D01*
X75218Y195317D01*
X71670Y193847D01*
X67830Y193847D01*
G37*
%LPD*%
%LPC*%
G36*
X42430Y168447D02*
X42430Y168447D01*
X38882Y169917D01*
X36167Y172632D01*
X34697Y176180D01*
X34697Y180020D01*
X36167Y183568D01*
X38882Y186283D01*
X42430Y187753D01*
X46270Y187753D01*
X49818Y186283D01*
X52533Y183568D01*
X54003Y180020D01*
X54003Y176180D01*
X52533Y172632D01*
X49818Y169917D01*
X46270Y168447D01*
X42430Y168447D01*
G37*
%LPD*%
%LPC*%
G36*
X67830Y168447D02*
X67830Y168447D01*
X64282Y169917D01*
X61567Y172632D01*
X60097Y176180D01*
X60097Y180020D01*
X61567Y183568D01*
X64282Y186283D01*
X67830Y187753D01*
X71670Y187753D01*
X75218Y186283D01*
X77933Y183568D01*
X79403Y180020D01*
X79403Y176180D01*
X77933Y172632D01*
X75218Y169917D01*
X71670Y168447D01*
X67830Y168447D01*
G37*
%LPD*%
%LPC*%
G36*
X428330Y168447D02*
X428330Y168447D01*
X424782Y169917D01*
X422067Y172632D01*
X420597Y176180D01*
X420597Y180020D01*
X422067Y183568D01*
X424782Y186283D01*
X428330Y187753D01*
X432170Y187753D01*
X435718Y186283D01*
X438433Y183568D01*
X439903Y180020D01*
X439903Y176180D01*
X438433Y172632D01*
X435718Y169917D01*
X432170Y168447D01*
X428330Y168447D01*
G37*
%LPD*%
%LPC*%
G36*
X67830Y117647D02*
X67830Y117647D01*
X64282Y119117D01*
X61567Y121832D01*
X60097Y125380D01*
X60097Y129220D01*
X61567Y132768D01*
X64282Y135483D01*
X67830Y136953D01*
X71670Y136953D01*
X75218Y135483D01*
X77933Y132768D01*
X79403Y129220D01*
X79403Y125380D01*
X77933Y121832D01*
X75218Y119117D01*
X71670Y117647D01*
X67830Y117647D01*
G37*
%LPD*%
%LPC*%
G36*
X453730Y117647D02*
X453730Y117647D01*
X450182Y119117D01*
X447467Y121832D01*
X445997Y125380D01*
X445997Y129220D01*
X447467Y132768D01*
X450182Y135483D01*
X453730Y136953D01*
X457570Y136953D01*
X461118Y135483D01*
X463833Y132768D01*
X465303Y129220D01*
X465303Y125380D01*
X463833Y121832D01*
X461118Y119117D01*
X457570Y117647D01*
X453730Y117647D01*
G37*
%LPD*%
%LPC*%
G36*
X453730Y168447D02*
X453730Y168447D01*
X450182Y169917D01*
X447467Y172632D01*
X445997Y176180D01*
X445997Y180020D01*
X447467Y183568D01*
X450182Y186283D01*
X453730Y187753D01*
X457570Y187753D01*
X461118Y186283D01*
X463833Y183568D01*
X465303Y180020D01*
X465303Y176180D01*
X463833Y172632D01*
X461118Y169917D01*
X457570Y168447D01*
X453730Y168447D01*
G37*
%LPD*%
%LPC*%
G36*
X428330Y117647D02*
X428330Y117647D01*
X424782Y119117D01*
X422067Y121832D01*
X420597Y125380D01*
X420597Y129220D01*
X422067Y132768D01*
X424782Y135483D01*
X428330Y136953D01*
X432170Y136953D01*
X435718Y135483D01*
X438433Y132768D01*
X439903Y129220D01*
X439903Y125380D01*
X438433Y121832D01*
X435718Y119117D01*
X432170Y117647D01*
X428330Y117647D01*
G37*
%LPD*%
%LPC*%
G36*
X428330Y143047D02*
X428330Y143047D01*
X424782Y144517D01*
X422067Y147232D01*
X420597Y150780D01*
X420597Y154620D01*
X422067Y158168D01*
X424782Y160883D01*
X428330Y162353D01*
X432170Y162353D01*
X435718Y160883D01*
X438433Y158168D01*
X439903Y154620D01*
X439903Y150780D01*
X438433Y147232D01*
X435718Y144517D01*
X432170Y143047D01*
X428330Y143047D01*
G37*
%LPD*%
%LPC*%
G36*
X67830Y66847D02*
X67830Y66847D01*
X64282Y68317D01*
X61567Y71032D01*
X60097Y74580D01*
X60097Y78420D01*
X61567Y81968D01*
X64282Y84683D01*
X67830Y86153D01*
X71670Y86153D01*
X75218Y84683D01*
X77933Y81968D01*
X79403Y78420D01*
X79403Y74580D01*
X77933Y71032D01*
X75218Y68317D01*
X71670Y66847D01*
X67830Y66847D01*
G37*
%LPD*%
%LPC*%
G36*
X428330Y66847D02*
X428330Y66847D01*
X424782Y68317D01*
X422067Y71032D01*
X420597Y74580D01*
X420597Y78420D01*
X422067Y81968D01*
X424782Y84683D01*
X428330Y86153D01*
X432170Y86153D01*
X435718Y84683D01*
X438433Y81968D01*
X439903Y78420D01*
X439903Y74580D01*
X438433Y71032D01*
X435718Y68317D01*
X432170Y66847D01*
X428330Y66847D01*
G37*
%LPD*%
%LPC*%
G36*
X428330Y193847D02*
X428330Y193847D01*
X424782Y195317D01*
X422067Y198032D01*
X420597Y201580D01*
X420597Y205420D01*
X422067Y208968D01*
X424782Y211683D01*
X428330Y213153D01*
X432170Y213153D01*
X435718Y211683D01*
X438433Y208968D01*
X439903Y205420D01*
X439903Y201580D01*
X438433Y198032D01*
X435718Y195317D01*
X432170Y193847D01*
X428330Y193847D01*
G37*
%LPD*%
%LPC*%
G36*
X42430Y193847D02*
X42430Y193847D01*
X38882Y195317D01*
X36167Y198032D01*
X34697Y201580D01*
X34697Y205420D01*
X36167Y208968D01*
X38882Y211683D01*
X42430Y213153D01*
X46270Y213153D01*
X49818Y211683D01*
X52533Y208968D01*
X54003Y205420D01*
X54003Y201580D01*
X52533Y198032D01*
X49818Y195317D01*
X46270Y193847D01*
X42430Y193847D01*
G37*
%LPD*%
%LPC*%
G36*
X453730Y143047D02*
X453730Y143047D01*
X450182Y144517D01*
X447467Y147232D01*
X445997Y150780D01*
X445997Y154620D01*
X447467Y158168D01*
X450182Y160883D01*
X453730Y162353D01*
X457570Y162353D01*
X461118Y160883D01*
X463833Y158168D01*
X465303Y154620D01*
X465303Y150780D01*
X463833Y147232D01*
X461118Y144517D01*
X457570Y143047D01*
X453730Y143047D01*
G37*
%LPD*%
%LPC*%
G36*
X67830Y92247D02*
X67830Y92247D01*
X64282Y93717D01*
X61567Y96432D01*
X60097Y99980D01*
X60097Y103820D01*
X61567Y107368D01*
X64282Y110083D01*
X67830Y111553D01*
X71670Y111553D01*
X75218Y110083D01*
X77933Y107368D01*
X79403Y103820D01*
X79403Y99980D01*
X77933Y96432D01*
X75218Y93717D01*
X71670Y92247D01*
X67830Y92247D01*
G37*
%LPD*%
%LPC*%
G36*
X428330Y92247D02*
X428330Y92247D01*
X424782Y93717D01*
X422067Y96432D01*
X420597Y99980D01*
X420597Y103820D01*
X422067Y107368D01*
X424782Y110083D01*
X428330Y111553D01*
X432170Y111553D01*
X435718Y110083D01*
X438433Y107368D01*
X439903Y103820D01*
X439903Y99980D01*
X438433Y96432D01*
X435718Y93717D01*
X432170Y92247D01*
X428330Y92247D01*
G37*
%LPD*%
%LPC*%
G36*
X453730Y92247D02*
X453730Y92247D01*
X450182Y93717D01*
X447467Y96432D01*
X445997Y99980D01*
X445997Y103820D01*
X447467Y107368D01*
X450182Y110083D01*
X453730Y111553D01*
X457570Y111553D01*
X461118Y110083D01*
X463833Y107368D01*
X465303Y103820D01*
X465303Y99980D01*
X463833Y96432D01*
X461118Y93717D01*
X457570Y92247D01*
X453730Y92247D01*
G37*
%LPD*%
%LPC*%
G36*
X168280Y252847D02*
X168280Y252847D01*
X164732Y254317D01*
X162017Y257032D01*
X160547Y260580D01*
X160547Y264420D01*
X162017Y267968D01*
X164732Y270683D01*
X168280Y272153D01*
X172120Y272153D01*
X175668Y270683D01*
X178383Y267968D01*
X179853Y264420D01*
X179853Y260580D01*
X178383Y257032D01*
X175668Y254317D01*
X172120Y252847D01*
X168280Y252847D01*
G37*
%LPD*%
%LPC*%
G36*
X219080Y252847D02*
X219080Y252847D01*
X215532Y254317D01*
X212817Y257032D01*
X211347Y260580D01*
X211347Y264420D01*
X212817Y267968D01*
X215532Y270683D01*
X219080Y272153D01*
X222920Y272153D01*
X226468Y270683D01*
X229183Y267968D01*
X230653Y264420D01*
X230653Y260580D01*
X229183Y257032D01*
X226468Y254317D01*
X222920Y252847D01*
X219080Y252847D01*
G37*
%LPD*%
%LPC*%
G36*
X193680Y252847D02*
X193680Y252847D01*
X190132Y254317D01*
X187417Y257032D01*
X185947Y260580D01*
X185947Y264420D01*
X187417Y267968D01*
X190132Y270683D01*
X193680Y272153D01*
X197520Y272153D01*
X201068Y270683D01*
X203783Y267968D01*
X205253Y264420D01*
X205253Y260580D01*
X203783Y257032D01*
X201068Y254317D01*
X197520Y252847D01*
X193680Y252847D01*
G37*
%LPD*%
%LPC*%
G36*
X117480Y252847D02*
X117480Y252847D01*
X113932Y254317D01*
X111217Y257032D01*
X109747Y260580D01*
X109747Y264420D01*
X111217Y267968D01*
X113932Y270683D01*
X117480Y272153D01*
X121320Y272153D01*
X124868Y270683D01*
X127583Y267968D01*
X129053Y264420D01*
X129053Y260580D01*
X127583Y257032D01*
X124868Y254317D01*
X121320Y252847D01*
X117480Y252847D01*
G37*
%LPD*%
%LPC*%
G36*
X92080Y252847D02*
X92080Y252847D01*
X88532Y254317D01*
X85817Y257032D01*
X84347Y260580D01*
X84347Y264420D01*
X85817Y267968D01*
X88532Y270683D01*
X92080Y272153D01*
X95920Y272153D01*
X99468Y270683D01*
X102183Y267968D01*
X103653Y264420D01*
X103653Y260580D01*
X102183Y257032D01*
X99468Y254317D01*
X95920Y252847D01*
X92080Y252847D01*
G37*
%LPD*%
%LPC*%
G36*
X101444Y154387D02*
X101444Y154387D01*
X99494Y155195D01*
X98001Y156688D01*
X97193Y158638D01*
X97193Y160750D01*
X98001Y162700D01*
X99494Y164193D01*
X101444Y165001D01*
X101978Y165001D01*
X102119Y165019D01*
X102261Y165033D01*
X102276Y165039D01*
X102291Y165041D01*
X102424Y165093D01*
X102557Y165143D01*
X102570Y165152D01*
X102584Y165158D01*
X102699Y165242D01*
X102816Y165323D01*
X102826Y165335D01*
X102839Y165344D01*
X102929Y165454D01*
X103021Y165562D01*
X103028Y165576D01*
X103038Y165589D01*
X103097Y165717D01*
X103160Y165845D01*
X103164Y165861D01*
X103170Y165875D01*
X103195Y166015D01*
X103224Y166154D01*
X103223Y166170D01*
X103226Y166186D01*
X103215Y166328D01*
X103208Y166469D01*
X103204Y166484D01*
X103202Y166500D01*
X103156Y166635D01*
X103114Y166770D01*
X103107Y166781D01*
X103101Y166799D01*
X103050Y166876D01*
X102193Y168944D01*
X102193Y171056D01*
X103001Y173006D01*
X104494Y174499D01*
X106444Y175307D01*
X108556Y175307D01*
X110506Y174499D01*
X111999Y173006D01*
X112807Y171056D01*
X112807Y168944D01*
X111999Y166994D01*
X110506Y165501D01*
X108556Y164693D01*
X108022Y164693D01*
X107881Y164675D01*
X107739Y164661D01*
X107724Y164655D01*
X107709Y164653D01*
X107576Y164601D01*
X107443Y164551D01*
X107430Y164542D01*
X107416Y164536D01*
X107301Y164452D01*
X107184Y164371D01*
X107174Y164359D01*
X107161Y164350D01*
X107071Y164240D01*
X106979Y164132D01*
X106972Y164118D01*
X106962Y164105D01*
X106902Y163976D01*
X106840Y163849D01*
X106836Y163833D01*
X106830Y163819D01*
X106805Y163679D01*
X106776Y163540D01*
X106777Y163524D01*
X106774Y163508D01*
X106785Y163366D01*
X106792Y163225D01*
X106796Y163210D01*
X106798Y163194D01*
X106844Y163059D01*
X106886Y162924D01*
X106893Y162913D01*
X106899Y162895D01*
X106950Y162818D01*
X107807Y160750D01*
X107807Y158638D01*
X106999Y156688D01*
X105506Y155195D01*
X103556Y154387D01*
X101444Y154387D01*
G37*
%LPD*%
%LPC*%
G36*
X131444Y139693D02*
X131444Y139693D01*
X129494Y140501D01*
X128001Y141994D01*
X127193Y143944D01*
X127193Y146056D01*
X128001Y148006D01*
X129494Y149499D01*
X130243Y149809D01*
X130291Y149837D01*
X130343Y149856D01*
X130428Y149915D01*
X130517Y149966D01*
X130557Y150004D01*
X130602Y150036D01*
X130669Y150114D01*
X130743Y150186D01*
X130772Y150233D01*
X130808Y150275D01*
X130853Y150368D01*
X130907Y150456D01*
X130922Y150509D01*
X130947Y150558D01*
X130968Y150659D01*
X130997Y150758D01*
X131000Y150813D01*
X131011Y150867D01*
X131006Y150970D01*
X131010Y151073D01*
X130998Y151127D01*
X130995Y151182D01*
X130964Y151281D01*
X130942Y151381D01*
X130917Y151431D01*
X130901Y151483D01*
X130864Y151537D01*
X130800Y151663D01*
X130686Y151793D01*
X130648Y151847D01*
X130493Y152002D01*
X129685Y153952D01*
X129685Y156063D01*
X130493Y158014D01*
X131986Y159507D01*
X133937Y160315D01*
X136048Y160315D01*
X137998Y159507D01*
X139491Y158014D01*
X140299Y156063D01*
X140299Y153952D01*
X139491Y152002D01*
X137998Y150509D01*
X137249Y150199D01*
X137201Y150171D01*
X137149Y150152D01*
X137065Y150093D01*
X136975Y150042D01*
X136936Y150004D01*
X136890Y149972D01*
X136823Y149894D01*
X136749Y149822D01*
X136721Y149775D01*
X136685Y149733D01*
X136639Y149640D01*
X136586Y149552D01*
X136570Y149499D01*
X136545Y149450D01*
X136525Y149349D01*
X136495Y149250D01*
X136493Y149195D01*
X136482Y149141D01*
X136487Y149038D01*
X136483Y148935D01*
X136494Y148881D01*
X136497Y148826D01*
X136528Y148727D01*
X136550Y148626D01*
X136575Y148577D01*
X136591Y148524D01*
X136628Y148471D01*
X136692Y148345D01*
X136806Y148215D01*
X136844Y148161D01*
X136999Y148006D01*
X137807Y146056D01*
X137807Y143944D01*
X136999Y141994D01*
X135506Y140501D01*
X133556Y139693D01*
X131444Y139693D01*
G37*
%LPD*%
%LPC*%
G36*
X126444Y69693D02*
X126444Y69693D01*
X124494Y70501D01*
X123001Y71994D01*
X122193Y73944D01*
X122193Y76056D01*
X123001Y78006D01*
X124494Y79499D01*
X126444Y80307D01*
X128556Y80307D01*
X130506Y79499D01*
X131617Y78388D01*
X131716Y78311D01*
X131812Y78229D01*
X131841Y78215D01*
X131866Y78195D01*
X131982Y78145D01*
X132095Y78090D01*
X132126Y78083D01*
X132156Y78071D01*
X132281Y78051D01*
X132404Y78026D01*
X132436Y78028D01*
X132468Y78023D01*
X132593Y78035D01*
X132719Y78042D01*
X132750Y78051D01*
X132782Y78054D01*
X132900Y78098D01*
X133020Y78136D01*
X133041Y78150D01*
X133078Y78164D01*
X133337Y78344D01*
X133362Y78373D01*
X133383Y78388D01*
X134494Y79499D01*
X136444Y80307D01*
X138556Y80307D01*
X140506Y79499D01*
X141999Y78006D01*
X142807Y76056D01*
X142807Y73944D01*
X141999Y71994D01*
X140506Y70501D01*
X138556Y69693D01*
X136444Y69693D01*
X134494Y70501D01*
X133383Y71612D01*
X133284Y71689D01*
X133188Y71771D01*
X133159Y71785D01*
X133134Y71805D01*
X133018Y71855D01*
X132905Y71910D01*
X132874Y71917D01*
X132844Y71929D01*
X132719Y71949D01*
X132596Y71974D01*
X132564Y71972D01*
X132532Y71977D01*
X132407Y71965D01*
X132281Y71958D01*
X132250Y71949D01*
X132218Y71946D01*
X132100Y71902D01*
X131980Y71864D01*
X131959Y71850D01*
X131922Y71836D01*
X131663Y71656D01*
X131638Y71627D01*
X131617Y71612D01*
X130506Y70501D01*
X128556Y69693D01*
X126444Y69693D01*
G37*
%LPD*%
%LPC*%
G36*
X208944Y69693D02*
X208944Y69693D01*
X206994Y70501D01*
X205501Y71994D01*
X204693Y73944D01*
X204693Y76056D01*
X205501Y78006D01*
X206994Y79499D01*
X208944Y80307D01*
X211056Y80307D01*
X213006Y79499D01*
X214117Y78388D01*
X214216Y78311D01*
X214312Y78229D01*
X214341Y78215D01*
X214366Y78195D01*
X214482Y78145D01*
X214595Y78090D01*
X214626Y78083D01*
X214656Y78071D01*
X214781Y78051D01*
X214904Y78026D01*
X214936Y78028D01*
X214968Y78023D01*
X215093Y78035D01*
X215219Y78042D01*
X215250Y78051D01*
X215282Y78054D01*
X215400Y78098D01*
X215520Y78136D01*
X215541Y78150D01*
X215578Y78164D01*
X215837Y78344D01*
X215862Y78373D01*
X215883Y78388D01*
X216994Y79499D01*
X218944Y80307D01*
X221056Y80307D01*
X223006Y79499D01*
X224499Y78006D01*
X225307Y76056D01*
X225307Y73944D01*
X224499Y71994D01*
X223006Y70501D01*
X221056Y69693D01*
X218944Y69693D01*
X216994Y70501D01*
X215883Y71612D01*
X215784Y71689D01*
X215688Y71771D01*
X215659Y71785D01*
X215634Y71805D01*
X215518Y71855D01*
X215405Y71910D01*
X215374Y71917D01*
X215344Y71929D01*
X215219Y71949D01*
X215096Y71974D01*
X215064Y71972D01*
X215032Y71977D01*
X214907Y71965D01*
X214781Y71958D01*
X214750Y71949D01*
X214718Y71946D01*
X214600Y71902D01*
X214480Y71864D01*
X214459Y71850D01*
X214422Y71836D01*
X214163Y71656D01*
X214138Y71627D01*
X214117Y71612D01*
X213006Y70501D01*
X211056Y69693D01*
X208944Y69693D01*
G37*
%LPD*%
%LPC*%
G36*
X156444Y192193D02*
X156444Y192193D01*
X154494Y193001D01*
X153001Y194494D01*
X152193Y196444D01*
X152193Y198556D01*
X153001Y200506D01*
X154112Y201617D01*
X154189Y201716D01*
X154271Y201812D01*
X154285Y201841D01*
X154305Y201866D01*
X154355Y201982D01*
X154410Y202095D01*
X154417Y202126D01*
X154429Y202156D01*
X154449Y202281D01*
X154474Y202404D01*
X154472Y202436D01*
X154477Y202468D01*
X154465Y202593D01*
X154458Y202719D01*
X154449Y202750D01*
X154446Y202782D01*
X154402Y202900D01*
X154364Y203020D01*
X154350Y203041D01*
X154336Y203078D01*
X154156Y203337D01*
X154127Y203362D01*
X154112Y203383D01*
X153001Y204494D01*
X152193Y206444D01*
X152193Y208556D01*
X153001Y210506D01*
X154494Y211999D01*
X156444Y212807D01*
X158556Y212807D01*
X160506Y211999D01*
X161999Y210506D01*
X162807Y208556D01*
X162807Y206444D01*
X161999Y204494D01*
X160888Y203383D01*
X160811Y203284D01*
X160729Y203188D01*
X160715Y203159D01*
X160695Y203134D01*
X160645Y203018D01*
X160590Y202905D01*
X160583Y202874D01*
X160571Y202844D01*
X160551Y202719D01*
X160526Y202596D01*
X160528Y202564D01*
X160523Y202532D01*
X160535Y202407D01*
X160542Y202281D01*
X160551Y202250D01*
X160554Y202218D01*
X160598Y202100D01*
X160636Y201980D01*
X160650Y201959D01*
X160664Y201922D01*
X160844Y201663D01*
X160873Y201638D01*
X160888Y201617D01*
X161999Y200506D01*
X162807Y198556D01*
X162807Y196444D01*
X161999Y194494D01*
X160506Y193001D01*
X158556Y192193D01*
X156444Y192193D01*
G37*
%LPD*%
%LPC*%
G36*
X173944Y217193D02*
X173944Y217193D01*
X171994Y218001D01*
X170501Y219494D01*
X169693Y221444D01*
X169693Y223556D01*
X170501Y225506D01*
X171612Y226617D01*
X171689Y226716D01*
X171771Y226812D01*
X171785Y226841D01*
X171805Y226866D01*
X171855Y226982D01*
X171910Y227095D01*
X171917Y227126D01*
X171929Y227156D01*
X171949Y227281D01*
X171974Y227404D01*
X171972Y227436D01*
X171977Y227468D01*
X171965Y227593D01*
X171958Y227719D01*
X171949Y227750D01*
X171946Y227782D01*
X171902Y227900D01*
X171864Y228020D01*
X171850Y228041D01*
X171836Y228078D01*
X171656Y228337D01*
X171627Y228362D01*
X171612Y228383D01*
X170501Y229494D01*
X169693Y231444D01*
X169693Y233556D01*
X170501Y235506D01*
X171994Y236999D01*
X173944Y237807D01*
X176056Y237807D01*
X178006Y236999D01*
X179499Y235506D01*
X180307Y233556D01*
X180307Y231444D01*
X179499Y229494D01*
X178388Y228383D01*
X178311Y228284D01*
X178229Y228188D01*
X178215Y228159D01*
X178195Y228134D01*
X178145Y228018D01*
X178090Y227905D01*
X178083Y227874D01*
X178071Y227844D01*
X178051Y227719D01*
X178026Y227596D01*
X178028Y227564D01*
X178023Y227532D01*
X178035Y227407D01*
X178042Y227281D01*
X178051Y227250D01*
X178054Y227218D01*
X178098Y227100D01*
X178136Y226980D01*
X178150Y226959D01*
X178164Y226922D01*
X178344Y226663D01*
X178373Y226638D01*
X178388Y226617D01*
X179499Y225506D01*
X180307Y223556D01*
X180307Y221444D01*
X179499Y219494D01*
X178006Y218001D01*
X176056Y217193D01*
X173944Y217193D01*
G37*
%LPD*%
%LPC*%
G36*
X261444Y44693D02*
X261444Y44693D01*
X259494Y45501D01*
X258001Y46994D01*
X257193Y48944D01*
X257193Y51056D01*
X258001Y53006D01*
X259112Y54117D01*
X259189Y54216D01*
X259271Y54312D01*
X259285Y54341D01*
X259305Y54366D01*
X259355Y54482D01*
X259410Y54595D01*
X259417Y54626D01*
X259429Y54656D01*
X259449Y54781D01*
X259474Y54904D01*
X259472Y54936D01*
X259477Y54968D01*
X259465Y55093D01*
X259458Y55219D01*
X259450Y55247D01*
X259449Y55254D01*
X259448Y55257D01*
X259446Y55282D01*
X259402Y55400D01*
X259364Y55520D01*
X259353Y55537D01*
X259347Y55552D01*
X259343Y55559D01*
X259336Y55578D01*
X259235Y55723D01*
X259174Y55816D01*
X259165Y55824D01*
X259156Y55837D01*
X259127Y55862D01*
X259112Y55883D01*
X258001Y56994D01*
X257193Y58944D01*
X257193Y61056D01*
X258001Y63006D01*
X259494Y64499D01*
X261444Y65307D01*
X263556Y65307D01*
X265506Y64499D01*
X266999Y63006D01*
X267807Y61056D01*
X267807Y58944D01*
X266999Y56994D01*
X265888Y55883D01*
X265811Y55784D01*
X265729Y55688D01*
X265721Y55672D01*
X265715Y55665D01*
X265709Y55652D01*
X265695Y55634D01*
X265645Y55518D01*
X265590Y55405D01*
X265585Y55382D01*
X265583Y55378D01*
X265582Y55370D01*
X265571Y55344D01*
X265551Y55219D01*
X265526Y55096D01*
X265527Y55068D01*
X265527Y55067D01*
X265528Y55064D01*
X265523Y55032D01*
X265535Y54907D01*
X265542Y54781D01*
X265551Y54750D01*
X265554Y54718D01*
X265598Y54600D01*
X265636Y54480D01*
X265650Y54459D01*
X265664Y54422D01*
X265844Y54163D01*
X265873Y54138D01*
X265888Y54117D01*
X266999Y53006D01*
X267807Y51056D01*
X267807Y48944D01*
X266999Y46994D01*
X265506Y45501D01*
X263556Y44693D01*
X261444Y44693D01*
G37*
%LPD*%
%LPC*%
G36*
X263944Y142193D02*
X263944Y142193D01*
X261994Y143001D01*
X260501Y144494D01*
X259693Y146444D01*
X259693Y148556D01*
X260501Y150506D01*
X261994Y151999D01*
X263944Y152807D01*
X266056Y152807D01*
X268006Y151999D01*
X269499Y150506D01*
X270307Y148556D01*
X270307Y146444D01*
X269499Y144494D01*
X268006Y143001D01*
X266056Y142193D01*
X263944Y142193D01*
G37*
%LPD*%
%LPC*%
G36*
X403944Y139693D02*
X403944Y139693D01*
X401994Y140501D01*
X400501Y141994D01*
X399693Y143944D01*
X399693Y146056D01*
X400501Y148006D01*
X401994Y149499D01*
X403944Y150307D01*
X406056Y150307D01*
X408006Y149499D01*
X409499Y148006D01*
X410307Y146056D01*
X410307Y143944D01*
X409499Y141994D01*
X408006Y140501D01*
X406056Y139693D01*
X403944Y139693D01*
G37*
%LPD*%
%LPC*%
G36*
X403944Y79693D02*
X403944Y79693D01*
X401994Y80501D01*
X400501Y81994D01*
X399693Y83944D01*
X399693Y86056D01*
X400501Y88006D01*
X401994Y89499D01*
X403944Y90307D01*
X406056Y90307D01*
X408006Y89499D01*
X409499Y88006D01*
X410307Y86056D01*
X410307Y83944D01*
X409499Y81994D01*
X408006Y80501D01*
X406056Y79693D01*
X403944Y79693D01*
G37*
%LPD*%
%LPC*%
G36*
X208944Y142193D02*
X208944Y142193D01*
X206994Y143001D01*
X205501Y144494D01*
X204693Y146444D01*
X204693Y148556D01*
X205501Y150506D01*
X206994Y151999D01*
X208944Y152807D01*
X211056Y152807D01*
X213006Y151999D01*
X214499Y150506D01*
X215307Y148556D01*
X215307Y146444D01*
X214499Y144494D01*
X213006Y143001D01*
X211056Y142193D01*
X208944Y142193D01*
G37*
%LPD*%
%LPC*%
G36*
X333944Y132193D02*
X333944Y132193D01*
X331994Y133001D01*
X330501Y134494D01*
X329693Y136444D01*
X329693Y138556D01*
X330501Y140506D01*
X331994Y141999D01*
X333944Y142807D01*
X336056Y142807D01*
X338006Y141999D01*
X339499Y140506D01*
X340307Y138556D01*
X340307Y136444D01*
X339499Y134494D01*
X338006Y133001D01*
X336056Y132193D01*
X333944Y132193D01*
G37*
%LPD*%
%LPC*%
G36*
X124772Y120520D02*
X124772Y120520D01*
X122821Y121328D01*
X121328Y122821D01*
X120521Y124772D01*
X120521Y126883D01*
X121328Y128833D01*
X122821Y130326D01*
X124772Y131134D01*
X126883Y131134D01*
X128833Y130326D01*
X130326Y128833D01*
X131134Y126883D01*
X131134Y124772D01*
X130326Y122821D01*
X128833Y121328D01*
X126883Y120520D01*
X124772Y120520D01*
G37*
%LPD*%
%LPC*%
G36*
X403944Y119693D02*
X403944Y119693D01*
X401994Y120501D01*
X400501Y121994D01*
X399693Y123944D01*
X399693Y126056D01*
X400501Y128006D01*
X401994Y129499D01*
X403944Y130307D01*
X406056Y130307D01*
X408006Y129499D01*
X409499Y128006D01*
X410307Y126056D01*
X410307Y123944D01*
X409499Y121994D01*
X408006Y120501D01*
X406056Y119693D01*
X403944Y119693D01*
G37*
%LPD*%
%LPC*%
G36*
X173636Y109385D02*
X173636Y109385D01*
X171686Y110193D01*
X170193Y111686D01*
X169385Y113636D01*
X169385Y115747D01*
X170193Y117698D01*
X171686Y119191D01*
X173636Y119999D01*
X175747Y119999D01*
X177698Y119191D01*
X179191Y117698D01*
X179999Y115747D01*
X179999Y113636D01*
X179191Y111686D01*
X177698Y110193D01*
X175747Y109385D01*
X173636Y109385D01*
G37*
%LPD*%
%LPC*%
G36*
X403944Y99693D02*
X403944Y99693D01*
X401994Y100501D01*
X400501Y101994D01*
X399693Y103944D01*
X399693Y106056D01*
X400501Y108006D01*
X401994Y109499D01*
X403944Y110307D01*
X406056Y110307D01*
X408006Y109499D01*
X409499Y108006D01*
X410307Y106056D01*
X410307Y103944D01*
X409499Y101994D01*
X408006Y100501D01*
X406056Y99693D01*
X403944Y99693D01*
G37*
%LPD*%
%LPC*%
G36*
X173944Y94693D02*
X173944Y94693D01*
X171994Y95501D01*
X170501Y96994D01*
X169693Y98944D01*
X169693Y101056D01*
X170501Y103006D01*
X171994Y104499D01*
X173944Y105307D01*
X176056Y105307D01*
X178006Y104499D01*
X179499Y103006D01*
X180307Y101056D01*
X180307Y98944D01*
X179499Y96994D01*
X178006Y95501D01*
X176056Y94693D01*
X173944Y94693D01*
G37*
%LPD*%
%LPC*%
G36*
X403944Y59693D02*
X403944Y59693D01*
X401994Y60501D01*
X400501Y61994D01*
X399693Y63944D01*
X399693Y66056D01*
X400501Y68006D01*
X401994Y69499D01*
X403944Y70307D01*
X406056Y70307D01*
X408006Y69499D01*
X409499Y68006D01*
X410307Y66056D01*
X410307Y63944D01*
X409499Y61994D01*
X408006Y60501D01*
X406056Y59693D01*
X403944Y59693D01*
G37*
%LPD*%
%LPC*%
G36*
X88944Y27193D02*
X88944Y27193D01*
X86994Y28001D01*
X85501Y29494D01*
X84693Y31444D01*
X84693Y33556D01*
X85501Y35506D01*
X86994Y36999D01*
X88944Y37807D01*
X91056Y37807D01*
X93006Y36999D01*
X94499Y35506D01*
X95307Y33556D01*
X95307Y31444D01*
X94499Y29494D01*
X93006Y28001D01*
X91056Y27193D01*
X88944Y27193D01*
G37*
%LPD*%
%LPC*%
G36*
X403944Y219693D02*
X403944Y219693D01*
X401994Y220501D01*
X400501Y221994D01*
X399693Y223944D01*
X399693Y226056D01*
X400501Y228006D01*
X401994Y229499D01*
X403944Y230307D01*
X406056Y230307D01*
X408006Y229499D01*
X409499Y228006D01*
X410307Y226056D01*
X410307Y223944D01*
X409499Y221994D01*
X408006Y220501D01*
X406056Y219693D01*
X403944Y219693D01*
G37*
%LPD*%
%LPC*%
G36*
X183944Y207193D02*
X183944Y207193D01*
X181994Y208001D01*
X180501Y209494D01*
X179693Y211444D01*
X179693Y213556D01*
X180501Y215506D01*
X181994Y216999D01*
X183944Y217807D01*
X186056Y217807D01*
X188006Y216999D01*
X189499Y215506D01*
X190307Y213556D01*
X190307Y211444D01*
X189499Y209494D01*
X188006Y208001D01*
X186056Y207193D01*
X183944Y207193D01*
G37*
%LPD*%
%LPC*%
G36*
X171444Y27193D02*
X171444Y27193D01*
X169494Y28001D01*
X168001Y29494D01*
X167193Y31444D01*
X167193Y33556D01*
X168001Y35506D01*
X169494Y36999D01*
X171444Y37807D01*
X173556Y37807D01*
X175506Y36999D01*
X176999Y35506D01*
X177807Y33556D01*
X177807Y31444D01*
X176999Y29494D01*
X175506Y28001D01*
X173556Y27193D01*
X171444Y27193D01*
G37*
%LPD*%
%LPC*%
G36*
X403944Y199693D02*
X403944Y199693D01*
X401994Y200501D01*
X400501Y201994D01*
X399693Y203944D01*
X399693Y206056D01*
X400501Y208006D01*
X401994Y209499D01*
X403944Y210307D01*
X406056Y210307D01*
X408006Y209499D01*
X409499Y208006D01*
X410307Y206056D01*
X410307Y203944D01*
X409499Y201994D01*
X408006Y200501D01*
X406056Y199693D01*
X403944Y199693D01*
G37*
%LPD*%
%LPC*%
G36*
X76444Y39693D02*
X76444Y39693D01*
X74494Y40501D01*
X73001Y41994D01*
X72193Y43944D01*
X72193Y46056D01*
X73001Y48006D01*
X74494Y49499D01*
X76444Y50307D01*
X78556Y50307D01*
X80506Y49499D01*
X81999Y48006D01*
X82807Y46056D01*
X82807Y43944D01*
X81999Y41994D01*
X80506Y40501D01*
X78556Y39693D01*
X76444Y39693D01*
G37*
%LPD*%
%LPC*%
G36*
X158944Y39693D02*
X158944Y39693D01*
X156994Y40501D01*
X155501Y41994D01*
X154693Y43944D01*
X154693Y46056D01*
X155501Y48006D01*
X156994Y49499D01*
X158944Y50307D01*
X161056Y50307D01*
X163006Y49499D01*
X164499Y48006D01*
X165307Y46056D01*
X165307Y43944D01*
X164499Y41994D01*
X163006Y40501D01*
X161056Y39693D01*
X158944Y39693D01*
G37*
%LPD*%
%LPC*%
G36*
X132388Y186366D02*
X132388Y186366D01*
X130438Y187173D01*
X128945Y188666D01*
X128137Y190617D01*
X128137Y192728D01*
X128945Y194678D01*
X130438Y196171D01*
X132388Y196979D01*
X134500Y196979D01*
X136450Y196171D01*
X137943Y194678D01*
X138751Y192728D01*
X138751Y190617D01*
X137943Y188666D01*
X136450Y187173D01*
X134500Y186366D01*
X132388Y186366D01*
G37*
%LPD*%
%LPC*%
G36*
X230364Y182193D02*
X230364Y182193D01*
X228414Y183001D01*
X226921Y184494D01*
X226113Y186444D01*
X226113Y188556D01*
X226921Y190506D01*
X228414Y191999D01*
X230364Y192807D01*
X232476Y192807D01*
X234426Y191999D01*
X235919Y190506D01*
X236727Y188556D01*
X236727Y186444D01*
X235919Y184494D01*
X234426Y183001D01*
X232476Y182193D01*
X230364Y182193D01*
G37*
%LPD*%
%LPC*%
G36*
X150700Y174693D02*
X150700Y174693D01*
X148750Y175501D01*
X147257Y176994D01*
X146449Y178944D01*
X146449Y181056D01*
X147257Y183006D01*
X148750Y184499D01*
X150700Y185307D01*
X152812Y185307D01*
X154762Y184499D01*
X156255Y183006D01*
X157063Y181056D01*
X157063Y178944D01*
X156255Y176994D01*
X154762Y175501D01*
X152812Y174693D01*
X150700Y174693D01*
G37*
%LPD*%
%LPC*%
G36*
X323944Y169693D02*
X323944Y169693D01*
X321994Y170501D01*
X320501Y171994D01*
X319693Y173944D01*
X319693Y176056D01*
X320501Y178006D01*
X321994Y179499D01*
X323944Y180307D01*
X326056Y180307D01*
X328006Y179499D01*
X329499Y178006D01*
X330307Y176056D01*
X330307Y173944D01*
X329499Y171994D01*
X328006Y170501D01*
X326056Y169693D01*
X323944Y169693D01*
G37*
%LPD*%
%LPC*%
G36*
X168944Y168137D02*
X168944Y168137D01*
X166994Y168945D01*
X165501Y170438D01*
X164693Y172388D01*
X164693Y174500D01*
X165501Y176450D01*
X166994Y177943D01*
X168944Y178751D01*
X171056Y178751D01*
X173006Y177943D01*
X174499Y176450D01*
X175307Y174500D01*
X175307Y172388D01*
X174499Y170438D01*
X173006Y168945D01*
X171056Y168137D01*
X168944Y168137D01*
G37*
%LPD*%
%LPC*%
G36*
X403944Y159693D02*
X403944Y159693D01*
X401994Y160501D01*
X400501Y161994D01*
X399693Y163944D01*
X399693Y166056D01*
X400501Y168006D01*
X401994Y169499D01*
X403944Y170307D01*
X406056Y170307D01*
X408006Y169499D01*
X409499Y168006D01*
X410307Y166056D01*
X410307Y163944D01*
X409499Y161994D01*
X408006Y160501D01*
X406056Y159693D01*
X403944Y159693D01*
G37*
%LPD*%
%LPC*%
G36*
X191444Y142193D02*
X191444Y142193D01*
X189494Y143001D01*
X188001Y144494D01*
X187193Y146444D01*
X187193Y148556D01*
X188001Y150506D01*
X189494Y151999D01*
X191444Y152807D01*
X193556Y152807D01*
X195506Y151999D01*
X196999Y150506D01*
X197807Y148556D01*
X197807Y146444D01*
X196999Y144494D01*
X195506Y143001D01*
X193556Y142193D01*
X191444Y142193D01*
G37*
%LPD*%
%LPC*%
G36*
X403944Y179693D02*
X403944Y179693D01*
X401994Y180501D01*
X400501Y181994D01*
X399693Y183944D01*
X399693Y186056D01*
X400501Y188006D01*
X401994Y189499D01*
X403944Y190307D01*
X406056Y190307D01*
X408006Y189499D01*
X409499Y188006D01*
X410307Y186056D01*
X410307Y183944D01*
X409499Y181994D01*
X408006Y180501D01*
X406056Y179693D01*
X403944Y179693D01*
G37*
%LPD*%
%LPC*%
G36*
X46849Y78999D02*
X46849Y78999D01*
X46849Y86372D01*
X48250Y85916D01*
X49675Y85190D01*
X50969Y84250D01*
X52100Y83119D01*
X53040Y81825D01*
X53766Y80400D01*
X54222Y78999D01*
X46849Y78999D01*
G37*
%LPD*%
%LPC*%
G36*
X458149Y78999D02*
X458149Y78999D01*
X458149Y86372D01*
X459550Y85916D01*
X460975Y85190D01*
X462269Y84250D01*
X463400Y83119D01*
X464340Y81825D01*
X465066Y80400D01*
X465522Y78999D01*
X458149Y78999D01*
G37*
%LPD*%
%LPC*%
G36*
X46849Y104399D02*
X46849Y104399D01*
X46849Y111772D01*
X48250Y111316D01*
X49675Y110590D01*
X50969Y109650D01*
X52100Y108519D01*
X53040Y107225D01*
X53766Y105800D01*
X54222Y104399D01*
X46849Y104399D01*
G37*
%LPD*%
%LPC*%
G36*
X147299Y264999D02*
X147299Y264999D01*
X147299Y272372D01*
X148700Y271916D01*
X150125Y271190D01*
X151419Y270250D01*
X152550Y269119D01*
X153490Y267825D01*
X154216Y266400D01*
X154672Y264999D01*
X147299Y264999D01*
G37*
%LPD*%
%LPC*%
G36*
X46849Y155199D02*
X46849Y155199D01*
X46849Y162572D01*
X48250Y162116D01*
X49675Y161390D01*
X50969Y160450D01*
X52100Y159319D01*
X53040Y158025D01*
X53766Y156600D01*
X54222Y155199D01*
X46849Y155199D01*
G37*
%LPD*%
%LPC*%
G36*
X458149Y205999D02*
X458149Y205999D01*
X458149Y213372D01*
X459550Y212916D01*
X460975Y212190D01*
X462269Y211250D01*
X463400Y210119D01*
X464340Y208825D01*
X465066Y207400D01*
X465522Y205999D01*
X458149Y205999D01*
G37*
%LPD*%
%LPC*%
G36*
X46849Y129799D02*
X46849Y129799D01*
X46849Y137172D01*
X48250Y136716D01*
X49675Y135990D01*
X50969Y135050D01*
X52100Y133919D01*
X53040Y132625D01*
X53766Y131200D01*
X54222Y129799D01*
X46849Y129799D01*
G37*
%LPD*%
%LPC*%
G36*
X34478Y78999D02*
X34478Y78999D01*
X34934Y80400D01*
X35660Y81825D01*
X36600Y83119D01*
X37731Y84250D01*
X39025Y85190D01*
X40450Y85916D01*
X41851Y86372D01*
X41851Y78999D01*
X34478Y78999D01*
G37*
%LPD*%
%LPC*%
G36*
X445778Y78999D02*
X445778Y78999D01*
X446234Y80400D01*
X446960Y81825D01*
X447900Y83119D01*
X449031Y84250D01*
X450325Y85190D01*
X451750Y85916D01*
X453151Y86372D01*
X453151Y78999D01*
X445778Y78999D01*
G37*
%LPD*%
%LPC*%
G36*
X458149Y74001D02*
X458149Y74001D01*
X465522Y74001D01*
X465066Y72600D01*
X464340Y71175D01*
X463400Y69881D01*
X462269Y68750D01*
X460975Y67810D01*
X459550Y67084D01*
X458149Y66628D01*
X458149Y74001D01*
G37*
%LPD*%
%LPC*%
G36*
X46849Y74001D02*
X46849Y74001D01*
X54222Y74001D01*
X53766Y72600D01*
X53040Y71175D01*
X52100Y69881D01*
X50969Y68750D01*
X49675Y67810D01*
X48250Y67084D01*
X46849Y66628D01*
X46849Y74001D01*
G37*
%LPD*%
%LPC*%
G36*
X134928Y264999D02*
X134928Y264999D01*
X135384Y266400D01*
X136110Y267825D01*
X137050Y269119D01*
X138181Y270250D01*
X139475Y271190D01*
X140900Y271916D01*
X142301Y272372D01*
X142301Y264999D01*
X134928Y264999D01*
G37*
%LPD*%
%LPC*%
G36*
X46849Y99401D02*
X46849Y99401D01*
X54222Y99401D01*
X53766Y98000D01*
X53040Y96575D01*
X52100Y95281D01*
X50969Y94150D01*
X49675Y93210D01*
X48250Y92484D01*
X46849Y92028D01*
X46849Y99401D01*
G37*
%LPD*%
%LPC*%
G36*
X147299Y260001D02*
X147299Y260001D01*
X154672Y260001D01*
X154216Y258600D01*
X153490Y257175D01*
X152550Y255881D01*
X151419Y254750D01*
X150125Y253810D01*
X148700Y253084D01*
X147299Y252628D01*
X147299Y260001D01*
G37*
%LPD*%
%LPC*%
G36*
X34478Y104399D02*
X34478Y104399D01*
X34934Y105800D01*
X35660Y107225D01*
X36600Y108519D01*
X37731Y109650D01*
X39025Y110590D01*
X40450Y111316D01*
X41851Y111772D01*
X41851Y104399D01*
X34478Y104399D01*
G37*
%LPD*%
%LPC*%
G36*
X46849Y124801D02*
X46849Y124801D01*
X54222Y124801D01*
X53766Y123400D01*
X53040Y121975D01*
X52100Y120681D01*
X50969Y119550D01*
X49675Y118610D01*
X48250Y117884D01*
X46849Y117428D01*
X46849Y124801D01*
G37*
%LPD*%
%LPC*%
G36*
X445778Y205999D02*
X445778Y205999D01*
X446234Y207400D01*
X446960Y208825D01*
X447900Y210119D01*
X449031Y211250D01*
X450325Y212190D01*
X451750Y212916D01*
X453151Y213372D01*
X453151Y205999D01*
X445778Y205999D01*
G37*
%LPD*%
%LPC*%
G36*
X34478Y129799D02*
X34478Y129799D01*
X34934Y131200D01*
X35660Y132625D01*
X36600Y133919D01*
X37731Y135050D01*
X39025Y135990D01*
X40450Y136716D01*
X41851Y137172D01*
X41851Y129799D01*
X34478Y129799D01*
G37*
%LPD*%
%LPC*%
G36*
X46849Y150201D02*
X46849Y150201D01*
X54222Y150201D01*
X53766Y148800D01*
X53040Y147375D01*
X52100Y146081D01*
X50969Y144950D01*
X49675Y144010D01*
X48250Y143284D01*
X46849Y142828D01*
X46849Y150201D01*
G37*
%LPD*%
%LPC*%
G36*
X458149Y201001D02*
X458149Y201001D01*
X465522Y201001D01*
X465066Y199600D01*
X464340Y198175D01*
X463400Y196881D01*
X462269Y195750D01*
X460975Y194810D01*
X459550Y194084D01*
X458149Y193628D01*
X458149Y201001D01*
G37*
%LPD*%
%LPC*%
G36*
X34478Y155199D02*
X34478Y155199D01*
X34934Y156600D01*
X35660Y158025D01*
X36600Y159319D01*
X37731Y160450D01*
X39025Y161390D01*
X40450Y162116D01*
X41851Y162572D01*
X41851Y155199D01*
X34478Y155199D01*
G37*
%LPD*%
%LPC*%
G36*
X40450Y143284D02*
X40450Y143284D01*
X39025Y144010D01*
X37731Y144950D01*
X36600Y146081D01*
X35660Y147375D01*
X34934Y148800D01*
X34478Y150201D01*
X41851Y150201D01*
X41851Y142828D01*
X40450Y143284D01*
G37*
%LPD*%
%LPC*%
G36*
X140900Y253084D02*
X140900Y253084D01*
X139475Y253810D01*
X138181Y254750D01*
X137050Y255881D01*
X136110Y257175D01*
X135384Y258600D01*
X134928Y260001D01*
X142301Y260001D01*
X142301Y252628D01*
X140900Y253084D01*
G37*
%LPD*%
%LPC*%
G36*
X451750Y194084D02*
X451750Y194084D01*
X450325Y194810D01*
X449031Y195750D01*
X447900Y196881D01*
X446960Y198175D01*
X446234Y199600D01*
X445778Y201001D01*
X453151Y201001D01*
X453151Y193628D01*
X451750Y194084D01*
G37*
%LPD*%
%LPC*%
G36*
X451750Y67084D02*
X451750Y67084D01*
X450325Y67810D01*
X449031Y68750D01*
X447900Y69881D01*
X446960Y71175D01*
X446234Y72600D01*
X445778Y74001D01*
X453151Y74001D01*
X453151Y66628D01*
X451750Y67084D01*
G37*
%LPD*%
%LPC*%
G36*
X40450Y67084D02*
X40450Y67084D01*
X39025Y67810D01*
X37731Y68750D01*
X36600Y69881D01*
X35660Y71175D01*
X34934Y72600D01*
X34478Y74001D01*
X41851Y74001D01*
X41851Y66628D01*
X40450Y67084D01*
G37*
%LPD*%
%LPC*%
G36*
X40450Y92484D02*
X40450Y92484D01*
X39025Y93210D01*
X37731Y94150D01*
X36600Y95281D01*
X35660Y96575D01*
X34934Y98000D01*
X34478Y99401D01*
X41851Y99401D01*
X41851Y92028D01*
X40450Y92484D01*
G37*
%LPD*%
%LPC*%
G36*
X40450Y117884D02*
X40450Y117884D01*
X39025Y118610D01*
X37731Y119550D01*
X36600Y120681D01*
X35660Y121975D01*
X34934Y123400D01*
X34478Y124801D01*
X41851Y124801D01*
X41851Y117428D01*
X40450Y117884D01*
G37*
%LPD*%
%LPC*%
G36*
X44349Y152699D02*
X44349Y152699D01*
X44349Y152701D01*
X44351Y152701D01*
X44351Y152699D01*
X44349Y152699D01*
G37*
%LPD*%
%LPC*%
G36*
X44349Y76499D02*
X44349Y76499D01*
X44349Y76501D01*
X44351Y76501D01*
X44351Y76499D01*
X44349Y76499D01*
G37*
%LPD*%
%LPC*%
G36*
X455649Y76499D02*
X455649Y76499D01*
X455649Y76501D01*
X455651Y76501D01*
X455651Y76499D01*
X455649Y76499D01*
G37*
%LPD*%
%LPC*%
G36*
X455649Y203499D02*
X455649Y203499D01*
X455649Y203501D01*
X455651Y203501D01*
X455651Y203499D01*
X455649Y203499D01*
G37*
%LPD*%
%LPC*%
G36*
X44349Y127299D02*
X44349Y127299D01*
X44349Y127301D01*
X44351Y127301D01*
X44351Y127299D01*
X44349Y127299D01*
G37*
%LPD*%
%LPC*%
G36*
X44349Y101899D02*
X44349Y101899D01*
X44349Y101901D01*
X44351Y101901D01*
X44351Y101899D01*
X44349Y101899D01*
G37*
%LPD*%
%LPC*%
G36*
X144799Y262499D02*
X144799Y262499D01*
X144799Y262501D01*
X144801Y262501D01*
X144801Y262499D01*
X144799Y262499D01*
G37*
%LPD*%
D10*
X455650Y203500D03*
X455650Y178100D03*
X455650Y152700D03*
X455650Y127300D03*
X455650Y101900D03*
X455650Y76500D03*
X430250Y203500D03*
X430250Y178100D03*
X430250Y152700D03*
X430250Y127300D03*
X430250Y101900D03*
X430250Y76500D03*
X44350Y76500D03*
X44350Y101900D03*
X44350Y127300D03*
X44350Y152700D03*
X44350Y178100D03*
X44350Y203500D03*
X69750Y76500D03*
X69750Y101900D03*
X69750Y127300D03*
X69750Y152700D03*
X69750Y178100D03*
X69750Y203500D03*
X94000Y262500D03*
X119400Y262500D03*
X144800Y262500D03*
X170200Y262500D03*
X195600Y262500D03*
X221000Y262500D03*
D11*
X405000Y225000D03*
X405000Y165000D03*
X405000Y185000D03*
X405000Y145000D03*
X405000Y125000D03*
X405000Y105000D03*
X405000Y85000D03*
X405000Y65000D03*
X405000Y205000D03*
X175000Y100000D03*
X174692Y114692D03*
X210000Y147500D03*
X265000Y147500D03*
X134992Y155008D03*
X133444Y191672D03*
X175000Y222500D03*
X170000Y173444D03*
X77500Y45000D03*
X172500Y32500D03*
X160000Y45000D03*
X90000Y32500D03*
X90000Y72500D03*
X77500Y60000D03*
X127500Y30000D03*
X137500Y30000D03*
X210000Y30000D03*
X220000Y30000D03*
X172500Y72500D03*
X160000Y60000D03*
X370000Y60000D03*
X355000Y75000D03*
X302500Y140000D03*
X320000Y160000D03*
X285000Y160000D03*
X285000Y120000D03*
X320000Y120000D03*
X362500Y202500D03*
X140000Y132500D03*
X122500Y147500D03*
X185000Y225000D03*
X245000Y250000D03*
X325000Y212500D03*
X347500Y212500D03*
X165000Y187500D03*
X130000Y240000D03*
X265000Y252500D03*
X292500Y267500D03*
X285000Y267500D03*
X277500Y267500D03*
X305000Y252500D03*
X317500Y242500D03*
X330000Y252500D03*
X262500Y37500D03*
X287500Y37500D03*
X297500Y37500D03*
X322500Y37500D03*
X310000Y67500D03*
X285000Y110000D03*
X300000Y180000D03*
X310000Y180000D03*
X280000Y180000D03*
X192500Y95000D03*
X240000Y187500D03*
X227500Y135000D03*
X172500Y135000D03*
X245000Y95000D03*
X245000Y210000D03*
X95000Y152500D03*
X82500Y217500D03*
X105000Y185000D03*
X95000Y112500D03*
X210000Y75000D03*
X220000Y75000D03*
X325000Y175000D03*
X335000Y137500D03*
X262500Y50000D03*
X262500Y60000D03*
X192500Y147500D03*
X107500Y170000D03*
X127500Y75000D03*
X137500Y75000D03*
X235000Y95000D03*
X175000Y232500D03*
X185000Y212500D03*
X125827Y125827D03*
X151756Y180000D03*
X132500Y145000D03*
X260944Y165000D03*
X231420Y187500D03*
X157500Y197500D03*
X120000Y197500D03*
X157500Y207500D03*
X120000Y207500D03*
X102500Y159694D03*
X57500Y165000D03*
X112500Y190000D03*
X107500Y210000D03*
M02*
