G04 EAGLE Gerber RS-274X export*
G75*
%MOMM*%
%FSLAX34Y34*%
%LPD*%
%INSoldermask Top*%
%IPPOS*%
%AMOC8*
5,1,8,0,0,1.08239X$1,22.5*%
G01*
%ADD10C,3.303200*%
%ADD11R,0.803200X0.803200*%
%ADD12R,1.953200X1.453200*%
%ADD13R,1.203200X1.203200*%
%ADD14R,1.762000X0.483200*%
%ADD15R,0.483200X1.762000*%
%ADD16P,1.869504X8X292.500000*%
%ADD17P,1.869504X8X112.500000*%
%ADD18C,0.473200*%
%ADD19R,1.703200X1.453200*%
%ADD20C,0.453200*%
%ADD21C,1.727200*%
%ADD22R,0.803200X0.803200*%
%ADD23R,1.003200X1.003200*%
%ADD24R,0.953200X1.203200*%
%ADD25C,1.203200*%

G36*
X214550Y228107D02*
X214550Y228107D01*
X214616Y228109D01*
X214659Y228127D01*
X214706Y228135D01*
X214763Y228169D01*
X214823Y228194D01*
X214858Y228225D01*
X214899Y228250D01*
X214941Y228301D01*
X214989Y228345D01*
X215011Y228387D01*
X215040Y228424D01*
X215061Y228486D01*
X215092Y228545D01*
X215100Y228599D01*
X215112Y228636D01*
X215111Y228676D01*
X215119Y228730D01*
X215119Y231270D01*
X215108Y231335D01*
X215106Y231401D01*
X215088Y231444D01*
X215080Y231491D01*
X215046Y231548D01*
X215021Y231608D01*
X214990Y231643D01*
X214965Y231684D01*
X214914Y231726D01*
X214870Y231774D01*
X214828Y231796D01*
X214791Y231825D01*
X214729Y231846D01*
X214670Y231877D01*
X214616Y231885D01*
X214579Y231897D01*
X214539Y231896D01*
X214485Y231904D01*
X210675Y231904D01*
X210610Y231893D01*
X210544Y231891D01*
X210501Y231873D01*
X210454Y231865D01*
X210397Y231831D01*
X210337Y231806D01*
X210302Y231775D01*
X210261Y231750D01*
X210220Y231699D01*
X210171Y231655D01*
X210149Y231613D01*
X210120Y231576D01*
X210099Y231514D01*
X210068Y231455D01*
X210060Y231401D01*
X210048Y231364D01*
X210048Y231361D01*
X210049Y231324D01*
X210041Y231270D01*
X210041Y228730D01*
X210052Y228665D01*
X210054Y228599D01*
X210072Y228556D01*
X210080Y228509D01*
X210114Y228452D01*
X210139Y228392D01*
X210170Y228357D01*
X210195Y228316D01*
X210246Y228275D01*
X210290Y228226D01*
X210332Y228204D01*
X210369Y228175D01*
X210431Y228154D01*
X210490Y228123D01*
X210544Y228115D01*
X210581Y228103D01*
X210621Y228104D01*
X210675Y228096D01*
X214485Y228096D01*
X214550Y228107D01*
G37*
D10*
X27500Y262500D03*
X27500Y17500D03*
X472500Y17500D03*
X472500Y262500D03*
D11*
X385000Y205000D03*
X395000Y205000D03*
D12*
X285000Y226000D03*
X285000Y254000D03*
D13*
X265000Y225000D03*
X265000Y240000D03*
X310000Y55000D03*
X310000Y40000D03*
D11*
X297500Y57500D03*
X297500Y47500D03*
D13*
X305000Y225000D03*
X305000Y240000D03*
D11*
X317500Y222500D03*
X317500Y232500D03*
D13*
X330000Y225000D03*
X330000Y240000D03*
X220000Y97500D03*
X205000Y97500D03*
D11*
X222500Y110000D03*
X212500Y110000D03*
D13*
X275000Y55000D03*
X275000Y40000D03*
D11*
X385000Y185000D03*
X395000Y185000D03*
X287500Y57500D03*
X287500Y47500D03*
X385000Y165000D03*
X395000Y165000D03*
X385000Y145000D03*
X395000Y145000D03*
X385000Y125000D03*
X395000Y125000D03*
X385000Y105000D03*
X395000Y105000D03*
X385000Y85000D03*
X395000Y85000D03*
X385000Y65000D03*
X395000Y65000D03*
X337500Y57500D03*
X337500Y47500D03*
D14*
X359283Y102500D03*
X359283Y107500D03*
X359283Y112500D03*
X359283Y117500D03*
X359283Y122500D03*
X359283Y127500D03*
X359283Y132500D03*
X359283Y137500D03*
X359283Y142500D03*
X359283Y147500D03*
X359283Y152500D03*
X359283Y157500D03*
X359283Y162500D03*
X359283Y167500D03*
X359283Y172500D03*
X359283Y177500D03*
D15*
X340000Y196783D03*
X335000Y196783D03*
X330000Y196783D03*
X325000Y196783D03*
X320000Y196783D03*
X315000Y196783D03*
X310000Y196783D03*
X305000Y196783D03*
X300000Y196783D03*
X295000Y196783D03*
X290000Y196783D03*
X285000Y196783D03*
X280000Y196783D03*
X275000Y196783D03*
X270000Y196783D03*
X265000Y196783D03*
D14*
X245717Y177500D03*
X245717Y172500D03*
X245717Y167500D03*
X245717Y162500D03*
X245717Y157500D03*
X245717Y152500D03*
X245717Y147500D03*
X245717Y142500D03*
X245717Y137500D03*
X245717Y132500D03*
X245717Y127500D03*
X245717Y122500D03*
X245717Y117500D03*
X245717Y112500D03*
X245717Y107500D03*
X245717Y102500D03*
D15*
X265000Y83217D03*
X270000Y83217D03*
X275000Y83217D03*
X280000Y83217D03*
X285000Y83217D03*
X290000Y83217D03*
X295000Y83217D03*
X300000Y83217D03*
X305000Y83217D03*
X310000Y83217D03*
X315000Y83217D03*
X320000Y83217D03*
X325000Y83217D03*
X330000Y83217D03*
X335000Y83217D03*
X340000Y83217D03*
D11*
X385000Y215000D03*
X395000Y215000D03*
X385000Y45000D03*
X395000Y45000D03*
X327500Y47500D03*
X327500Y57500D03*
X232500Y225000D03*
X232500Y235000D03*
X385000Y195000D03*
X395000Y195000D03*
X385000Y175000D03*
X395000Y175000D03*
X385000Y155000D03*
X395000Y155000D03*
X385000Y135000D03*
X395000Y135000D03*
X385000Y115000D03*
X395000Y115000D03*
X385000Y95000D03*
X395000Y95000D03*
X385000Y75000D03*
X395000Y75000D03*
X385000Y235000D03*
X395000Y235000D03*
D16*
X455650Y203500D03*
X455650Y178100D03*
X455650Y152700D03*
X455650Y127300D03*
X455650Y101900D03*
X455650Y76500D03*
X430250Y203500D03*
X430250Y178100D03*
X430250Y152700D03*
X430250Y127300D03*
X430250Y101900D03*
X430250Y76500D03*
D17*
X44350Y76500D03*
X44350Y101900D03*
X44350Y127300D03*
X44350Y152700D03*
X44350Y178100D03*
X44350Y203500D03*
X69750Y76500D03*
X69750Y101900D03*
X69750Y127300D03*
X69750Y152700D03*
X69750Y178100D03*
X69750Y203500D03*
D18*
X197500Y54650D02*
X197500Y48000D01*
X192500Y48000D02*
X192500Y54650D01*
X187500Y54650D02*
X187500Y48000D01*
X187500Y42000D02*
X187500Y35350D01*
X192500Y35350D02*
X192500Y42000D01*
X197500Y42000D02*
X197500Y35350D01*
X115000Y48000D02*
X115000Y54650D01*
X110000Y54650D02*
X110000Y48000D01*
X105000Y48000D02*
X105000Y54650D01*
X105000Y42000D02*
X105000Y35350D01*
X110000Y35350D02*
X110000Y42000D01*
X115000Y42000D02*
X115000Y35350D01*
D19*
X215000Y62000D03*
X215000Y43000D03*
X132500Y62000D03*
X132500Y43000D03*
D13*
X90000Y45000D03*
X90000Y60000D03*
X172500Y45000D03*
X172500Y60000D03*
D11*
X197500Y62500D03*
X187500Y62500D03*
X115000Y62500D03*
X105000Y62500D03*
D20*
X100754Y133003D02*
X105066Y137315D01*
X108602Y133780D02*
X104290Y129468D01*
X107825Y125932D02*
X112137Y130244D01*
X115673Y126709D02*
X111361Y122397D01*
X114897Y118861D02*
X119209Y123173D01*
X122744Y119637D02*
X118432Y115325D01*
X121968Y111790D02*
X126280Y116102D01*
X129815Y112566D02*
X125503Y108254D01*
X135185Y112566D02*
X139497Y108254D01*
X143032Y111790D02*
X138720Y116102D01*
X142256Y119637D02*
X146568Y115325D01*
X150103Y118861D02*
X145791Y123173D01*
X149327Y126709D02*
X153639Y122397D01*
X157175Y125932D02*
X152863Y130244D01*
X156398Y133780D02*
X160710Y129468D01*
X164246Y133003D02*
X159934Y137315D01*
X159934Y142685D02*
X164246Y146997D01*
X160710Y150532D02*
X156398Y146220D01*
X152863Y149756D02*
X157175Y154068D01*
X153639Y157603D02*
X149327Y153291D01*
X145791Y156827D02*
X150103Y161139D01*
X146568Y164675D02*
X142256Y160363D01*
X138720Y163898D02*
X143032Y168210D01*
X139497Y171746D02*
X135185Y167434D01*
X129815Y167434D02*
X125503Y171746D01*
X121968Y168210D02*
X126280Y163898D01*
X122744Y160363D02*
X118432Y164675D01*
X114897Y161139D02*
X119209Y156827D01*
X115673Y153291D02*
X111361Y157603D01*
X107825Y154068D02*
X112137Y149756D01*
X108602Y146220D02*
X104290Y150532D01*
X100754Y146997D02*
X105066Y142685D01*
D21*
X94000Y254880D02*
X94000Y270120D01*
X119400Y270120D02*
X119400Y254880D01*
X144800Y254880D02*
X144800Y270120D01*
X170200Y270120D02*
X170200Y254880D01*
X195600Y254880D02*
X195600Y270120D01*
X221000Y270120D02*
X221000Y254880D01*
D22*
G36*
X96464Y129215D02*
X102143Y123536D01*
X96464Y117857D01*
X90785Y123536D01*
X96464Y129215D01*
G37*
G36*
X103536Y110785D02*
X97857Y116464D01*
X103536Y122143D01*
X109215Y116464D01*
X103536Y110785D01*
G37*
D23*
X232500Y40000D03*
X232500Y55000D03*
X150000Y40000D03*
X150000Y55000D03*
X92500Y217500D03*
X92500Y232500D03*
D24*
X360000Y235000D03*
X370000Y235000D03*
D11*
X150000Y67500D03*
X150000Y77500D03*
X232500Y67500D03*
X232500Y77500D03*
X107500Y230000D03*
X107500Y220000D03*
D13*
X92500Y170000D03*
X92500Y185000D03*
D22*
G36*
X178964Y151715D02*
X184643Y146036D01*
X178964Y140357D01*
X173285Y146036D01*
X178964Y151715D01*
G37*
G36*
X186036Y133285D02*
X180357Y138964D01*
X186036Y144643D01*
X191715Y138964D01*
X186036Y133285D01*
G37*
D24*
X197340Y230000D03*
X207500Y230000D03*
X217660Y230000D03*
X217500Y190000D03*
X207500Y190000D03*
X217500Y210000D03*
X207500Y210000D03*
D11*
X165000Y232500D03*
X165000Y222500D03*
D25*
X172500Y212500D03*
X130000Y180000D03*
X185000Y185000D03*
X167500Y92500D03*
X155000Y102500D03*
X185000Y117500D03*
X230000Y200000D03*
X200000Y140000D03*
M02*
