G04 EAGLE Gerber RS-274X export*
G75*
%MOMM*%
%FSLAX34Y34*%
%LPD*%
%INSoldermask Bottom*%
%IPPOS*%
%AMOC8*
5,1,8,0,0,1.08239X$1,22.5*%
G01*
%ADD10C,3.303200*%
%ADD11P,1.869504X8X292.500000*%
%ADD12P,1.869504X8X112.500000*%
%ADD13C,1.727200*%


D10*
X27500Y262500D03*
X27500Y17500D03*
X472500Y17500D03*
X472500Y262500D03*
D11*
X455650Y203500D03*
X455650Y178100D03*
X455650Y152700D03*
X455650Y127300D03*
X455650Y101900D03*
X455650Y76500D03*
X430250Y203500D03*
X430250Y178100D03*
X430250Y152700D03*
X430250Y127300D03*
X430250Y101900D03*
X430250Y76500D03*
D12*
X44350Y76500D03*
X44350Y101900D03*
X44350Y127300D03*
X44350Y152700D03*
X44350Y178100D03*
X44350Y203500D03*
X69750Y76500D03*
X69750Y101900D03*
X69750Y127300D03*
X69750Y152700D03*
X69750Y178100D03*
X69750Y203500D03*
D13*
X94000Y254880D02*
X94000Y270120D01*
X119400Y270120D02*
X119400Y254880D01*
X144800Y254880D02*
X144800Y270120D01*
X170200Y270120D02*
X170200Y254880D01*
X195600Y254880D02*
X195600Y270120D01*
X221000Y270120D02*
X221000Y254880D01*
M02*
